<?xml version="1.0" encoding="UTF-8"?>
<svg xmlns="http://www.w3.org/2000/svg" xmlns:xlink="http://www.w3.org/1999/xlink" width="350pt" height="302pt" viewBox="0 0 350 302" version="1.1">
<g id="surface1">
<path style=" stroke:none;fill-rule:nonzero;fill:rgb(0%,0%,0%);fill-opacity:1;" d="M 197.570313 56.558594 C 196.8125 56.558594 196.199219 57.171875 196.199219 57.929688 C 196.199219 57.980469 196.203125 58.027344 196.210938 58.078125 C 196.214844 58.1875 196.226563 58.269531 196.277344 58.425781 C 193.84375 58.839844 191.347656 59.277344 191.347656 59.277344 C 191.347656 59.277344 191.835938 56.160156 192.121094 54.539063 C 192.339844 54.6875 192.601563 54.773438 192.886719 54.773438 C 193.644531 54.773438 194.257813 54.160156 194.257813 53.402344 C 194.257813 52.644531 193.644531 52.03125 192.886719 52.03125 C 192.128906 52.03125 191.511719 52.644531 191.511719 53.402344 C 191.511719 53.679688 191.597656 53.941406 191.742188 54.160156 C 190.296875 54.960938 187.554688 56.421875 187.554688 56.421875 C 187.570313 56.570313 187.257813 53.765625 187.0625 51.949219 C 187.082031 51.949219 187.101563 51.953125 187.121094 51.953125 C 187.878906 51.953125 188.492188 51.335938 188.492188 50.578125 C 188.492188 49.824219 187.878906 49.207031 187.121094 49.207031 C 186.992188 49.207031 186.867188 49.226563 186.75 49.261719 C 186.363281 49.363281 186.058594 49.617188 185.894531 49.96875 C 185.800781 50.152344 185.75 50.359375 185.75 50.578125 C 185.75 51.050781 185.988281 51.464844 186.347656 51.710938 C 185.105469 53.070313 183.339844 54.921875 183.339844 54.921875 C 183.339844 54.921875 181.949219 52.589844 180.941406 50.992188 C 181.4375 50.785156 181.785156 50.296875 181.785156 49.726563 C 181.785156 48.972656 181.171875 48.355469 180.410156 48.355469 C 179.65625 48.355469 179.039063 48.972656 179.039063 49.726563 C 179.039063 50.289063 179.378906 50.773438 179.863281 50.984375 C 178.855469 52.585938 177.464844 54.921875 177.464844 54.921875 C 177.464844 54.921875 175.691406 53.070313 174.453125 51.710938 C 174.8125 51.464844 175.050781 51.050781 175.050781 50.578125 C 175.050781 50.359375 175 50.152344 174.90625 49.96875 C 174.742188 49.617188 174.4375 49.363281 174.050781 49.261719 C 173.933594 49.226563 173.808594 49.207031 173.679688 49.207031 C 172.921875 49.207031 172.308594 49.824219 172.308594 50.578125 C 172.308594 51.335938 172.921875 51.953125 173.679688 51.953125 C 173.699219 51.953125 173.71875 51.949219 173.738281 51.949219 C 173.546875 53.765625 173.230469 56.570313 173.246094 56.421875 C 173.246094 56.421875 170.503906 54.960938 169.058594 54.160156 C 169.203125 53.941406 169.285156 53.679688 169.285156 53.402344 C 169.285156 52.644531 168.675781 52.03125 167.914063 52.03125 C 167.15625 52.03125 166.542969 52.644531 166.542969 53.402344 C 166.542969 54.160156 167.15625 54.773438 167.914063 54.773438 C 168.199219 54.773438 168.460938 54.6875 168.679688 54.539063 C 168.964844 56.160156 169.453125 59.277344 169.453125 59.277344 C 169.453125 59.277344 166.957031 58.839844 164.523438 58.425781 C 164.574219 58.269531 164.589844 58.1875 164.59375 58.078125 C 164.597656 58.027344 164.601563 57.980469 164.601563 57.929688 C 164.601563 57.171875 163.984375 56.558594 163.230469 56.558594 C 162.472656 56.558594 161.855469 57.171875 161.855469 57.929688 C 161.855469 58.6875 162.472656 59.300781 163.230469 59.300781 C 163.539063 59.300781 163.824219 59.199219 164.054688 59.023438 C 165.925781 60.886719 168.84375 63.828125 169.585938 64.554688 C 172.375 61.972656 176.191406 60.382813 180.398438 60.382813 C 184.609375 60.382813 188.425781 61.972656 191.21875 64.554688 C 191.957031 63.828125 194.875 60.886719 196.746094 59.023438 C 196.976563 59.199219 197.261719 59.300781 197.570313 59.300781 C 198.328125 59.300781 198.945313 58.6875 198.945313 57.929688 C 198.945313 57.171875 198.328125 56.558594 197.570313 56.558594 "/>
<path style=" stroke:none;fill-rule:evenodd;fill:rgb(0%,0%,0%);fill-opacity:1;" d="M 178.59375 154.714844 L 182.101563 154.714844 L 182.101563 158.640625 L 185.820313 158.640625 L 185.820313 162.136719 L 182.101563 162.136719 L 182.101563 171.207031 L 178.59375 171.207031 L 178.59375 162.136719 L 174.953125 162.136719 L 174.953125 158.640625 L 178.59375 158.640625 "/>
<path style=" stroke:none;fill-rule:evenodd;fill:rgb(0%,0%,0%);fill-opacity:1;" d="M 158.585938 50.140625 C 159.050781 46.953125 163.53125 47.757813 165.453125 48.570313 C 167.753906 49.542969 170.027344 49.710938 172.457031 48.710938 C 180.066406 45.824219 173.992188 38.359375 170.363281 37.757813 C 169.617188 37.632813 170.285156 36.824219 171.742188 37.511719 C 173.027344 38.117188 173.96875 38.640625 173.890625 38.496094 C 171.765625 34.628906 168.949219 34.296875 167.550781 35.914063 C 167.019531 36.535156 167.21875 37.230469 168.359375 38.246094 C 173.789063 43.03125 168.386719 44.714844 163.878906 44.644531 C 158.019531 45.144531 153.867188 47.855469 154.652344 56.566406 C 151.511719 50.710938 137.070313 47.996094 133.78125 59.992188 C 133.34375 62.558594 133.066406 64.558594 133.851563 68.703125 C 134.335938 70.0625 132.621094 71.601563 130.636719 71.839844 C 131.992188 73.246094 133.492188 73.054688 134.851563 71.347656 C 134.417969 74.199219 135 77.71875 130.773438 78.550781 C 121.261719 79.695313 128.261719 86.757813 136.707031 81.761719 C 139.578125 80.027344 142.617188 76.113281 141.074219 71.199219 C 150.445313 72.480469 149.855469 61.710938 147.859375 63.414063 C 145.5 65.488281 140.488281 65.730469 139.566406 62.632813 C 148.316406 66.917969 148.527344 57.480469 145.929688 60.207031 C 142.140625 64.203125 137.207031 58.058594 142.363281 55.429688 C 140.355469 58.058594 141.257813 59.550781 142.714844 60.136719 C 144.289063 60.769531 146.789063 59.5625 145.359375 57.78125 C 143.359375 55.351563 147.339844 54.714844 149.578125 55.851563 C 151.296875 56.921875 152.082031 57.851563 154.445313 61.917969 C 155.765625 58.910156 157.964844 58.109375 160.878906 58.207031 C 157.523438 53.351563 161.664063 51.921875 162.953125 53.640625 C 163.980469 54.925781 165.273438 54.15625 165.164063 52.714844 C 165.242188 48.429688 161.09375 47.929688 158.585938 50.140625 "/>
<path style=" stroke:none;fill-rule:evenodd;fill:rgb(0%,0%,0%);fill-opacity:1;" d="M 160.523438 79.121094 C 163.519531 77.121094 166.519531 75.195313 169.527344 73.195313 C 164.59375 69.769531 160.953125 66.769531 157.734375 63.777344 C 157.296875 63.273438 157.589844 62.84375 158.230469 63.207031 C 161.015625 65.34375 163.300781 67.207031 166.09375 69.347656 L 167.816406 69.347656 C 167.738281 68.136719 167.816406 66.84375 167.816406 65.917969 C 165.738281 65.703125 162.109375 64.839844 161.015625 63.558594 C 159.9375 62.289063 163.90625 62.710938 162.664063 61.136719 C 159.265625 57.011719 153.363281 61.9375 156.089844 64.628906 C 157.828125 66.277344 159.296875 67.410156 160.953125 68.773438 C 157.296875 66.984375 153.585938 64.917969 149.929688 62.199219 C 150.078125 63.417969 150.296875 64.703125 150.445313 65.988281 C 153.796875 67.628906 157.234375 69.058594 160.664063 70.410156 C 161.164063 70.480469 161.089844 71.414063 160.664063 71.414063 C 157.367188 69.191406 153.796875 68.484375 151.585938 69.128906 C 148.9375 69.839844 149.289063 72.703125 151.371094 73.628906 C 151.585938 74.414063 150.367188 74.128906 149.003906 73.695313 C 149.507813 76.765625 152.9375 75.695313 152.726563 76.265625 C 152.578125 76.765625 150.296875 76.550781 149.929688 76.40625 C 150.863281 79.050781 153.796875 78.265625 153.796875 78.691406 C 153.796875 79.199219 152.9375 79.335938 152.367188 79.398438 C 152.9375 80.050781 153.867188 80.761719 155.652344 80.339844 C 155.800781 80.261719 156.226563 80.339844 155.941406 80.546875 C 155.800781 80.761719 155.441406 80.980469 154.871094 81.050781 C 156.4375 81.621094 157.871094 81.191406 158.726563 80.546875 C 159.589844 79.910156 159.734375 78.769531 159.660156 78.835938 C 158.871094 79.550781 158.089844 79.628906 158.160156 79.550781 C 159.296875 78.691406 160.441406 76.40625 157.734375 74.84375 C 157.660156 75.054688 157.445313 75.910156 157.015625 76.191406 C 156.65625 76.40625 156.515625 76.480469 156.65625 76.054688 C 156.878906 75.121094 157.085938 73.628906 155.585938 73.054688 C 155.722656 73.410156 155.378906 74.558594 154.9375 74.691406 C 154.726563 74.769531 154.515625 74.769531 154.585938 74.628906 C 154.800781 74.050781 155.800781 71.984375 154.160156 71.621094 C 153.9375 71.984375 154.015625 72.839844 152.726563 72.910156 C 149.359375 69.058594 157.589844 69.128906 157.15625 71.050781 C 156.800781 71.199219 156.4375 71.347656 156.089844 71.488281 C 157.085938 72.558594 158.160156 73.769531 159.160156 74.910156 C 160.738281 74.335938 162.242188 73.628906 163.804688 73.054688 C 163.953125 73.269531 164.523438 73.84375 164.742188 74.050781 C 163.453125 74.769531 161.949219 75.550781 160.589844 76.265625 C 160.664063 77.335938 160.523438 78.054688 160.523438 79.121094 "/>
<path style=" stroke:none;fill-rule:evenodd;fill:rgb(0%,0%,0%);fill-opacity:1;" d="M 149.433594 100.25 C 150.003906 97.320313 150.582031 94.257813 151.871094 91.824219 C 151.148438 91.257813 150.21875 90.757813 149.507813 90.183594 C 150.582031 90.328125 151.425781 90.4375 152.496094 90.585938 C 153.222656 88.53125 154.636719 86.386719 156.730469 83.976563 C 156.730469 83.902344 153.480469 83.527344 145.359375 85.542969 C 150.792969 83.546875 150.6875 80.125 149.425781 78.628906 C 147.320313 76.140625 143.71875 78.992188 143.71875 78.992188 C 143.71875 78.992188 143.574219 78.144531 144.46875 77.554688 C 145.941406 76.578125 147.578125 77.335938 147.363281 77.1875 C 145.574219 75.625 142.863281 76.128906 141.71875 78.339844 C 140.636719 80.476563 142.421875 83.996094 145.652344 81.976563 C 144.566406 80.125 145.921875 79.296875 146.929688 79.476563 C 148.023438 79.667969 148.699219 80.804688 147.648438 82.191406 C 145.929688 84.617188 141.472656 84.769531 137.636719 85.1875 C 127.34375 86.546875 122.40625 103.316406 138.496094 104.886719 C 133.5625 102.320313 133.5625 94.46875 138.921875 94.316406 C 141.855469 94.257813 143.722656 98.105469 140.289063 99.253906 C 141.464844 98.179688 141.140625 96.066406 139.636719 95.96875 C 133.753906 95.8125 136.777344 106.792969 143.433594 102.75 C 154.015625 94.96875 136.90625 82.769531 132.566406 95.609375 C 131.796875 88.511719 147.789063 82.691406 149.433594 100.25 "/>
<path style=" stroke:none;fill-rule:evenodd;fill:rgb(0%,0%,0%);fill-opacity:1;" d="M 118.980469 129.085938 C 117.117188 126.089844 118.46875 121.160156 121.90625 121.164063 C 125.347656 121.222656 125.105469 126.089844 122.621094 125.734375 C 120.605469 125.453125 118.261719 126.941406 118.980469 129.085938 "/>
<path style=" stroke:none;fill-rule:evenodd;fill:rgb(0%,0%,0%);fill-opacity:1;" d="M 120.832031 114.882813 C 122.339844 111.3125 124.835938 109.882813 127.90625 109.882813 C 130.476563 109.882813 131.777344 111.03125 132.566406 112.175781 C 135.972656 117.453125 129.511719 122.546875 125.480469 114.8125 C 124.488281 113.203125 122.621094 113.886719 120.832031 114.882813 "/>
<path style=" stroke:none;fill-rule:evenodd;fill:rgb(0%,0%,0%);fill-opacity:1;" d="M 118.472656 120.453125 C 118.402344 117.308594 120.40625 115.667969 122.050781 115.390625 C 123.679688 115.117188 124.554688 115.738281 125.058594 116.382813 C 127.269531 119.242188 123.410156 122.730469 121.410156 118.808594 C 120.832031 117.664063 119.265625 118.59375 118.472656 120.453125 "/>
<path style=" stroke:none;fill-rule:evenodd;fill:rgb(0%,0%,0%);fill-opacity:1;" d="M 141.140625 115.246094 C 139.925781 113.027344 138.265625 112.277344 136.777344 112.53125 C 135.785156 112.738281 135.066406 113.054688 134.632813 114.09375 C 133.703125 117.023438 137.136719 117.882813 137.988281 115.390625 C 138.347656 114.253906 139.996094 114.167969 141.140625 115.246094 "/>
<path style=" stroke:none;fill-rule:evenodd;fill:rgb(0%,0%,0%);fill-opacity:1;" d="M 172.25 158.515625 C 175.972656 139.386719 158.230469 144.863281 151.722656 125.375 C 150.933594 128.445313 151.070313 131.230469 152.292969 133.585938 C 151.941406 133.226563 151.722656 133.367188 151.296875 132.515625 C 149.652344 128.804688 148.367188 122.730469 147.648438 116.8125 C 146.929688 115.953125 143.359375 115.101563 143.644531 116.886719 C 144.710938 123.382813 145.308594 126.933594 145.554688 129.214844 C 145.644531 130.042969 143.703125 122.6875 142.566406 118.019531 C 141.78125 115.128906 136.925781 115.363281 137.988281 118.882813 C 139.066406 122.019531 139.851563 123.375 140.929688 126.453125 C 139.328125 123.851563 137.585938 121.550781 136.777344 118.382813 C 135.753906 118.769531 134.621094 118.484375 134.066406 118.171875 C 133.753906 117.996094 133.914063 119.019531 134.398438 120.449219 C 135.4375 123.402344 137.136719 124.953125 139.136719 127.378906 C 136.777344 125.734375 133.78125 122.453125 133.066406 119.453125 C 131.417969 120.453125 129.558594 120.378906 127.773438 120.023438 C 129.34375 124.027344 132.429688 126.136719 136.152344 128.84375 C 136.792969 129.339844 138.503906 130.683594 139.066406 131.230469 C 134.273438 128.945313 129.421875 126.304688 126.417969 119.453125 C 126.054688 120.238281 125.625 121.378906 124.480469 121.738281 C 125.410156 123.097656 125.199219 124.953125 124.835938 126.660156 C 127.128906 130.15625 135.132813 131.945313 138.566406 132.65625 C 138.789063 132.730469 129.492188 132.730469 123.835938 127.09375 C 121.957031 125.371094 118.621094 128.136719 120.332031 130.660156 C 122.550781 134.015625 127.925781 134.554688 137.925781 134.300781 C 137.960938 134.660156 115.121094 135.546875 113.179688 135.511719 C 111.695313 135.503906 112.789063 140.980469 116.3125 140.550781 C 125.246094 139.554688 126.019531 138.929688 128.921875 138.300781 C 130.425781 137.972656 123.910156 140.4375 117.898438 141.578125 C 118.050781 143.503906 122.195313 144.933594 125.839844 143.574219 C 130.402344 141.9375 137.023438 136.480469 140.140625 138.015625 C 140.574219 138.226563 138.285156 137.628906 134.632813 140.007813 C 130.800781 142.496094 126.269531 145.222656 125.980469 145.433594 C 130.347656 152.214844 134.433594 143.714844 141.570313 140.296875 C 143.355469 139.410156 144.90625 139.113281 144.003906 139.507813 C 124.480469 149.21875 141.570313 162.496094 146.929688 151.144531 C 140.289063 154.136719 137.78125 149.078125 140.859375 144.789063 C 138.996094 151.644531 144.976563 152.167969 147.335938 149.671875 C 140.191406 146.53125 146.476563 139.863281 151.96875 139.53125 C 156.546875 139.398438 158.355469 144.101563 155.464844 146.320313 C 155.058594 146.710938 157.726563 143.089844 154.664063 141.726563 C 152.015625 140.585938 150.828125 141.195313 149.402344 142.433594 C 145.554688 145.785156 149.871094 155.410156 156.226563 152.074219 C 160.226563 149.847656 163.03125 148.503906 166.519531 150.214844 C 161.523438 150.011719 158.328125 151.878906 156.585938 153.496094 C 154.648438 155.394531 156.652344 159.164063 160.523438 156.21875 C 162.699219 154.46875 171.953125 149.21875 170.105469 156.355469 C 169.738281 157.785156 166.367188 158.863281 169.527344 160.347656 C 171.503906 161.167969 172.03125 159.800781 172.25 158.515625 "/>
<path style=" stroke:none;fill-rule:evenodd;fill:rgb(0%,0%,0%);fill-opacity:1;" d="M 175.679688 73.769531 C 176.679688 73.769531 177.464844 74.558594 177.464844 75.550781 C 177.464844 76.550781 176.679688 77.335938 175.679688 77.335938 C 174.679688 77.335938 173.820313 76.550781 173.820313 75.550781 C 173.820313 74.558594 174.679688 73.769531 175.679688 73.769531 "/>
<path style=" stroke:none;fill-rule:evenodd;fill:rgb(0%,0%,0%);fill-opacity:1;" d="M 171.035156 75.195313 C 172.027344 75.195313 172.820313 76.050781 172.820313 77.058594 C 172.820313 78.054688 172.027344 78.835938 171.035156 78.835938 C 170.027344 78.835938 169.164063 78.054688 169.164063 77.058594 C 169.164063 76.050781 170.027344 75.195313 171.035156 75.195313 "/>
<path style=" stroke:none;fill-rule:evenodd;fill:rgb(0%,0%,0%);fill-opacity:1;" d="M 166.742188 77.554688 C 167.664063 77.554688 168.539063 78.339844 168.539063 79.335938 C 168.539063 80.339844 167.664063 81.191406 166.742188 81.191406 C 165.738281 81.191406 164.886719 80.339844 164.886719 79.335938 C 164.886719 78.339844 165.738281 77.554688 166.742188 77.554688 "/>
<path style=" stroke:none;fill-rule:evenodd;fill:rgb(0%,0%,0%);fill-opacity:1;" d="M 162.953125 80.546875 C 163.953125 80.546875 164.742188 81.40625 164.742188 82.402344 C 164.742188 83.40625 163.953125 84.191406 162.953125 84.191406 C 161.949219 84.191406 161.09375 83.40625 161.09375 82.402344 C 161.09375 81.40625 161.949219 80.546875 162.953125 80.546875 "/>
<path style=" stroke:none;fill-rule:evenodd;fill:rgb(0%,0%,0%);fill-opacity:1;" d="M 159.734375 84.117188 C 160.738281 84.117188 161.589844 84.972656 161.589844 85.972656 C 161.589844 86.976563 160.738281 87.761719 159.734375 87.761719 C 158.726563 87.761719 157.9375 86.976563 157.9375 85.972656 C 157.9375 84.972656 158.726563 84.117188 159.734375 84.117188 "/>
<path style=" stroke:none;fill-rule:evenodd;fill:rgb(0%,0%,0%);fill-opacity:1;" d="M 157.085938 88.257813 C 158.019531 88.257813 158.871094 89.121094 158.871094 90.117188 C 158.871094 91.042969 158.019531 91.894531 157.085938 91.894531 C 156.089844 91.894531 155.234375 91.042969 155.234375 90.117188 C 155.234375 89.121094 156.089844 88.257813 157.085938 88.257813 "/>
<path style=" stroke:none;fill-rule:evenodd;fill:rgb(0%,0%,0%);fill-opacity:1;" d="M 155.019531 92.617188 C 156.015625 92.617188 156.878906 93.464844 156.878906 94.46875 C 156.878906 95.46875 156.015625 96.246094 155.019531 96.246094 C 154.015625 96.246094 153.222656 95.46875 153.222656 94.46875 C 153.222656 93.464844 154.015625 92.617188 155.019531 92.617188 "/>
<path style=" stroke:none;fill-rule:evenodd;fill:rgb(0%,0%,0%);fill-opacity:1;" d="M 153.511719 97.253906 C 154.515625 97.253906 155.304688 98.109375 155.304688 99.113281 C 155.304688 100.109375 154.515625 100.898438 153.511719 100.898438 C 152.511719 100.898438 151.65625 100.109375 151.65625 99.113281 C 151.65625 98.109375 152.511719 97.253906 153.511719 97.253906 "/>
<path style=" stroke:none;fill-rule:evenodd;fill:rgb(0%,0%,0%);fill-opacity:1;" d="M 152.65625 102.105469 C 153.652344 102.105469 154.445313 102.890625 154.445313 103.894531 C 154.445313 104.886719 153.652344 105.671875 152.65625 105.671875 C 151.652344 105.671875 150.863281 104.886719 150.863281 103.894531 C 150.863281 102.890625 151.652344 102.105469 152.65625 102.105469 "/>
<path style=" stroke:none;fill-rule:evenodd;fill:rgb(0%,0%,0%);fill-opacity:1;" d="M 175.679688 140.367188 C 176.679688 140.367188 177.464844 141.15625 177.464844 142.148438 C 177.464844 143.148438 176.679688 144.007813 175.679688 144.007813 C 174.679688 144.007813 173.820313 143.148438 173.820313 142.148438 C 173.820313 141.15625 174.679688 140.367188 175.679688 140.367188 "/>
<path style=" stroke:none;fill-rule:evenodd;fill:rgb(0%,0%,0%);fill-opacity:1;" d="M 171.035156 138.867188 C 172.027344 138.867188 172.820313 139.652344 172.820313 140.652344 C 172.820313 141.652344 172.027344 142.433594 171.035156 142.433594 C 170.027344 142.433594 169.164063 141.652344 169.164063 140.652344 C 169.164063 139.652344 170.027344 138.867188 171.035156 138.867188 "/>
<path style=" stroke:none;fill-rule:evenodd;fill:rgb(0%,0%,0%);fill-opacity:1;" d="M 166.742188 136.511719 C 167.664063 136.511719 168.539063 137.371094 168.539063 138.367188 C 168.539063 139.371094 167.664063 140.152344 166.742188 140.152344 C 165.738281 140.152344 164.886719 139.371094 164.886719 138.367188 C 164.886719 137.371094 165.738281 136.511719 166.742188 136.511719 "/>
<path style=" stroke:none;fill-rule:evenodd;fill:rgb(0%,0%,0%);fill-opacity:1;" d="M 162.953125 133.445313 C 163.953125 133.445313 164.742188 134.222656 164.742188 135.226563 C 164.742188 136.222656 163.953125 137.078125 162.953125 137.078125 C 161.949219 137.078125 161.09375 136.222656 161.09375 135.226563 C 161.09375 134.222656 161.949219 133.445313 162.953125 133.445313 "/>
<path style=" stroke:none;fill-rule:evenodd;fill:rgb(0%,0%,0%);fill-opacity:1;" d="M 159.734375 129.589844 C 160.738281 129.589844 161.515625 130.449219 161.515625 131.441406 C 161.515625 132.441406 160.738281 133.226563 159.734375 133.226563 C 158.726563 133.226563 157.871094 132.441406 157.871094 131.441406 C 157.871094 130.449219 158.726563 129.589844 159.734375 129.589844 "/>
<path style=" stroke:none;fill-rule:evenodd;fill:rgb(0%,0%,0%);fill-opacity:1;" d="M 157.085938 125.519531 C 158.019531 125.519531 158.871094 126.304688 158.871094 127.304688 C 158.871094 128.296875 158.019531 129.085938 157.085938 129.085938 C 156.089844 129.085938 155.234375 128.296875 155.234375 127.304688 C 155.234375 126.304688 156.089844 125.519531 157.085938 125.519531 "/>
<path style=" stroke:none;fill-rule:evenodd;fill:rgb(0%,0%,0%);fill-opacity:1;" d="M 155.019531 121.378906 C 156.015625 121.378906 156.878906 122.164063 156.878906 123.160156 C 156.878906 124.160156 156.015625 124.871094 155.019531 124.871094 C 154.015625 124.871094 153.222656 124.160156 153.222656 123.160156 C 153.222656 122.164063 154.015625 121.378906 155.019531 121.378906 "/>
<path style=" stroke:none;fill-rule:evenodd;fill:rgb(0%,0%,0%);fill-opacity:1;" d="M 153.511719 116.664063 C 154.515625 116.664063 155.304688 117.453125 155.304688 118.457031 C 155.304688 119.449219 154.515625 120.304688 153.511719 120.304688 C 152.511719 120.304688 151.65625 119.449219 151.65625 118.457031 C 151.65625 117.453125 152.511719 116.664063 153.511719 116.664063 "/>
<path style=" stroke:none;fill-rule:evenodd;fill:rgb(0%,0%,0%);fill-opacity:1;" d="M 152.65625 111.816406 C 153.652344 111.816406 154.445313 112.671875 154.445313 113.671875 C 154.445313 114.671875 153.652344 115.453125 152.65625 115.453125 C 151.652344 115.453125 150.863281 114.671875 150.863281 113.671875 C 150.863281 112.671875 151.652344 111.816406 152.65625 111.816406 "/>
<path style=" stroke:none;fill-rule:evenodd;fill:rgb(0%,0%,0%);fill-opacity:1;" d="M 184.828125 73.769531 C 183.828125 73.769531 183.050781 74.558594 183.050781 75.550781 C 183.050781 76.550781 183.828125 77.335938 184.828125 77.335938 C 185.832031 77.335938 186.617188 76.550781 186.617188 75.550781 C 186.617188 74.558594 185.832031 73.769531 184.828125 73.769531 "/>
<path style=" stroke:none;fill-rule:evenodd;fill:rgb(0%,0%,0%);fill-opacity:1;" d="M 189.480469 75.195313 C 188.480469 75.195313 187.691406 76.050781 187.691406 77.058594 C 187.691406 78.054688 188.480469 78.835938 189.480469 78.835938 C 190.480469 78.835938 191.273438 78.054688 191.273438 77.058594 C 191.273438 76.050781 190.480469 75.195313 189.480469 75.195313 "/>
<path style=" stroke:none;fill-rule:evenodd;fill:rgb(0%,0%,0%);fill-opacity:1;" d="M 193.769531 77.554688 C 192.765625 77.554688 191.980469 78.339844 191.980469 79.335938 C 191.980469 80.339844 192.765625 81.191406 193.769531 81.191406 C 194.769531 81.191406 195.554688 80.339844 195.554688 79.335938 C 195.554688 78.339844 194.769531 77.554688 193.769531 77.554688 "/>
<path style=" stroke:none;fill-rule:evenodd;fill:rgb(0%,0%,0%);fill-opacity:1;" d="M 197.5625 80.546875 C 196.558594 80.546875 195.769531 81.40625 195.769531 82.402344 C 195.769531 83.40625 196.558594 84.191406 197.5625 84.191406 C 198.5625 84.191406 199.347656 83.40625 199.347656 82.402344 C 199.347656 81.40625 198.5625 80.546875 197.5625 80.546875 "/>
<path style=" stroke:none;fill-rule:evenodd;fill:rgb(0%,0%,0%);fill-opacity:1;" d="M 200.707031 84.117188 C 199.703125 84.117188 198.917969 84.972656 198.917969 85.972656 C 198.917969 86.976563 199.703125 87.761719 200.707031 87.761719 C 201.703125 87.761719 202.5625 86.976563 202.5625 85.972656 C 202.5625 84.972656 201.703125 84.117188 200.707031 84.117188 "/>
<path style=" stroke:none;fill-rule:evenodd;fill:rgb(0%,0%,0%);fill-opacity:1;" d="M 203.425781 88.257813 C 202.421875 88.257813 201.632813 89.121094 201.632813 90.117188 C 201.632813 91.042969 202.421875 91.894531 203.425781 91.894531 C 204.425781 91.894531 205.210938 91.042969 205.210938 90.117188 C 205.210938 89.121094 204.425781 88.257813 203.425781 88.257813 "/>
<path style=" stroke:none;fill-rule:evenodd;fill:rgb(0%,0%,0%);fill-opacity:1;" d="M 205.421875 92.617188 C 204.425781 92.617188 203.632813 93.464844 203.632813 94.46875 C 203.632813 95.46875 204.425781 96.246094 205.421875 96.246094 C 206.425781 96.246094 207.28125 95.46875 207.28125 94.46875 C 207.28125 93.464844 206.425781 92.617188 205.421875 92.617188 "/>
<path style=" stroke:none;fill-rule:evenodd;fill:rgb(0%,0%,0%);fill-opacity:1;" d="M 206.996094 97.253906 C 205.996094 97.253906 205.210938 98.109375 205.210938 99.113281 C 205.210938 100.109375 205.996094 100.898438 206.996094 100.898438 C 208.003906 100.898438 208.785156 100.109375 208.785156 99.113281 C 208.785156 98.109375 208.003906 97.253906 206.996094 97.253906 "/>
<path style=" stroke:none;fill-rule:evenodd;fill:rgb(0%,0%,0%);fill-opacity:1;" d="M 207.859375 102.105469 C 206.855469 102.105469 205.996094 102.890625 205.996094 103.894531 C 205.996094 104.886719 206.855469 105.671875 207.859375 105.671875 C 208.855469 105.671875 209.640625 104.886719 209.640625 103.894531 C 209.640625 102.890625 208.855469 102.105469 207.859375 102.105469 "/>
<path style=" stroke:none;fill-rule:evenodd;fill:rgb(0%,0%,0%);fill-opacity:1;" d="M 184.828125 140.367188 C 183.828125 140.367188 183.050781 141.15625 183.050781 142.148438 C 183.050781 143.148438 183.828125 144.007813 184.828125 144.007813 C 185.832031 144.007813 186.617188 143.148438 186.617188 142.148438 C 186.617188 141.15625 185.832031 140.367188 184.828125 140.367188 "/>
<path style=" stroke:none;fill-rule:evenodd;fill:rgb(0%,0%,0%);fill-opacity:1;" d="M 189.480469 138.867188 C 188.480469 138.867188 187.691406 139.652344 187.691406 140.652344 C 187.691406 141.652344 188.480469 142.433594 189.480469 142.433594 C 190.480469 142.433594 191.273438 141.652344 191.273438 140.652344 C 191.273438 139.652344 190.480469 138.867188 189.480469 138.867188 "/>
<path style=" stroke:none;fill-rule:evenodd;fill:rgb(0%,0%,0%);fill-opacity:1;" d="M 193.769531 136.511719 C 192.765625 136.511719 191.980469 137.371094 191.980469 138.367188 C 191.980469 139.371094 192.765625 140.152344 193.769531 140.152344 C 194.769531 140.152344 195.554688 139.371094 195.554688 138.367188 C 195.554688 137.371094 194.769531 136.511719 193.769531 136.511719 "/>
<path style=" stroke:none;fill-rule:evenodd;fill:rgb(0%,0%,0%);fill-opacity:1;" d="M 197.5625 133.445313 C 196.558594 133.445313 195.769531 134.222656 195.769531 135.226563 C 195.769531 136.222656 196.558594 137.078125 197.5625 137.078125 C 198.5625 137.078125 199.347656 136.222656 199.347656 135.226563 C 199.347656 134.222656 198.5625 133.445313 197.5625 133.445313 "/>
<path style=" stroke:none;fill-rule:evenodd;fill:rgb(0%,0%,0%);fill-opacity:1;" d="M 200.773438 129.589844 C 199.777344 129.589844 198.992188 130.449219 198.992188 131.441406 C 198.992188 132.441406 199.777344 133.226563 200.773438 133.226563 C 201.777344 133.226563 202.5625 132.441406 202.5625 131.441406 C 202.5625 130.449219 201.777344 129.589844 200.773438 129.589844 "/>
<path style=" stroke:none;fill-rule:evenodd;fill:rgb(0%,0%,0%);fill-opacity:1;" d="M 203.425781 125.519531 C 202.421875 125.519531 201.632813 126.304688 201.632813 127.304688 C 201.632813 128.296875 202.421875 129.085938 203.425781 129.085938 C 204.425781 129.085938 205.210938 128.296875 205.210938 127.304688 C 205.210938 126.304688 204.425781 125.519531 203.425781 125.519531 "/>
<path style=" stroke:none;fill-rule:evenodd;fill:rgb(0%,0%,0%);fill-opacity:1;" d="M 205.421875 121.378906 C 204.425781 121.378906 203.632813 122.164063 203.632813 123.160156 C 203.632813 124.160156 204.425781 124.871094 205.421875 124.871094 C 206.425781 124.871094 207.28125 124.160156 207.28125 123.160156 C 207.28125 122.164063 206.425781 121.378906 205.421875 121.378906 "/>
<path style=" stroke:none;fill-rule:evenodd;fill:rgb(0%,0%,0%);fill-opacity:1;" d="M 206.996094 116.664063 C 205.996094 116.664063 205.210938 117.453125 205.210938 118.457031 C 205.210938 119.449219 205.996094 120.304688 206.996094 120.304688 C 208.003906 120.304688 208.785156 119.449219 208.785156 118.457031 C 208.785156 117.453125 208.003906 116.664063 206.996094 116.664063 "/>
<path style=" stroke:none;fill-rule:evenodd;fill:rgb(0%,0%,0%);fill-opacity:1;" d="M 207.859375 111.816406 C 206.855469 111.816406 205.996094 112.671875 205.996094 113.671875 C 205.996094 114.671875 206.855469 115.453125 207.859375 115.453125 C 208.855469 115.453125 209.640625 114.671875 209.640625 113.671875 C 209.640625 112.671875 208.855469 111.816406 207.859375 111.816406 "/>
<path style=" stroke:none;fill-rule:nonzero;fill:rgb(0%,0%,0%);fill-opacity:1;" d="M 178.878906 97.5 C 178.625 96.105469 177.589844 95.777344 177.152344 95.753906 C 175.214844 95.636719 175.789063 98.59375 174.722656 96.246094 C 173.582031 93.769531 174.292969 89.4375 178.539063 90.460938 C 178.539063 90.4375 178.539063 90.414063 178.539063 90.394531 C 175.460938 85.605469 177.304688 80.894531 180.179688 78.503906 C 180.242188 78.441406 180.3125 78.386719 180.382813 78.339844 C 171.589844 78.410156 166.15625 83.761719 162.789063 87.902344 L 178.9375 107.230469 L 178.9375 98.503906 C 178.925781 98.25 178.90625 97.910156 178.878906 97.5 "/>
<path style=" stroke:none;fill-rule:evenodd;fill:rgb(0%,0%,0%);fill-opacity:1;" d="M 178.949219 107.246094 L 171.941406 107.246094 C 168.1875 107.230469 169.597656 103.402344 171.085938 102.605469 C 169.933594 100.390625 164.855469 100.820313 166.074219 106.679688 C 161.640625 102.464844 157.207031 105.605469 155.929688 108.683594 L 178.949219 108.683594 "/>
<path style=" stroke:none;fill-rule:nonzero;fill:rgb(0%,0%,0%);fill-opacity:1;" d="M 171.085938 114.761719 C 169.9375 116.976563 164.855469 116.546875 166.074219 110.691406 C 161.644531 114.902344 157.207031 111.761719 155.929688 108.683594 C 155.488281 116.613281 159.785156 126.476563 162.929688 129.617188 L 178.949219 110.121094 L 171.941406 110.121094 C 168.1875 110.132813 169.597656 113.960938 171.085938 114.761719 "/>
<path style=" stroke:none;fill-rule:evenodd;fill:rgb(0%,0%,0%);fill-opacity:1;" d="M 181.824219 108.683594 L 181.824219 98.175781 C 181.824219 96.210938 183.105469 95.78125 183.609375 95.753906 C 185.546875 95.636719 184.972656 98.59375 186.039063 96.246094 C 187.183594 93.757813 186.464844 89.402344 182.175781 90.472656 C 185.394531 85.542969 183.386719 80.6875 180.382813 78.339844 L 180.386719 108.683594 "/>
<path style=" stroke:none;fill-rule:nonzero;fill:rgb(0%,0%,0%);fill-opacity:1;" d="M 181.894531 119.867188 C 182.148438 121.261719 183.183594 121.589844 183.621094 121.617188 C 185.5625 121.730469 184.988281 118.773438 186.054688 121.121094 C 187.191406 123.597656 186.484375 127.933594 182.234375 126.90625 C 182.234375 126.929688 182.234375 126.953125 182.234375 126.972656 C 185.316406 131.761719 183.46875 136.472656 180.59375 138.863281 C 180.53125 138.925781 180.464844 138.980469 180.394531 139.027344 C 189.1875 138.957031 194.617188 133.605469 197.984375 129.46875 L 181.835938 110.136719 L 181.835938 118.863281 C 181.847656 119.117188 181.871094 119.460938 181.894531 119.867188 "/>
<path style=" stroke:none;fill-rule:evenodd;fill:rgb(0%,0%,0%);fill-opacity:1;" d="M 181.824219 110.121094 L 188.835938 110.121094 C 192.585938 110.136719 191.175781 113.964844 189.6875 114.761719 C 190.839844 116.976563 195.917969 116.546875 194.703125 110.691406 C 199.132813 114.902344 203.566406 111.765625 204.847656 108.683594 L 181.824219 108.683594 "/>
<path style=" stroke:none;fill-rule:nonzero;fill:rgb(0%,0%,0%);fill-opacity:1;" d="M 189.6875 102.605469 C 190.839844 100.390625 195.917969 100.820313 194.703125 106.679688 C 199.132813 102.464844 203.566406 105.605469 204.847656 108.683594 C 205.285156 100.753906 200.988281 90.890625 197.84375 87.753906 L 181.824219 107.246094 L 188.835938 107.246094 C 192.585938 107.234375 191.175781 103.40625 189.6875 102.605469 "/>
<path style=" stroke:none;fill-rule:evenodd;fill:rgb(0%,0%,0%);fill-opacity:1;" d="M 178.949219 108.683594 L 178.949219 119.195313 C 178.949219 121.160156 177.667969 121.585938 177.164063 121.617188 C 175.226563 121.730469 175.800781 118.777344 174.734375 121.121094 C 173.59375 123.609375 174.308594 127.964844 178.601563 126.898438 C 175.378906 131.824219 177.390625 136.679688 180.394531 139.027344 L 180.386719 108.683594 "/>
<path style=" stroke:none;fill-rule:nonzero;fill:rgb(0%,0%,0%);fill-opacity:1;" d="M 182.285156 67.742188 C 182.335938 65.675781 181.671875 64.15625 180.386719 63.597656 C 179.101563 64.15625 178.4375 65.675781 178.488281 67.742188 C 176.203125 67.664063 173.6875 69.917969 175.523438 73.023438 C 176.726563 71.058594 178.488281 71.527344 178.488281 73.21875 C 178.503906 74.871094 178.496094 75.519531 178.488281 77.015625 L 182.285156 77.015625 C 182.277344 75.519531 182.269531 74.871094 182.285156 73.21875 C 182.285156 71.527344 184.046875 71.058594 185.253906 73.023438 C 187.085938 69.917969 184.570313 67.664063 182.285156 67.742188 "/>
<path style=" stroke:none;fill-rule:nonzero;fill:rgb(0%,0%,0%);fill-opacity:1;" d="M 144.210938 106.859375 C 142.144531 106.804688 140.625 107.472656 140.066406 108.753906 C 140.625 110.039063 142.144531 110.703125 144.210938 110.652344 C 144.132813 112.9375 146.386719 115.457031 149.492188 113.621094 C 147.527344 112.414063 147.996094 110.621094 149.6875 110.621094 C 151.339844 110.609375 152.585938 110.613281 154.082031 110.621094 L 154.082031 106.859375 C 152.585938 106.863281 151.339844 106.871094 149.6875 106.859375 C 147.996094 106.859375 147.527344 105.097656 149.492188 103.890625 C 146.386719 102.054688 144.132813 104.574219 144.210938 106.859375 "/>
<path style=" stroke:none;fill-rule:nonzero;fill:rgb(0%,0%,0%);fill-opacity:1;" d="M 216.230469 110.652344 C 218.296875 110.703125 219.816406 110.039063 220.371094 108.757813 C 219.816406 107.472656 218.296875 106.804688 216.230469 106.859375 C 216.308594 104.574219 214.050781 102.054688 210.949219 103.890625 C 212.914063 105.097656 212.445313 106.890625 210.753906 106.890625 C 209.101563 106.902344 207.851563 106.898438 206.355469 106.890625 L 206.355469 110.652344 C 207.851563 110.648438 209.101563 110.640625 210.753906 110.652344 C 212.445313 110.652344 212.914063 112.414063 210.949219 113.621094 C 214.050781 115.457031 216.308594 112.9375 216.230469 110.652344 "/>
<path style=" stroke:none;fill-rule:nonzero;fill:rgb(0%,0%,0%);fill-opacity:1;" d="M 178.488281 149.925781 C 178.4375 151.992188 179.101563 153.511719 180.386719 154.070313 C 181.671875 153.511719 182.335938 151.992188 182.285156 149.925781 C 184.570313 150.003906 187.085938 147.75 185.253906 144.644531 C 184.046875 146.609375 182.253906 146.140625 182.253906 144.449219 C 182.238281 142.796875 182.246094 142.148438 182.253906 140.652344 L 178.488281 140.652344 C 178.496094 142.148438 178.503906 142.796875 178.488281 144.449219 C 178.488281 146.140625 176.726563 146.609375 175.523438 144.644531 C 173.6875 147.75 176.203125 150.003906 178.488281 149.925781 "/>
<path style=" stroke:none;fill-rule:evenodd;fill:rgb(0%,0%,0%);fill-opacity:1;" d="M 180.398438 62.753906 C 183.941406 62.753906 187.152344 64.097656 189.496094 66.277344 L 190.5625 65.210938 C 187.9375 62.78125 184.355469 61.285156 180.398438 61.285156 C 176.449219 61.285156 172.863281 62.78125 170.246094 65.207031 L 171.3125 66.273438 C 173.652344 64.097656 176.859375 62.753906 180.398438 62.753906 "/>
<path style=" stroke:none;fill-rule:evenodd;fill:rgb(0%,0%,0%);fill-opacity:1;" d="M 180.394531 62.753906 C 176.851563 62.753906 173.644531 64.097656 171.300781 66.277344 L 170.234375 65.210938 C 172.855469 62.78125 176.4375 61.285156 180.394531 61.285156 C 184.347656 61.285156 187.929688 62.78125 190.550781 65.207031 L 189.484375 66.273438 C 187.140625 64.097656 183.933594 62.753906 180.394531 62.753906 "/>
<path style=" stroke:none;fill-rule:evenodd;fill:rgb(0%,0%,0%);fill-opacity:1;" d="M 202.207031 50.140625 C 201.746094 46.953125 197.265625 47.757813 195.34375 48.570313 C 193.039063 49.542969 190.765625 49.710938 188.335938 48.710938 C 180.726563 45.824219 186.800781 38.359375 190.433594 37.757813 C 191.175781 37.632813 190.511719 36.824219 189.050781 37.511719 C 187.765625 38.117188 186.824219 38.640625 186.90625 38.496094 C 189.03125 34.628906 191.84375 34.296875 193.242188 35.914063 C 193.777344 36.535156 193.578125 37.230469 192.433594 38.246094 C 187.003906 43.03125 192.410156 44.714844 196.917969 44.644531 C 202.777344 45.144531 206.925781 47.855469 206.140625 56.566406 C 209.285156 50.710938 223.722656 47.996094 227.011719 59.992188 C 227.449219 62.558594 227.730469 64.558594 226.941406 68.703125 C 226.460938 70.0625 228.171875 71.601563 230.160156 71.839844 C 228.804688 73.246094 227.300781 73.054688 225.941406 71.347656 C 226.378906 74.199219 225.796875 77.71875 230.023438 78.550781 C 239.53125 79.695313 232.53125 86.757813 224.085938 81.761719 C 221.21875 80.027344 218.175781 76.113281 219.71875 71.199219 C 210.347656 72.480469 210.9375 61.710938 212.9375 63.414063 C 215.296875 65.488281 220.308594 65.730469 221.226563 62.632813 C 212.476563 66.917969 212.265625 57.480469 214.867188 60.207031 C 218.652344 64.203125 223.585938 58.058594 218.433594 55.429688 C 220.4375 58.058594 219.539063 59.550781 218.078125 60.136719 C 216.503906 60.769531 214.003906 59.5625 215.4375 57.78125 C 217.4375 55.351563 213.457031 54.714844 211.214844 55.851563 C 209.5 56.921875 208.710938 57.851563 206.351563 61.917969 C 205.03125 58.910156 202.828125 58.109375 199.917969 58.207031 C 203.269531 53.351563 199.128906 51.921875 197.84375 53.640625 C 196.816406 54.925781 195.519531 54.15625 195.632813 52.714844 C 195.554688 48.429688 199.703125 47.929688 202.207031 50.140625 "/>
<path style=" stroke:none;fill-rule:evenodd;fill:rgb(0%,0%,0%);fill-opacity:1;" d="M 200.269531 79.121094 C 197.277344 77.121094 194.277344 75.195313 191.265625 73.195313 C 196.199219 69.769531 199.84375 66.769531 203.0625 63.777344 C 203.496094 63.273438 203.207031 62.84375 202.566406 63.207031 C 199.777344 65.34375 197.492188 67.207031 194.699219 69.347656 L 192.976563 69.347656 C 193.058594 68.136719 192.976563 66.84375 192.976563 65.917969 C 195.058594 65.703125 198.6875 64.839844 199.777344 63.558594 C 200.855469 62.289063 196.890625 62.710938 198.128906 61.136719 C 201.53125 57.011719 207.429688 61.9375 204.703125 64.628906 C 202.96875 66.277344 201.496094 67.410156 199.84375 68.773438 C 203.496094 66.984375 207.210938 64.917969 210.863281 62.199219 C 210.714844 63.417969 210.496094 64.703125 210.347656 65.988281 C 206.996094 67.628906 203.5625 69.058594 200.132813 70.410156 C 199.632813 70.480469 199.703125 71.414063 200.132813 71.414063 C 203.429688 69.191406 206.996094 68.484375 209.210938 69.128906 C 211.859375 69.839844 211.503906 72.703125 209.425781 73.628906 C 209.210938 74.414063 210.429688 74.128906 211.792969 73.695313 C 211.285156 76.765625 207.855469 75.695313 208.066406 76.265625 C 208.214844 76.765625 210.496094 76.550781 210.863281 76.40625 C 209.929688 79.050781 206.996094 78.265625 206.996094 78.691406 C 206.996094 79.199219 207.855469 79.335938 208.425781 79.398438 C 207.855469 80.050781 206.925781 80.761719 205.140625 80.339844 C 204.992188 80.261719 204.566406 80.339844 204.851563 80.546875 C 204.992188 80.761719 205.351563 80.980469 205.925781 81.050781 C 204.355469 81.621094 202.921875 81.191406 202.066406 80.546875 C 201.203125 79.910156 201.0625 78.769531 201.136719 78.835938 C 201.921875 79.550781 202.707031 79.628906 202.636719 79.550781 C 201.496094 78.691406 200.351563 76.40625 203.0625 74.84375 C 203.136719 75.054688 203.351563 75.910156 203.78125 76.191406 C 204.140625 76.40625 204.28125 76.480469 204.140625 76.054688 C 203.914063 75.121094 203.710938 73.628906 205.210938 73.054688 C 205.070313 73.410156 205.417969 74.558594 205.855469 74.691406 C 206.070313 74.769531 206.28125 74.769531 206.210938 74.628906 C 205.996094 74.050781 204.992188 71.984375 206.632813 71.621094 C 206.855469 71.984375 206.78125 72.839844 208.066406 72.910156 C 211.433594 69.058594 203.207031 69.128906 203.640625 71.050781 C 203.996094 71.199219 204.355469 71.347656 204.703125 71.488281 C 203.710938 72.558594 202.636719 73.769531 201.632813 74.910156 C 200.058594 74.335938 198.550781 73.628906 196.988281 73.054688 C 196.839844 73.269531 196.269531 73.84375 196.050781 74.050781 C 197.34375 74.769531 198.84375 75.550781 200.203125 76.265625 C 200.132813 77.335938 200.269531 78.054688 200.269531 79.121094 "/>
<path style=" stroke:none;fill-rule:evenodd;fill:rgb(0%,0%,0%);fill-opacity:1;" d="M 211.363281 100.25 C 210.789063 97.320313 210.214844 94.257813 208.925781 91.824219 C 209.644531 91.257813 210.574219 90.757813 211.285156 90.183594 C 210.214844 90.328125 209.367188 90.4375 208.296875 90.585938 C 207.570313 88.53125 206.160156 86.386719 204.0625 83.976563 C 204.0625 83.902344 207.316406 83.527344 215.433594 85.542969 C 210.003906 83.546875 210.105469 80.125 211.371094 78.628906 C 213.472656 76.140625 217.074219 78.992188 217.074219 78.992188 C 217.074219 78.992188 217.21875 78.144531 216.324219 77.554688 C 214.851563 76.578125 213.214844 77.335938 213.429688 77.1875 C 215.222656 75.625 217.933594 76.128906 219.078125 78.339844 C 220.160156 80.476563 218.371094 83.996094 215.144531 81.976563 C 216.226563 80.125 214.871094 79.296875 213.863281 79.476563 C 212.773438 79.667969 212.09375 80.804688 213.144531 82.191406 C 214.867188 84.617188 219.324219 84.769531 223.15625 85.1875 C 233.453125 86.546875 238.386719 103.316406 222.296875 104.886719 C 227.230469 102.320313 227.230469 94.46875 221.871094 94.316406 C 218.9375 94.257813 217.074219 98.105469 220.507813 99.253906 C 219.328125 98.179688 219.65625 96.066406 221.15625 95.96875 C 227.039063 95.8125 224.015625 106.792969 217.359375 102.75 C 206.78125 94.96875 223.890625 82.769531 228.230469 95.609375 C 229 88.511719 213.007813 82.691406 211.363281 100.25 "/>
<path style=" stroke:none;fill-rule:evenodd;fill:rgb(0%,0%,0%);fill-opacity:1;" d="M 241.8125 129.085938 C 243.675781 126.089844 242.324219 121.160156 238.890625 121.164063 C 235.445313 121.222656 235.691406 126.089844 238.171875 125.734375 C 240.1875 125.453125 242.535156 126.941406 241.8125 129.085938 "/>
<path style=" stroke:none;fill-rule:evenodd;fill:rgb(0%,0%,0%);fill-opacity:1;" d="M 239.964844 114.882813 C 238.457031 111.3125 235.960938 109.882813 232.886719 109.882813 C 230.316406 109.882813 229.015625 111.03125 228.230469 112.175781 C 224.824219 117.453125 231.285156 122.546875 235.3125 114.8125 C 236.304688 113.203125 238.171875 113.886719 239.964844 114.882813 "/>
<path style=" stroke:none;fill-rule:evenodd;fill:rgb(0%,0%,0%);fill-opacity:1;" d="M 242.324219 120.453125 C 242.394531 117.308594 240.386719 115.667969 238.746094 115.390625 C 237.113281 115.117188 236.238281 115.738281 235.738281 116.382813 C 233.523438 119.242188 237.386719 122.730469 239.386719 118.808594 C 239.964844 117.664063 241.53125 118.59375 242.324219 120.453125 "/>
<path style=" stroke:none;fill-rule:evenodd;fill:rgb(0%,0%,0%);fill-opacity:1;" d="M 219.65625 115.246094 C 220.867188 113.027344 222.53125 112.277344 224.015625 112.53125 C 225.011719 112.738281 225.730469 113.054688 226.160156 114.09375 C 227.089844 117.023438 223.65625 117.882813 222.804688 115.390625 C 222.445313 114.253906 220.796875 114.167969 219.65625 115.246094 "/>
<path style=" stroke:none;fill-rule:evenodd;fill:rgb(0%,0%,0%);fill-opacity:1;" d="M 188.542969 158.515625 C 184.820313 139.386719 202.566406 144.863281 209.074219 125.375 C 209.859375 128.445313 209.722656 131.230469 208.5 133.585938 C 208.855469 133.226563 209.074219 133.367188 209.5 132.515625 C 211.140625 128.804688 212.429688 122.730469 213.148438 116.8125 C 213.863281 115.953125 217.4375 115.101563 217.152344 116.886719 C 216.085938 123.382813 215.488281 126.933594 215.238281 129.214844 C 215.148438 130.042969 217.09375 122.6875 218.230469 118.019531 C 219.015625 115.128906 223.867188 115.363281 222.804688 118.882813 C 221.730469 122.019531 220.941406 123.375 219.863281 126.453125 C 221.46875 123.851563 223.210938 121.550781 224.015625 118.382813 C 225.039063 118.769531 226.171875 118.484375 226.726563 118.171875 C 227.039063 117.996094 226.878906 119.019531 226.398438 120.449219 C 225.359375 123.402344 223.65625 124.953125 221.65625 127.378906 C 224.015625 125.734375 227.011719 122.453125 227.730469 119.453125 C 229.375 120.453125 231.238281 120.378906 233.023438 120.023438 C 231.449219 124.027344 228.363281 126.136719 224.644531 128.84375 C 224 129.339844 222.292969 130.683594 221.730469 131.230469 C 226.519531 128.945313 231.371094 126.304688 234.375 119.453125 C 234.738281 120.238281 235.167969 121.378906 236.316406 121.738281 C 235.382813 123.097656 235.59375 124.953125 235.960938 126.660156 C 233.667969 130.15625 225.664063 131.945313 222.226563 132.65625 C 222.007813 132.730469 231.304688 132.730469 236.960938 127.09375 C 238.835938 125.371094 242.171875 128.136719 240.460938 130.660156 C 238.246094 134.015625 232.867188 134.554688 222.867188 134.300781 C 222.835938 134.660156 245.675781 135.546875 247.617188 135.511719 C 249.097656 135.503906 248.007813 140.980469 244.484375 140.550781 C 235.550781 139.554688 234.777344 138.929688 231.875 138.300781 C 230.371094 137.972656 236.886719 140.4375 242.894531 141.578125 C 242.742188 143.503906 238.597656 144.933594 234.953125 143.574219 C 230.394531 141.9375 223.769531 136.480469 220.652344 138.015625 C 220.222656 138.226563 222.511719 137.628906 226.160156 140.007813 C 229.992188 142.496094 234.527344 145.222656 234.8125 145.433594 C 230.449219 152.214844 226.359375 143.714844 219.222656 140.296875 C 217.441406 139.410156 215.890625 139.113281 216.792969 139.507813 C 236.316406 149.21875 219.222656 162.496094 213.863281 151.144531 C 220.507813 154.136719 223.015625 149.078125 219.933594 144.789063 C 221.800781 151.644531 215.820313 152.167969 213.460938 149.671875 C 220.605469 146.53125 214.320313 139.863281 208.828125 139.53125 C 204.25 139.398438 202.441406 144.101563 205.332031 146.320313 C 205.734375 146.710938 203.066406 143.089844 206.128906 141.726563 C 208.777344 140.585938 209.964844 141.195313 211.390625 142.433594 C 215.242188 145.785156 210.925781 155.410156 204.566406 152.074219 C 200.566406 149.847656 197.765625 148.503906 194.277344 150.214844 C 199.273438 150.011719 202.464844 151.878906 204.210938 153.496094 C 206.148438 155.394531 204.144531 159.164063 200.269531 156.21875 C 198.097656 154.46875 188.839844 149.21875 190.6875 156.355469 C 191.054688 157.785156 194.425781 158.863281 191.265625 160.347656 C 189.292969 161.167969 188.761719 159.800781 188.542969 158.515625 "/>
<path style=" stroke:none;fill-rule:nonzero;fill:rgb(0%,0%,0%);fill-opacity:1;" d="M 88.15625 203.378906 C 81.5 203.378906 80 199.753906 80 195.722656 L 80 181.941406 L 84.0625 181.941406 L 84.0625 195.472656 C 84.0625 198.128906 84.9375 200.003906 88.4375 200.003906 C 91.558594 200.003906 92.875 198.691406 92.875 195.097656 L 92.875 181.941406 L 96.90625 181.941406 L 96.90625 194.847656 C 96.90625 200.628906 93.714844 203.378906 88.15625 203.378906 "/>
<path style=" stroke:none;fill-rule:nonzero;fill:rgb(0%,0%,0%);fill-opacity:1;" d="M 110.144531 203.03125 L 110.144531 193.097656 C 110.144531 191.472656 109.710938 190.503906 108.242188 190.503906 C 106.210938 190.503906 104.617188 192.816406 104.617188 195.53125 L 104.617188 203.03125 L 100.617188 203.03125 L 100.617188 187.503906 L 104.398438 187.503906 C 104.398438 188.222656 104.335938 189.441406 104.175781 190.253906 L 104.210938 190.285156 C 105.144531 188.441406 106.960938 187.160156 109.492188 187.160156 C 112.988281 187.160156 114.113281 189.410156 114.113281 192.128906 L 114.113281 203.03125 "/>
<path style=" stroke:none;fill-rule:nonzero;fill:rgb(0%,0%,0%);fill-opacity:1;" d="M 117.828125 187.503906 L 121.828125 187.503906 L 121.828125 203.03125 L 117.828125 203.03125 Z M 119.828125 185.503906 C 118.453125 185.503906 117.359375 184.410156 117.359375 183.066406 C 117.359375 181.753906 118.453125 180.660156 119.828125 180.660156 C 121.203125 180.660156 122.328125 181.722656 122.328125 183.066406 C 122.328125 184.410156 121.203125 185.503906 119.828125 185.503906 "/>
<path style=" stroke:none;fill-rule:nonzero;fill:rgb(0%,0%,0%);fill-opacity:1;" d="M 133.261719 203.03125 L 129.199219 203.03125 L 123.449219 187.503906 L 127.824219 187.503906 L 130.292969 194.503906 C 130.667969 195.566406 131.042969 196.8125 131.324219 197.941406 L 131.386719 197.941406 C 131.636719 196.878906 131.949219 195.691406 132.324219 194.628906 L 134.824219 187.503906 L 139.074219 187.503906 "/>
<path style=" stroke:none;fill-rule:nonzero;fill:rgb(0%,0%,0%);fill-opacity:1;" d="M 146.191406 190.097656 C 144.535156 190.097656 143.378906 191.316406 143.160156 193.191406 L 148.878906 193.191406 C 148.941406 191.253906 147.878906 190.097656 146.191406 190.097656 M 152.71875 195.910156 L 143.097656 195.910156 C 143.066406 198.816406 144.503906 200.222656 147.378906 200.222656 C 148.910156 200.222656 150.566406 199.878906 151.910156 199.253906 L 152.285156 202.34375 C 150.628906 203 148.660156 203.34375 146.722656 203.34375 C 141.785156 203.34375 139.035156 200.878906 139.035156 195.410156 C 139.035156 190.660156 141.660156 187.160156 146.316406 187.160156 C 150.847656 187.160156 152.84375 190.253906 152.84375 194.097656 C 152.84375 194.628906 152.8125 195.253906 152.71875 195.910156 "/>
<path style=" stroke:none;fill-rule:nonzero;fill:rgb(0%,0%,0%);fill-opacity:1;" d="M 163.871094 191.097656 C 160.996094 190.503906 159.558594 192.378906 159.558594 196.691406 L 159.558594 203.035156 L 155.558594 203.035156 L 155.558594 187.503906 L 159.34375 187.503906 C 159.34375 188.285156 159.246094 189.535156 159.058594 190.628906 L 159.121094 190.628906 C 159.871094 188.660156 161.371094 186.941406 164.058594 187.160156 "/>
<path style=" stroke:none;fill-rule:nonzero;fill:rgb(0%,0%,0%);fill-opacity:1;" d="M 168.710938 203.34375 C 167.585938 203.34375 166.464844 203.222656 165.464844 203.066406 L 165.558594 199.78125 C 166.523438 200.03125 167.710938 200.253906 168.898438 200.253906 C 170.429688 200.253906 171.429688 199.628906 171.429688 198.597656 C 171.429688 195.847656 165.148438 197.410156 165.148438 192.128906 C 165.148438 189.410156 167.367188 187.160156 171.742188 187.160156 C 172.648438 187.160156 173.648438 187.285156 174.585938 187.441406 L 174.460938 190.597656 C 173.585938 190.347656 172.554688 190.191406 171.585938 190.191406 C 170.023438 190.191406 169.273438 190.816406 169.273438 191.785156 C 169.273438 194.316406 175.648438 193.191406 175.648438 198.222656 C 175.648438 201.28125 172.960938 203.34375 168.710938 203.34375 "/>
<path style=" stroke:none;fill-rule:nonzero;fill:rgb(0%,0%,0%);fill-opacity:1;" d="M 178.425781 187.503906 L 182.425781 187.503906 L 182.425781 203.03125 L 178.425781 203.03125 Z M 180.425781 185.503906 C 179.050781 185.503906 177.957031 184.410156 177.957031 183.066406 C 177.957031 181.753906 179.050781 180.660156 180.425781 180.660156 C 181.800781 180.660156 182.925781 181.722656 182.925781 183.066406 C 182.925781 184.410156 181.800781 185.503906 180.425781 185.503906 "/>
<path style=" stroke:none;fill-rule:nonzero;fill:rgb(0%,0%,0%);fill-opacity:1;" d="M 195.234375 190.628906 C 194.511719 190.472656 193.828125 190.378906 193.140625 190.378906 C 190.859375 190.378906 189.234375 191.816406 189.234375 195.660156 C 189.234375 198.566406 190.078125 200.066406 191.890625 200.066406 C 193.984375 200.066406 195.234375 197.628906 195.234375 194.972656 Z M 195.480469 203.03125 C 195.480469 202.28125 195.546875 201.28125 195.671875 200.441406 L 195.609375 200.441406 C 194.796875 202.15625 193.078125 203.378906 190.703125 203.378906 C 186.921875 203.378906 185.046875 200.535156 185.046875 196.097656 C 185.046875 190.847656 188.109375 187.222656 193.265625 187.222656 C 193.921875 187.222656 194.546875 187.253906 195.234375 187.347656 L 195.234375 180.226563 L 199.203125 180.226563 L 199.203125 203.03125 "/>
<path style=" stroke:none;fill-rule:nonzero;fill:rgb(0%,0%,0%);fill-opacity:1;" d="M 210.914063 196.15625 C 206.695313 196.15625 205.757813 197.378906 205.757813 198.628906 C 205.757813 199.628906 206.445313 200.285156 207.601563 200.285156 C 209.570313 200.285156 210.914063 198.40625 210.914063 196.535156 Z M 211.226563 203.03125 C 211.226563 202.125 211.257813 201.222656 211.382813 200.40625 L 211.351563 200.378906 C 210.601563 202.125 208.695313 203.34375 206.382813 203.34375 C 203.570313 203.34375 201.945313 201.753906 201.945313 199.253906 C 201.945313 195.53125 205.632813 193.566406 210.914063 193.566406 L 210.914063 192.722656 C 210.914063 191.097656 210.132813 190.253906 207.882813 190.253906 C 206.476563 190.253906 204.601563 190.722656 203.289063 191.472656 L 202.945313 188.128906 C 204.511719 187.566406 206.511719 187.160156 208.507813 187.160156 C 213.507813 187.160156 214.914063 189.191406 214.914063 192.566406 L 214.914063 199.035156 C 214.914063 200.285156 214.945313 201.753906 215.007813 203.03125 "/>
<path style=" stroke:none;fill-rule:nonzero;fill:rgb(0%,0%,0%);fill-opacity:1;" d="M 227.78125 190.628906 C 227.0625 190.472656 226.375 190.378906 225.6875 190.378906 C 223.40625 190.378906 221.78125 191.816406 221.78125 195.660156 C 221.78125 198.566406 222.628906 200.066406 224.4375 200.066406 C 226.53125 200.066406 227.78125 197.628906 227.78125 194.972656 Z M 228.03125 203.03125 C 228.03125 202.28125 228.09375 201.28125 228.21875 200.441406 L 228.15625 200.441406 C 227.34375 202.15625 225.625 203.378906 223.25 203.378906 C 219.46875 203.378906 217.597656 200.535156 217.597656 196.097656 C 217.597656 190.847656 220.65625 187.222656 225.8125 187.222656 C 226.46875 187.222656 227.09375 187.253906 227.78125 187.347656 L 227.78125 180.226563 L 231.75 180.226563 L 231.75 203.03125 "/>
<path style=" stroke:none;fill-rule:nonzero;fill:rgb(0%,0%,0%);fill-opacity:1;" d="M 253.351563 190.628906 C 252.628906 190.472656 251.945313 190.378906 251.253906 190.378906 C 248.976563 190.378906 247.351563 191.816406 247.351563 195.660156 C 247.351563 198.566406 248.195313 200.066406 250.007813 200.066406 C 252.101563 200.066406 253.351563 197.628906 253.351563 194.972656 Z M 253.601563 203.03125 C 253.601563 202.28125 253.660156 201.28125 253.785156 200.441406 L 253.726563 200.441406 C 252.914063 202.15625 251.195313 203.378906 248.820313 203.378906 C 245.039063 203.378906 243.164063 200.535156 243.164063 196.097656 C 243.164063 190.847656 246.226563 187.222656 251.378906 187.222656 C 252.039063 187.222656 252.664063 187.253906 253.351563 187.347656 L 253.351563 180.226563 L 257.320313 180.226563 L 257.320313 203.03125 "/>
<path style=" stroke:none;fill-rule:nonzero;fill:rgb(0%,0%,0%);fill-opacity:1;" d="M 267.425781 190.097656 C 265.769531 190.097656 264.613281 191.316406 264.394531 193.191406 L 270.113281 193.191406 C 270.175781 191.253906 269.113281 190.097656 267.425781 190.097656 M 273.957031 195.910156 L 264.332031 195.910156 C 264.300781 198.816406 265.738281 200.222656 268.613281 200.222656 C 270.144531 200.222656 271.800781 199.878906 273.144531 199.253906 L 273.519531 202.34375 C 271.863281 203 269.894531 203.34375 267.957031 203.34375 C 263.019531 203.34375 260.269531 200.878906 260.269531 195.410156 C 260.269531 190.660156 262.894531 187.160156 267.550781 187.160156 C 272.082031 187.160156 274.082031 190.253906 274.082031 194.097656 C 274.082031 194.628906 274.050781 195.253906 273.957031 195.910156 "/>
<path style=" stroke:none;fill-rule:nonzero;fill:rgb(0%,0%,0%);fill-opacity:1;" d="M 276.796875 203.035156 L 280.796875 203.035156 L 280.796875 180.226563 L 276.796875 180.226563 Z M 276.796875 203.035156 "/>
<path style=" stroke:none;fill-rule:nonzero;fill:rgb(0%,0%,0%);fill-opacity:1;" d="M 92.148438 221.199219 C 90.875 221.199219 89.597656 221.265625 88.726563 221.402344 L 88.726563 234.488281 C 89.332031 234.558594 90.539063 234.625 91.878906 234.625 C 97.117188 234.625 100.339844 231.9375 100.339844 227.710938 C 100.339844 223.34375 97.652344 221.199219 92.148438 221.199219 M 101.679688 259.660156 L 89.058594 240.933594 L 88.726563 240.933594 L 88.726563 259.660156 L 80 259.660156 L 80 214.351563 C 83.558594 214.148438 87.789063 214.082031 93.023438 214.082031 C 103.023438 214.082031 109.464844 217.574219 109.464844 226.835938 C 109.464844 233.550781 104.769531 238.382813 97.921875 239.457031 C 99.199219 241.136719 100.472656 242.882813 101.613281 244.425781 L 112.488281 259.660156 "/>
<path style=" stroke:none;fill-rule:nonzero;fill:rgb(0%,0%,0%);fill-opacity:1;" d="M 129.390625 232.878906 C 125.566406 232.878906 121.808594 235.832031 121.808594 242.675781 C 121.808594 249.527344 124.289063 253.015625 129.257813 253.015625 C 133.488281 253.015625 136.710938 249.59375 136.710938 242.8125 C 136.710938 236.367188 134.425781 232.878906 129.390625 232.878906 M 128.519531 260.332031 C 119.054688 260.332031 112.945313 255.433594 112.945313 243.550781 C 112.945313 233.148438 119.859375 225.628906 129.996094 225.628906 C 139.460938 225.628906 145.566406 230.867188 145.566406 242.34375 C 145.566406 252.8125 138.519531 260.332031 128.519531 260.332031 "/>
<path style=" stroke:none;fill-rule:nonzero;fill:rgb(0%,0%,0%);fill-opacity:1;" d="M 156.902344 260.332031 C 154.484375 260.332031 152.070313 260.066406 149.921875 259.726563 L 150.121094 252.679688 C 152.203125 253.21875 154.753906 253.6875 157.304688 253.6875 C 160.59375 253.6875 162.742188 252.347656 162.742188 250.132813 C 162.742188 244.222656 149.253906 247.578125 149.253906 236.234375 C 149.253906 230.394531 154.015625 225.5625 163.414063 225.5625 C 165.359375 225.5625 167.507813 225.832031 169.519531 226.164063 L 169.253906 232.945313 C 167.375 232.410156 165.160156 232.070313 163.078125 232.070313 C 159.722656 232.070313 158.109375 233.414063 158.109375 235.496094 C 158.109375 240.933594 171.804688 238.515625 171.804688 249.324219 C 171.804688 255.902344 166.03125 260.332031 156.902344 260.332031 "/>
<path style=" stroke:none;fill-rule:nonzero;fill:rgb(0%,0%,0%);fill-opacity:1;" d="M 194.957031 244.894531 C 185.894531 244.894531 183.878906 247.511719 183.878906 250.199219 C 183.878906 252.34375 185.355469 253.753906 187.839844 253.753906 C 192.070313 253.753906 194.957031 249.726563 194.957031 245.703125 Z M 195.628906 259.660156 C 195.628906 257.710938 195.695313 255.769531 195.964844 254.023438 L 195.894531 253.957031 C 194.285156 257.710938 190.191406 260.332031 185.222656 260.332031 C 179.183594 260.332031 175.691406 256.910156 175.691406 251.539063 C 175.691406 243.550781 183.609375 239.324219 194.957031 239.324219 L 194.957031 237.511719 C 194.957031 234.019531 193.277344 232.207031 188.445313 232.207031 C 185.425781 232.207031 181.394531 233.214844 178.578125 234.824219 L 177.839844 227.640625 C 181.195313 226.4375 185.492188 225.558594 189.789063 225.558594 C 200.527344 225.558594 203.546875 229.921875 203.546875 237.175781 L 203.546875 251.070313 C 203.546875 253.753906 203.613281 256.910156 203.746094 259.660156 "/>
<path style=" stroke:none;fill-rule:nonzero;fill:rgb(0%,0%,0%);fill-opacity:1;" d="M 229.445313 234.019531 C 223.273438 232.742188 220.183594 236.773438 220.183594 246.035156 L 220.183594 259.660156 L 211.59375 259.660156 L 211.59375 226.296875 L 219.714844 226.296875 C 219.714844 227.980469 219.511719 230.664063 219.109375 233.015625 L 219.242188 233.015625 C 220.855469 228.785156 224.078125 225.09375 229.847656 225.558594 "/>
<path style=" stroke:none;fill-rule:nonzero;fill:rgb(0%,0%,0%);fill-opacity:1;" d="M 234.074219 226.296875 L 242.664063 226.296875 L 242.664063 259.660156 L 234.074219 259.660156 Z M 238.367188 222.003906 C 235.414063 222.003906 233.066406 219.65625 233.066406 216.769531 C 233.066406 213.949219 235.414063 211.601563 238.367188 211.601563 C 241.320313 211.601563 243.738281 213.882813 243.738281 216.769531 C 243.738281 219.65625 241.320313 222.003906 238.367188 222.003906 "/>
<path style=" stroke:none;fill-rule:nonzero;fill:rgb(0%,0%,0%);fill-opacity:1;" d="M 264.609375 232.878906 C 260.785156 232.878906 257.023438 235.832031 257.023438 242.675781 C 257.023438 249.527344 259.507813 253.015625 264.476563 253.015625 C 268.703125 253.015625 271.925781 249.59375 271.925781 242.8125 C 271.925781 236.367188 269.644531 232.878906 264.609375 232.878906 M 263.738281 260.332031 C 254.273438 260.332031 248.164063 255.433594 248.164063 243.550781 C 248.164063 233.148438 255.078125 225.628906 265.214844 225.628906 C 274.675781 225.628906 280.785156 230.867188 280.785156 242.34375 C 280.785156 252.8125 273.738281 260.332031 263.738281 260.332031 "/>
</g>
</svg>
