<?xml version="1.0" encoding="iso-8859-1"?>
<!-- Generator: Adobe Illustrator 19.0.0, SVG Export Plug-In . SVG Version: 6.00 Build 0)  -->
<svg version="1.1" id="Capa_1" xmlns="http://www.w3.org/2000/svg" xmlns:xlink="http://www.w3.org/1999/xlink" x="0px" y="0px"
	 viewBox="0 0 512.001 512.001" style="enable-background:new 0 0 512.001 512.001;" xml:space="preserve">
<g>
	<path style="fill:#91EB90;" d="M49.083,477.921c-3.84,0-7.678-1.465-10.607-4.393c-5.857-5.858-5.857-15.356,0-21.214L100.79,390
		c5.857-5.857,15.355-5.857,21.213,0c5.857,5.857,5.857,15.355,0,21.213l-62.314,62.315
		C56.759,476.456,52.921,477.921,49.083,477.921z"/>
	<path style="fill:#91EB90;" d="M26.361,387.033c-3.84,0-7.678-1.464-10.607-4.393c-5.857-5.857-5.857-15.354,0-21.213
		l28.232-28.233c5.857-5.858,15.355-5.859,21.213,0c5.857,5.857,5.857,15.354,0,21.213L36.966,382.64
		C34.037,385.569,30.199,387.033,26.361,387.033z"/>
	<path style="fill:#91EB90;" d="M139.968,500.642c-3.838,0-7.676-1.464-10.605-4.393c-5.857-5.857-5.859-15.356-0.002-21.213
		l28.234-28.236c5.855-5.859,15.354-5.859,21.213-0.002c5.857,5.858,5.857,15.355,0.002,21.213l-28.234,28.236
		C147.648,499.177,143.808,500.642,139.968,500.642z"/>
</g>
<path style="fill:#FFD400;" d="M507.607,197.2L314.804,4.395c-3.912-3.912-9.658-5.352-14.953-3.75
	c-5.295,1.604-9.277,5.99-10.361,11.415l-46.24,231.192L12.058,289.493c-5.424,1.085-9.811,5.067-11.414,10.362
	c-1.604,5.295-0.162,11.042,3.75,14.953l192.797,192.799c2.928,2.93,6.768,4.394,10.605,4.394c3.84,0,7.678-1.466,10.607-4.394
	l289.203-289.193c2.813-2.814,4.393-6.629,4.393-10.607C511.999,203.828,510.419,200.014,507.607,197.2z"/>
<path style="fill:#FF9F00;" d="M299.851,0.645c-5.295,1.604-9.277,5.99-10.361,11.415l-46.24,231.192L363.005,363.01
	l144.602-144.596c2.813-2.814,4.393-6.629,4.393-10.607c0-3.979-1.58-7.793-4.393-10.607L314.804,4.395
	C310.892,0.483,305.146-0.958,299.851,0.645z"/>
<path style="fill:#FF8700;" d="M311.275,1.776c-5.828-3.12-13.012-2.055-17.684,2.619L4.394,293.596
	c-4.674,4.674-5.738,11.857-2.619,17.685c2.646,4.943,7.771,7.923,13.221,7.923c0.977,0,1.963-0.096,2.947-0.292l240.996-48.203
	c5.938-1.189,10.578-5.829,11.766-11.768l48.201-240.998C320.203,11.461,317.103,4.895,311.275,1.776z"/>
<path style="fill:#FF4B00;" d="M311.275,1.776c-5.828-3.12-13.012-2.055-17.684,2.619l-144.6,144.602l117.611,117.609
	c2.051-2.051,3.508-4.696,4.102-7.665l48.201-240.998C320.203,11.461,317.103,4.895,311.275,1.776z"/>
<g>
</g>
<g>
</g>
<g>
</g>
<g>
</g>
<g>
</g>
<g>
</g>
<g>
</g>
<g>
</g>
<g>
</g>
<g>
</g>
<g>
</g>
<g>
</g>
<g>
</g>
<g>
</g>
<g>
</g>
</svg>
