<?xml version="1.0" encoding="UTF-8"?>
<svg xmlns="http://www.w3.org/2000/svg" xmlns:xlink="http://www.w3.org/1999/xlink" width="473.17pt" height="191.395pt" viewBox="0 0 473.17 191.395" version="1.1">
<g id="surface1">
<path style=" stroke:none;fill-rule:nonzero;fill:rgb(0%,0%,0%);fill-opacity:1;" d="M 133.597656 43.835938 C 132.722656 43.835938 132.015625 44.542969 132.015625 45.414063 C 132.015625 45.472656 132.019531 45.53125 132.027344 45.585938 C 132.03125 45.714844 132.046875 45.808594 132.105469 45.984375 C 129.304688 46.464844 126.425781 46.96875 126.425781 46.96875 C 126.425781 46.96875 126.992188 43.375 127.320313 41.515625 C 127.570313 41.683594 127.875 41.78125 128.199219 41.78125 C 129.070313 41.78125 129.777344 41.074219 129.777344 40.199219 C 129.777344 39.328125 129.070313 38.621094 128.199219 38.621094 C 127.328125 38.621094 126.621094 39.328125 126.621094 40.199219 C 126.621094 40.523438 126.714844 40.824219 126.882813 41.074219 C 125.21875 42 122.0625 43.683594 122.0625 43.683594 C 122.078125 43.851563 121.714844 40.621094 121.492188 38.527344 C 121.492188 38.527344 121.539063 38.53125 121.5625 38.53125 C 122.433594 38.53125 123.140625 37.824219 123.140625 36.953125 C 123.140625 36.078125 122.433594 35.371094 121.5625 35.371094 C 121.414063 35.371094 121.269531 35.394531 121.132813 35.433594 C 120.6875 35.550781 120.335938 35.84375 120.148438 36.246094 C 120.042969 36.460938 119.980469 36.699219 119.980469 36.953125 C 119.980469 37.492188 120.253906 37.96875 120.671875 38.257813 C 119.242188 39.820313 117.203125 41.953125 117.203125 41.953125 C 117.203125 41.953125 115.605469 39.269531 114.445313 37.429688 C 115.015625 37.191406 115.414063 36.628906 115.414063 35.972656 C 115.414063 35.097656 114.707031 34.390625 113.835938 34.390625 C 112.964844 34.390625 112.253906 35.097656 112.253906 35.972656 C 112.253906 36.617188 112.644531 37.175781 113.203125 37.417969 C 112.042969 39.261719 110.4375 41.953125 110.4375 41.953125 C 110.4375 41.953125 108.398438 39.820313 106.972656 38.257813 C 107.386719 37.96875 107.660156 37.492188 107.660156 36.953125 C 107.660156 36.699219 107.601563 36.460938 107.496094 36.246094 C 107.308594 35.84375 106.957031 35.550781 106.511719 35.433594 C 106.375 35.394531 106.230469 35.371094 106.078125 35.371094 C 105.210938 35.371094 104.503906 36.078125 104.503906 36.953125 C 104.503906 37.824219 105.210938 38.53125 106.078125 38.53125 C 106.078125 38.53125 106.128906 38.53125 106.148438 38.527344 C 105.925781 40.621094 105.5625 43.851563 105.582031 43.683594 C 105.582031 43.683594 102.425781 42 100.761719 41.074219 C 100.925781 40.824219 101.023438 40.523438 101.023438 40.199219 C 101.023438 39.328125 100.316406 38.621094 99.445313 38.621094 C 98.570313 38.621094 97.863281 39.328125 97.863281 40.199219 C 97.863281 41.074219 98.570313 41.78125 99.445313 41.78125 C 99.769531 41.78125 100.070313 41.683594 100.320313 41.515625 C 100.652344 43.375 101.214844 46.96875 101.214844 46.96875 C 101.214844 46.96875 98.339844 46.464844 95.539063 45.984375 C 95.59375 45.808594 95.613281 45.714844 95.617188 45.585938 C 95.621094 45.53125 95.625 45.472656 95.625 45.414063 C 95.625 44.542969 94.917969 43.835938 94.046875 43.835938 C 93.175781 43.835938 92.46875 44.542969 92.46875 45.414063 C 92.46875 46.289063 93.175781 46.996094 94.046875 46.996094 C 94.402344 46.996094 94.730469 46.875 94.996094 46.675781 C 97.152344 48.820313 100.511719 52.207031 101.363281 53.046875 C 104.578125 50.070313 108.972656 48.238281 113.820313 48.238281 C 118.667969 48.238281 123.0625 50.070313 126.277344 53.046875 C 127.132813 52.207031 130.492188 48.820313 132.644531 46.675781 C 132.910156 46.875 133.238281 46.996094 133.597656 46.996094 C 134.46875 46.996094 135.175781 46.289063 135.175781 45.414063 C 135.175781 44.542969 134.46875 43.835938 133.597656 43.835938 "/>
<path style=" stroke:none;fill-rule:evenodd;fill:rgb(0%,0%,0%);fill-opacity:1;" d="M 111.738281 156.875 L 115.777344 156.875 L 115.777344 161.394531 L 120.0625 161.394531 L 120.0625 165.421875 L 115.777344 165.421875 L 115.777344 175.867188 L 111.738281 175.867188 L 111.738281 165.421875 L 107.550781 165.421875 L 107.550781 161.394531 L 111.738281 161.394531 "/>
<path style=" stroke:none;fill-rule:evenodd;fill:rgb(0%,0%,0%);fill-opacity:1;" d="M 88.699219 36.445313 C 89.234375 32.78125 94.394531 33.703125 96.605469 34.636719 C 99.257813 35.757813 101.878906 35.953125 104.675781 34.800781 C 113.4375 31.472656 106.445313 22.878906 102.261719 22.1875 C 101.402344 22.046875 102.171875 21.109375 103.851563 21.902344 C 105.328125 22.601563 106.414063 23.203125 106.324219 23.039063 C 103.875 18.585938 100.632813 18.199219 99.023438 20.066406 C 98.410156 20.78125 98.636719 21.578125 99.957031 22.75 C 106.210938 28.261719 99.984375 30.199219 94.792969 30.117188 C 88.046875 30.691406 83.265625 33.8125 84.171875 43.847656 C 80.550781 37.105469 63.921875 33.980469 60.136719 47.792969 C 59.628906 50.746094 59.308594 53.050781 60.214844 57.824219 C 60.769531 59.390625 58.796875 61.160156 56.511719 61.4375 C 58.074219 63.054688 59.804688 62.832031 61.367188 60.867188 C 60.867188 64.152344 61.535156 68.207031 56.667969 69.164063 C 45.714844 70.480469 53.777344 78.613281 63.503906 72.859375 C 66.808594 70.863281 70.3125 66.355469 68.535156 60.699219 C 79.324219 62.175781 78.644531 49.769531 76.34375 51.734375 C 73.628906 54.121094 67.855469 54.398438 66.796875 50.835938 C 76.875 55.765625 77.117188 44.898438 74.121094 48.039063 C 69.761719 52.636719 64.078125 45.566406 70.015625 42.535156 C 67.703125 45.566406 68.742188 47.285156 70.421875 47.960938 C 72.238281 48.6875 75.113281 47.300781 73.46875 45.246094 C 71.164063 42.445313 75.746094 41.71875 78.328125 43.023438 C 80.304688 44.257813 81.210938 45.324219 83.929688 50.011719 C 85.449219 46.550781 87.984375 45.621094 91.335938 45.738281 C 87.472656 40.140625 92.246094 38.5 93.726563 40.476563 C 94.910156 41.960938 96.398438 41.074219 96.273438 39.410156 C 96.363281 34.476563 91.585938 33.898438 88.699219 36.445313 "/>
<path style=" stroke:none;fill-rule:evenodd;fill:rgb(0%,0%,0%);fill-opacity:1;" d="M 90.933594 69.824219 C 94.378906 67.519531 97.832031 65.300781 101.300781 63 C 95.617188 59.054688 91.421875 55.597656 87.71875 52.148438 C 87.214844 51.570313 87.550781 51.074219 88.285156 51.492188 C 91.5 53.953125 94.132813 56.101563 97.347656 58.5625 L 99.328125 58.5625 C 99.238281 57.171875 99.328125 55.679688 99.328125 54.617188 C 96.933594 54.367188 92.757813 53.371094 91.5 51.898438 C 90.253906 50.4375 94.824219 50.925781 93.394531 49.109375 C 89.480469 44.359375 82.683594 50.03125 85.824219 53.132813 C 87.824219 55.027344 89.519531 56.335938 91.421875 57.902344 C 87.214844 55.84375 82.941406 53.464844 78.734375 50.335938 C 78.902344 51.734375 79.152344 53.21875 79.324219 54.695313 C 83.183594 56.585938 87.140625 58.230469 91.089844 59.792969 C 91.664063 59.875 91.585938 60.945313 91.089844 60.945313 C 87.292969 58.386719 83.183594 57.574219 80.636719 58.3125 C 77.585938 59.136719 77.996094 62.433594 80.390625 63.496094 C 80.636719 64.402344 79.234375 64.070313 77.660156 63.570313 C 78.246094 67.105469 82.195313 65.878906 81.953125 66.53125 C 81.78125 67.105469 79.152344 66.859375 78.734375 66.695313 C 79.804688 69.738281 83.183594 68.835938 83.183594 69.324219 C 83.183594 69.910156 82.195313 70.066406 81.539063 70.144531 C 82.195313 70.890625 83.265625 71.710938 85.320313 71.222656 C 85.492188 71.136719 85.984375 71.222656 85.65625 71.464844 C 85.492188 71.710938 85.078125 71.964844 84.417969 72.042969 C 86.222656 72.699219 87.878906 72.207031 88.863281 71.464844 C 89.855469 70.730469 90.023438 69.414063 89.9375 69.492188 C 89.027344 70.3125 88.125 70.40625 88.207031 70.3125 C 89.519531 69.324219 90.839844 66.695313 87.71875 64.894531 C 87.632813 65.136719 87.386719 66.125 86.890625 66.449219 C 86.476563 66.695313 86.316406 66.78125 86.476563 66.289063 C 86.734375 65.21875 86.972656 63.496094 85.242188 62.832031 C 85.402344 63.242188 85.003906 64.566406 84.5 64.722656 C 84.253906 64.808594 84.011719 64.808594 84.089844 64.644531 C 84.339844 63.980469 85.492188 61.601563 83.601563 61.1875 C 83.347656 61.601563 83.433594 62.589844 81.953125 62.667969 C 78.074219 58.230469 87.550781 58.3125 87.050781 60.527344 C 86.644531 60.699219 86.222656 60.867188 85.824219 61.03125 C 86.972656 62.265625 88.207031 63.65625 89.359375 64.972656 C 91.175781 64.3125 92.910156 63.496094 94.710938 62.832031 C 94.882813 63.082031 95.539063 63.742188 95.789063 63.980469 C 94.300781 64.808594 92.574219 65.710938 91.011719 66.53125 C 91.089844 67.761719 90.933594 68.59375 90.933594 69.824219 "/>
<path style=" stroke:none;fill-rule:evenodd;fill:rgb(0%,0%,0%);fill-opacity:1;" d="M 78.160156 94.152344 C 78.816406 90.78125 79.480469 87.25 80.964844 84.449219 C 80.132813 83.796875 79.0625 83.21875 78.246094 82.5625 C 79.480469 82.730469 80.453125 82.855469 81.691406 83.023438 C 82.523438 80.660156 84.148438 78.1875 86.5625 75.414063 C 86.5625 75.328125 82.816406 74.898438 73.46875 77.21875 C 79.722656 74.917969 79.601563 70.976563 78.148438 69.257813 C 75.726563 66.386719 71.578125 69.671875 71.578125 69.671875 C 71.578125 69.671875 71.410156 68.699219 72.441406 68.015625 C 74.136719 66.894531 76.023438 67.761719 75.777344 67.597656 C 73.714844 65.796875 70.589844 66.375 69.273438 68.921875 C 68.027344 71.382813 70.085938 75.4375 73.804688 73.109375 C 72.554688 70.976563 74.113281 70.023438 75.273438 70.230469 C 76.535156 70.453125 77.3125 71.761719 76.101563 73.355469 C 74.121094 76.148438 68.988281 76.328125 64.574219 76.804688 C 52.71875 78.371094 47.035156 97.6875 65.566406 99.492188 C 59.882813 96.539063 59.882813 87.496094 66.054688 87.320313 C 69.433594 87.25 71.582031 91.6875 67.628906 93.007813 C 68.980469 91.769531 68.605469 89.335938 66.878906 89.21875 C 60.105469 89.046875 63.585938 101.6875 71.25 97.03125 C 83.433594 88.070313 63.730469 74.019531 58.734375 88.8125 C 57.847656 80.632813 76.265625 73.933594 78.160156 94.152344 "/>
<path style=" stroke:none;fill-rule:evenodd;fill:rgb(0%,0%,0%);fill-opacity:1;" d="M 43.089844 127.359375 C 40.941406 123.910156 42.5 118.230469 46.457031 118.238281 C 50.421875 118.304688 50.140625 123.910156 47.28125 123.503906 C 44.960938 123.179688 42.261719 124.894531 43.089844 127.359375 "/>
<path style=" stroke:none;fill-rule:evenodd;fill:rgb(0%,0%,0%);fill-opacity:1;" d="M 45.222656 111.003906 C 46.957031 106.890625 49.832031 105.246094 53.371094 105.246094 C 56.332031 105.246094 57.824219 106.570313 58.734375 107.886719 C 62.65625 113.964844 55.214844 119.828125 50.574219 110.921875 C 49.433594 109.070313 47.285156 109.855469 45.222656 111.003906 "/>
<path style=" stroke:none;fill-rule:evenodd;fill:rgb(0%,0%,0%);fill-opacity:1;" d="M 42.503906 117.417969 C 42.421875 113.800781 44.730469 111.90625 46.621094 111.585938 C 48.503906 111.273438 49.511719 111.988281 50.085938 112.730469 C 52.632813 116.023438 48.191406 120.042969 45.886719 115.523438 C 45.21875 114.207031 43.414063 115.277344 42.503906 117.417969 "/>
<path style=" stroke:none;fill-rule:evenodd;fill:rgb(0%,0%,0%);fill-opacity:1;" d="M 68.605469 111.425781 C 67.210938 108.867188 65.296875 108.003906 63.585938 108.296875 C 62.441406 108.539063 61.613281 108.902344 61.113281 110.09375 C 60.042969 113.472656 64 114.460938 64.980469 111.585938 C 65.394531 110.28125 67.292969 110.179688 68.605469 111.425781 "/>
<path style=" stroke:none;fill-rule:evenodd;fill:rgb(0%,0%,0%);fill-opacity:1;" d="M 104.4375 161.253906 C 108.722656 139.222656 88.289063 145.527344 80.792969 123.089844 C 79.886719 126.621094 80.046875 129.832031 81.453125 132.542969 C 81.046875 132.128906 80.792969 132.292969 80.304688 131.308594 C 78.414063 127.039063 76.929688 120.042969 76.101563 113.226563 C 75.273438 112.234375 71.164063 111.253906 71.492188 113.308594 C 72.71875 120.792969 73.40625 124.882813 73.691406 127.507813 C 73.796875 128.464844 71.558594 119.996094 70.25 114.617188 C 69.347656 111.289063 63.753906 111.558594 64.980469 115.613281 C 66.21875 119.226563 67.125 120.785156 68.367188 124.328125 C 66.519531 121.335938 64.515625 118.683594 63.585938 115.035156 C 62.40625 115.480469 61.101563 115.152344 60.464844 114.792969 C 60.101563 114.589844 60.289063 115.769531 60.84375 117.414063 C 62.039063 120.816406 64 122.597656 66.300781 125.394531 C 63.585938 123.503906 60.136719 119.71875 59.308594 116.265625 C 57.414063 117.417969 55.269531 117.335938 53.214844 116.925781 C 55.023438 121.535156 58.578125 123.964844 62.863281 127.082031 C 63.601563 127.65625 65.570313 129.199219 66.21875 129.832031 C 60.703125 127.199219 55.113281 124.15625 51.65625 116.265625 C 51.234375 117.171875 50.742188 118.488281 49.421875 118.898438 C 50.496094 120.464844 50.253906 122.597656 49.828125 124.566406 C 52.472656 128.589844 61.6875 130.652344 65.644531 131.472656 C 65.898438 131.558594 55.195313 131.558594 48.679688 125.066406 C 46.519531 123.082031 42.675781 126.265625 44.644531 129.175781 C 47.199219 133.039063 53.390625 133.65625 64.910156 133.367188 C 64.945313 133.777344 38.644531 134.800781 36.40625 134.761719 C 34.703125 134.75 35.957031 141.0625 40.015625 140.5625 C 50.304688 139.417969 51.195313 138.699219 54.535156 137.972656 C 56.265625 137.597656 48.765625 140.429688 41.84375 141.746094 C 42.019531 143.96875 46.792969 145.613281 50.988281 144.046875 C 56.242188 142.160156 63.867188 135.875 67.457031 137.644531 C 67.957031 137.886719 65.320313 137.203125 61.113281 139.9375 C 56.703125 142.808594 51.480469 145.945313 51.152344 146.1875 C 56.175781 153.996094 60.886719 144.210938 69.101563 140.269531 C 71.160156 139.25 72.945313 138.910156 71.902344 139.363281 C 49.421875 150.546875 69.101563 165.835938 75.273438 152.765625 C 67.628906 156.210938 64.742188 150.386719 68.285156 145.449219 C 66.140625 153.339844 73.023438 153.941406 75.742188 151.066406 C 67.515625 147.449219 74.75 139.773438 81.078125 139.386719 C 86.347656 139.238281 88.433594 144.65625 85.101563 147.207031 C 84.640625 147.660156 87.710938 143.488281 84.183594 141.917969 C 81.132813 140.605469 79.765625 141.308594 78.125 142.734375 C 73.691406 146.589844 78.664063 157.675781 85.984375 153.835938 C 90.589844 151.273438 93.816406 149.726563 97.832031 151.695313 C 92.082031 151.457031 88.402344 153.609375 86.394531 155.476563 C 84.164063 157.660156 86.46875 162 90.933594 158.609375 C 93.433594 156.59375 104.09375 150.546875 101.96875 158.761719 C 101.542969 160.410156 97.660156 161.652344 101.300781 163.363281 C 103.574219 164.308594 104.183594 162.734375 104.4375 161.253906 "/>
<path style=" stroke:none;fill-rule:evenodd;fill:rgb(0%,0%,0%);fill-opacity:1;" d="M 108.386719 63.65625 C 109.535156 63.65625 110.4375 64.566406 110.4375 65.710938 C 110.4375 66.859375 109.535156 67.761719 108.386719 67.761719 C 107.230469 67.761719 106.242188 66.859375 106.242188 65.710938 C 106.242188 64.566406 107.230469 63.65625 108.386719 63.65625 "/>
<path style=" stroke:none;fill-rule:evenodd;fill:rgb(0%,0%,0%);fill-opacity:1;" d="M 103.035156 65.300781 C 104.179688 65.300781 105.09375 66.285156 105.09375 67.445313 C 105.09375 68.59375 104.179688 69.492188 103.035156 69.492188 C 101.875 69.492188 100.882813 68.59375 100.882813 67.445313 C 100.882813 66.285156 101.875 65.300781 103.035156 65.300781 "/>
<path style=" stroke:none;fill-rule:evenodd;fill:rgb(0%,0%,0%);fill-opacity:1;" d="M 98.09375 68.015625 C 99.15625 68.015625 100.160156 68.921875 100.160156 70.066406 C 100.160156 71.222656 99.15625 72.203125 98.09375 72.203125 C 96.933594 72.203125 95.957031 71.222656 95.957031 70.066406 C 95.957031 68.921875 96.933594 68.015625 98.09375 68.015625 "/>
<path style=" stroke:none;fill-rule:evenodd;fill:rgb(0%,0%,0%);fill-opacity:1;" d="M 93.726563 71.464844 C 94.882813 71.464844 95.789063 72.453125 95.789063 73.601563 C 95.789063 74.757813 94.882813 75.660156 93.726563 75.660156 C 92.574219 75.660156 91.585938 74.757813 91.585938 73.601563 C 91.585938 72.453125 92.574219 71.464844 93.726563 71.464844 "/>
<path style=" stroke:none;fill-rule:evenodd;fill:rgb(0%,0%,0%);fill-opacity:1;" d="M 90.023438 75.574219 C 91.175781 75.574219 92.160156 76.5625 92.160156 77.714844 C 92.160156 78.867188 91.175781 79.769531 90.023438 79.769531 C 88.863281 79.769531 87.953125 78.867188 87.953125 77.714844 C 87.953125 76.5625 88.863281 75.574219 90.023438 75.574219 "/>
<path style=" stroke:none;fill-rule:evenodd;fill:rgb(0%,0%,0%);fill-opacity:1;" d="M 86.972656 80.34375 C 88.046875 80.34375 89.027344 81.335938 89.027344 82.484375 C 89.027344 83.550781 88.046875 84.53125 86.972656 84.53125 C 85.824219 84.53125 84.835938 83.550781 84.835938 82.484375 C 84.835938 81.335938 85.824219 80.34375 86.972656 80.34375 "/>
<path style=" stroke:none;fill-rule:evenodd;fill:rgb(0%,0%,0%);fill-opacity:1;" d="M 84.589844 85.363281 C 85.742188 85.363281 86.734375 86.339844 86.734375 87.496094 C 86.734375 88.648438 85.742188 89.542969 84.589844 89.542969 C 83.433594 89.542969 82.523438 88.648438 82.523438 87.496094 C 82.523438 86.339844 83.433594 85.363281 84.589844 85.363281 "/>
<path style=" stroke:none;fill-rule:evenodd;fill:rgb(0%,0%,0%);fill-opacity:1;" d="M 82.855469 90.703125 C 84.011719 90.703125 84.917969 91.6875 84.917969 92.847656 C 84.917969 93.992188 84.011719 94.898438 82.855469 94.898438 C 81.707031 94.898438 80.71875 93.992188 80.71875 92.847656 C 80.71875 91.6875 81.707031 90.703125 82.855469 90.703125 "/>
<path style=" stroke:none;fill-rule:evenodd;fill:rgb(0%,0%,0%);fill-opacity:1;" d="M 81.871094 96.289063 C 83.019531 96.289063 83.929688 97.195313 83.929688 98.347656 C 83.929688 99.492188 83.019531 100.394531 81.871094 100.394531 C 80.71875 100.394531 79.808594 99.492188 79.808594 98.347656 C 79.808594 97.195313 80.71875 96.289063 81.871094 96.289063 "/>
<path style=" stroke:none;fill-rule:evenodd;fill:rgb(0%,0%,0%);fill-opacity:1;" d="M 108.386719 140.355469 C 109.535156 140.355469 110.4375 141.261719 110.4375 142.40625 C 110.4375 143.558594 109.535156 144.546875 108.386719 144.546875 C 107.230469 144.546875 106.242188 143.558594 106.242188 142.40625 C 106.242188 141.261719 107.230469 140.355469 108.386719 140.355469 "/>
<path style=" stroke:none;fill-rule:evenodd;fill:rgb(0%,0%,0%);fill-opacity:1;" d="M 103.035156 138.628906 C 104.179688 138.628906 105.09375 139.527344 105.09375 140.683594 C 105.09375 141.832031 104.179688 142.734375 103.035156 142.734375 C 101.875 142.734375 100.882813 141.832031 100.882813 140.683594 C 100.882813 139.527344 101.875 138.628906 103.035156 138.628906 "/>
<path style=" stroke:none;fill-rule:evenodd;fill:rgb(0%,0%,0%);fill-opacity:1;" d="M 98.09375 135.914063 C 99.15625 135.914063 100.160156 136.902344 100.160156 138.046875 C 100.160156 139.203125 99.15625 140.101563 98.09375 140.101563 C 96.933594 140.101563 95.957031 139.203125 95.957031 138.046875 C 95.957031 136.902344 96.933594 135.914063 98.09375 135.914063 "/>
<path style=" stroke:none;fill-rule:evenodd;fill:rgb(0%,0%,0%);fill-opacity:1;" d="M 93.726563 132.382813 C 94.882813 132.382813 95.789063 133.277344 95.789063 134.433594 C 95.789063 135.582031 94.882813 136.570313 93.726563 136.570313 C 92.574219 136.570313 91.585938 135.582031 91.585938 134.433594 C 91.585938 133.277344 92.574219 132.382813 93.726563 132.382813 "/>
<path style=" stroke:none;fill-rule:evenodd;fill:rgb(0%,0%,0%);fill-opacity:1;" d="M 90.023438 127.941406 C 91.175781 127.941406 92.074219 128.929688 92.074219 130.074219 C 92.074219 131.226563 91.175781 132.128906 90.023438 132.128906 C 88.863281 132.128906 87.878906 131.226563 87.878906 130.074219 C 87.878906 128.929688 88.863281 127.941406 90.023438 127.941406 "/>
<path style=" stroke:none;fill-rule:evenodd;fill:rgb(0%,0%,0%);fill-opacity:1;" d="M 86.972656 123.253906 C 88.046875 123.253906 89.027344 124.15625 89.027344 125.308594 C 89.027344 126.457031 88.046875 127.359375 86.972656 127.359375 C 85.824219 127.359375 84.835938 126.457031 84.835938 125.308594 C 84.835938 124.15625 85.824219 123.253906 86.972656 123.253906 "/>
<path style=" stroke:none;fill-rule:evenodd;fill:rgb(0%,0%,0%);fill-opacity:1;" d="M 84.589844 118.488281 C 85.742188 118.488281 86.734375 119.390625 86.734375 120.535156 C 86.734375 121.6875 85.742188 122.507813 84.589844 122.507813 C 83.433594 122.507813 82.523438 121.6875 82.523438 120.535156 C 82.523438 119.390625 83.433594 118.488281 84.589844 118.488281 "/>
<path style=" stroke:none;fill-rule:evenodd;fill:rgb(0%,0%,0%);fill-opacity:1;" d="M 82.855469 113.058594 C 84.011719 113.058594 84.917969 113.964844 84.917969 115.121094 C 84.917969 116.265625 84.011719 117.25 82.855469 117.25 C 81.707031 117.25 80.71875 116.265625 80.71875 115.121094 C 80.71875 113.964844 81.707031 113.058594 82.855469 113.058594 "/>
<path style=" stroke:none;fill-rule:evenodd;fill:rgb(0%,0%,0%);fill-opacity:1;" d="M 81.871094 107.476563 C 83.019531 107.476563 83.929688 108.457031 83.929688 109.609375 C 83.929688 110.761719 83.019531 111.664063 81.871094 111.664063 C 80.71875 111.664063 79.808594 110.761719 79.808594 109.609375 C 79.808594 108.457031 80.71875 107.476563 81.871094 107.476563 "/>
<path style=" stroke:none;fill-rule:evenodd;fill:rgb(0%,0%,0%);fill-opacity:1;" d="M 118.921875 63.65625 C 117.769531 63.65625 116.871094 64.566406 116.871094 65.710938 C 116.871094 66.859375 117.769531 67.761719 118.921875 67.761719 C 120.074219 67.761719 120.980469 66.859375 120.980469 65.710938 C 120.980469 64.566406 120.074219 63.65625 118.921875 63.65625 "/>
<path style=" stroke:none;fill-rule:evenodd;fill:rgb(0%,0%,0%);fill-opacity:1;" d="M 124.28125 65.300781 C 123.125 65.300781 122.214844 66.285156 122.214844 67.445313 C 122.214844 68.59375 123.125 69.492188 124.28125 69.492188 C 125.429688 69.492188 126.339844 68.59375 126.339844 67.445313 C 126.339844 66.285156 125.429688 65.300781 124.28125 65.300781 "/>
<path style=" stroke:none;fill-rule:evenodd;fill:rgb(0%,0%,0%);fill-opacity:1;" d="M 129.214844 68.015625 C 128.0625 68.015625 127.152344 68.921875 127.152344 70.066406 C 127.152344 71.222656 128.0625 72.203125 129.214844 72.203125 C 130.371094 72.203125 131.273438 71.222656 131.273438 70.066406 C 131.273438 68.921875 130.371094 68.015625 129.214844 68.015625 "/>
<path style=" stroke:none;fill-rule:evenodd;fill:rgb(0%,0%,0%);fill-opacity:1;" d="M 133.582031 71.464844 C 132.425781 71.464844 131.519531 72.453125 131.519531 73.601563 C 131.519531 74.757813 132.425781 75.660156 133.582031 75.660156 C 134.738281 75.660156 135.640625 74.757813 135.640625 73.601563 C 135.640625 72.453125 134.738281 71.464844 133.582031 71.464844 "/>
<path style=" stroke:none;fill-rule:evenodd;fill:rgb(0%,0%,0%);fill-opacity:1;" d="M 137.207031 75.574219 C 136.050781 75.574219 135.144531 76.5625 135.144531 77.714844 C 135.144531 78.867188 136.050781 79.769531 137.207031 79.769531 C 138.351563 79.769531 139.347656 78.867188 139.347656 77.714844 C 139.347656 76.5625 138.351563 75.574219 137.207031 75.574219 "/>
<path style=" stroke:none;fill-rule:evenodd;fill:rgb(0%,0%,0%);fill-opacity:1;" d="M 140.335938 80.34375 C 139.179688 80.34375 138.269531 81.335938 138.269531 82.484375 C 138.269531 83.550781 139.179688 84.53125 140.335938 84.53125 C 141.488281 84.53125 142.390625 83.550781 142.390625 82.484375 C 142.390625 81.335938 141.488281 80.34375 140.335938 80.34375 "/>
<path style=" stroke:none;fill-rule:evenodd;fill:rgb(0%,0%,0%);fill-opacity:1;" d="M 142.632813 85.363281 C 141.488281 85.363281 140.574219 86.339844 140.574219 87.496094 C 140.574219 88.648438 141.488281 89.542969 142.632813 89.542969 C 143.792969 89.542969 144.777344 88.648438 144.777344 87.496094 C 144.777344 86.339844 143.792969 85.363281 142.632813 85.363281 "/>
<path style=" stroke:none;fill-rule:evenodd;fill:rgb(0%,0%,0%);fill-opacity:1;" d="M 144.449219 90.703125 C 143.300781 90.703125 142.390625 91.6875 142.390625 92.847656 C 142.390625 93.992188 143.300781 94.898438 144.449219 94.898438 C 145.609375 94.898438 146.511719 93.992188 146.511719 92.847656 C 146.511719 91.6875 145.609375 90.703125 144.449219 90.703125 "/>
<path style=" stroke:none;fill-rule:evenodd;fill:rgb(0%,0%,0%);fill-opacity:1;" d="M 145.441406 96.289063 C 144.289063 96.289063 143.300781 97.195313 143.300781 98.347656 C 143.300781 99.492188 144.289063 100.394531 145.441406 100.394531 C 146.59375 100.394531 147.496094 99.492188 147.496094 98.347656 C 147.496094 97.195313 146.59375 96.289063 145.441406 96.289063 "/>
<path style=" stroke:none;fill-rule:evenodd;fill:rgb(0%,0%,0%);fill-opacity:1;" d="M 118.921875 140.355469 C 117.769531 140.355469 116.871094 141.261719 116.871094 142.40625 C 116.871094 143.558594 117.769531 144.546875 118.921875 144.546875 C 120.074219 144.546875 120.980469 143.558594 120.980469 142.40625 C 120.980469 141.261719 120.074219 140.355469 118.921875 140.355469 "/>
<path style=" stroke:none;fill-rule:evenodd;fill:rgb(0%,0%,0%);fill-opacity:1;" d="M 124.28125 138.628906 C 123.125 138.628906 122.214844 139.527344 122.214844 140.683594 C 122.214844 141.832031 123.125 142.734375 124.28125 142.734375 C 125.429688 142.734375 126.339844 141.832031 126.339844 140.683594 C 126.339844 139.527344 125.429688 138.628906 124.28125 138.628906 "/>
<path style=" stroke:none;fill-rule:evenodd;fill:rgb(0%,0%,0%);fill-opacity:1;" d="M 129.214844 135.914063 C 128.0625 135.914063 127.152344 136.902344 127.152344 138.046875 C 127.152344 139.203125 128.0625 140.101563 129.214844 140.101563 C 130.371094 140.101563 131.273438 139.203125 131.273438 138.046875 C 131.273438 136.902344 130.371094 135.914063 129.214844 135.914063 "/>
<path style=" stroke:none;fill-rule:evenodd;fill:rgb(0%,0%,0%);fill-opacity:1;" d="M 133.582031 132.382813 C 132.425781 132.382813 131.519531 133.277344 131.519531 134.433594 C 131.519531 135.582031 132.425781 136.570313 133.582031 136.570313 C 134.738281 136.570313 135.640625 135.582031 135.640625 134.433594 C 135.640625 133.277344 134.738281 132.382813 133.582031 132.382813 "/>
<path style=" stroke:none;fill-rule:evenodd;fill:rgb(0%,0%,0%);fill-opacity:1;" d="M 137.285156 127.941406 C 136.132813 127.941406 135.230469 128.929688 135.230469 130.074219 C 135.230469 131.226563 136.132813 132.128906 137.285156 132.128906 C 138.4375 132.128906 139.347656 131.226563 139.347656 130.074219 C 139.347656 128.929688 138.4375 127.941406 137.285156 127.941406 "/>
<path style=" stroke:none;fill-rule:evenodd;fill:rgb(0%,0%,0%);fill-opacity:1;" d="M 140.335938 123.253906 C 139.179688 123.253906 138.269531 124.15625 138.269531 125.308594 C 138.269531 126.457031 139.179688 127.359375 140.335938 127.359375 C 141.488281 127.359375 142.390625 126.457031 142.390625 125.308594 C 142.390625 124.15625 141.488281 123.253906 140.335938 123.253906 "/>
<path style=" stroke:none;fill-rule:evenodd;fill:rgb(0%,0%,0%);fill-opacity:1;" d="M 142.632813 118.488281 C 141.488281 118.488281 140.574219 119.390625 140.574219 120.535156 C 140.574219 121.6875 141.488281 122.507813 142.632813 122.507813 C 143.792969 122.507813 144.777344 121.6875 144.777344 120.535156 C 144.777344 119.390625 143.792969 118.488281 142.632813 118.488281 "/>
<path style=" stroke:none;fill-rule:evenodd;fill:rgb(0%,0%,0%);fill-opacity:1;" d="M 144.449219 113.058594 C 143.300781 113.058594 142.390625 113.964844 142.390625 115.121094 C 142.390625 116.265625 143.300781 117.25 144.449219 117.25 C 145.609375 117.25 146.511719 116.265625 146.511719 115.121094 C 146.511719 113.964844 145.609375 113.058594 144.449219 113.058594 "/>
<path style=" stroke:none;fill-rule:evenodd;fill:rgb(0%,0%,0%);fill-opacity:1;" d="M 145.441406 107.476563 C 144.289063 107.476563 143.300781 108.457031 143.300781 109.609375 C 143.300781 110.761719 144.289063 111.664063 145.441406 111.664063 C 146.59375 111.664063 147.496094 110.761719 147.496094 109.609375 C 147.496094 108.457031 146.59375 107.476563 145.441406 107.476563 "/>
<path style=" stroke:none;fill-rule:nonzero;fill:rgb(0%,0%,0%);fill-opacity:1;" d="M 112.070313 90.984375 C 111.777344 89.382813 110.585938 89.003906 110.078125 88.972656 C 107.847656 88.839844 108.507813 92.246094 107.28125 89.542969 C 105.96875 86.6875 106.785156 81.699219 111.679688 82.878906 C 111.679688 82.851563 111.679688 82.828125 111.675781 82.804688 C 108.128906 77.289063 110.253906 71.863281 113.566406 69.109375 C 113.640625 69.039063 113.71875 68.976563 113.796875 68.921875 C 103.671875 69.003906 97.417969 75.164063 93.539063 79.933594 L 112.136719 102.195313 L 112.136719 92.144531 C 112.121094 91.847656 112.101563 91.457031 112.070313 90.984375 "/>
<path style=" stroke:none;fill-rule:evenodd;fill:rgb(0%,0%,0%);fill-opacity:1;" d="M 112.152344 102.210938 L 104.078125 102.210938 C 99.757813 102.195313 101.382813 97.785156 103.09375 96.863281 C 101.769531 94.316406 95.921875 94.808594 97.320313 101.554688 C 92.21875 96.703125 87.109375 100.320313 85.640625 103.867188 L 112.152344 103.867188 "/>
<path style=" stroke:none;fill-rule:nonzero;fill:rgb(0%,0%,0%);fill-opacity:1;" d="M 103.09375 110.867188 C 101.769531 113.417969 95.921875 112.921875 97.320313 106.175781 C 92.21875 111.027344 87.109375 107.410156 85.636719 103.867188 C 85.132813 112.996094 90.082031 124.355469 93.699219 127.972656 L 112.152344 105.523438 L 104.078125 105.519531 C 99.757813 105.535156 101.382813 109.945313 103.09375 110.867188 "/>
<path style=" stroke:none;fill-rule:evenodd;fill:rgb(0%,0%,0%);fill-opacity:1;" d="M 115.460938 103.867188 L 115.460938 91.761719 C 115.460938 89.5 116.9375 89.007813 117.515625 88.972656 C 119.75 88.839844 119.089844 92.246094 120.316406 89.542969 C 121.632813 86.679688 120.804688 81.660156 115.863281 82.890625 C 119.574219 77.21875 117.257813 71.625 113.796875 68.921875 L 113.804688 103.867188 "/>
<path style=" stroke:none;fill-rule:nonzero;fill:rgb(0%,0%,0%);fill-opacity:1;" d="M 115.542969 116.746094 C 115.835938 118.351563 117.027344 118.730469 117.53125 118.757813 C 119.765625 118.894531 119.105469 115.488281 120.332031 118.1875 C 121.644531 121.042969 120.824219 126.03125 115.933594 124.855469 C 115.933594 124.878906 115.933594 124.902344 115.933594 124.929688 C 119.480469 130.445313 117.355469 135.867188 114.046875 138.621094 C 113.972656 138.691406 113.894531 138.757813 113.8125 138.808594 C 123.9375 138.730469 130.195313 132.566406 134.074219 127.800781 L 115.476563 105.539063 L 115.476563 115.589844 C 115.488281 115.882813 115.511719 116.273438 115.542969 116.746094 "/>
<path style=" stroke:none;fill-rule:evenodd;fill:rgb(0%,0%,0%);fill-opacity:1;" d="M 115.460938 105.519531 L 123.535156 105.519531 C 127.855469 105.539063 126.230469 109.945313 124.515625 110.867188 C 125.84375 113.417969 131.691406 112.921875 130.289063 106.175781 C 135.394531 111.027344 140.503906 107.414063 141.976563 103.867188 L 115.460938 103.867188 "/>
<path style=" stroke:none;fill-rule:nonzero;fill:rgb(0%,0%,0%);fill-opacity:1;" d="M 124.515625 96.867188 C 125.84375 94.316406 131.691406 94.8125 130.289063 101.554688 C 135.394531 96.707031 140.5 100.320313 141.976563 103.867188 C 142.476563 94.734375 137.53125 83.375 133.910156 79.761719 L 115.460938 102.210938 L 123.535156 102.210938 C 127.855469 102.195313 126.230469 97.789063 124.515625 96.867188 "/>
<path style=" stroke:none;fill-rule:evenodd;fill:rgb(0%,0%,0%);fill-opacity:1;" d="M 112.152344 103.867188 L 112.152344 115.96875 C 112.152344 118.234375 110.675781 118.722656 110.09375 118.757813 C 107.863281 118.890625 108.523438 115.488281 107.296875 118.1875 C 105.980469 121.054688 106.808594 126.070313 111.75 124.84375 C 108.039063 130.515625 110.355469 136.105469 113.8125 138.808594 L 113.804688 103.867188 "/>
<path style=" stroke:none;fill-rule:nonzero;fill:rgb(0%,0%,0%);fill-opacity:1;" d="M 115.992188 56.71875 C 116.050781 54.335938 115.285156 52.585938 113.804688 51.945313 C 112.328125 52.585938 111.5625 54.335938 111.621094 56.71875 C 108.988281 56.625 106.089844 59.222656 108.203125 62.796875 C 109.59375 60.535156 111.621094 61.074219 111.621094 63.023438 C 111.636719 64.925781 111.628906 65.675781 111.621094 67.398438 L 115.992188 67.398438 C 115.984375 65.675781 115.976563 64.925781 115.992188 63.023438 C 115.992188 61.074219 118.019531 60.535156 119.40625 62.796875 C 121.519531 59.222656 118.621094 56.625 115.992188 56.71875 "/>
<path style=" stroke:none;fill-rule:nonzero;fill:rgb(0%,0%,0%);fill-opacity:1;" d="M 72.144531 101.765625 C 69.765625 101.703125 68.015625 102.46875 67.371094 103.949219 C 68.015625 105.429688 69.765625 106.195313 72.144531 106.132813 C 72.054688 108.765625 74.652344 111.664063 78.226563 109.550781 C 75.964844 108.164063 76.503906 106.097656 78.449219 106.097656 C 80.351563 106.082031 81.789063 106.089844 83.515625 106.097656 L 83.515625 101.761719 C 81.789063 101.773438 80.351563 101.78125 78.449219 101.765625 C 76.503906 101.765625 75.964844 99.734375 78.226563 98.347656 C 74.652344 96.234375 72.054688 99.132813 72.144531 101.765625 "/>
<path style=" stroke:none;fill-rule:nonzero;fill:rgb(0%,0%,0%);fill-opacity:1;" d="M 155.082031 106.132813 C 157.460938 106.195313 159.214844 105.429688 159.855469 103.949219 C 159.214844 102.46875 157.460938 101.703125 155.082031 101.765625 C 155.171875 99.132813 152.574219 96.234375 149 98.347656 C 151.261719 99.734375 150.722656 101.800781 148.777344 101.800781 C 146.871094 101.816406 145.4375 101.808594 143.714844 101.800781 L 143.714844 106.136719 C 145.4375 106.128906 146.871094 106.121094 148.777344 106.132813 C 150.722656 106.132813 151.261719 108.164063 149 109.550781 C 152.574219 111.664063 155.171875 108.765625 155.082031 106.132813 "/>
<path style=" stroke:none;fill-rule:nonzero;fill:rgb(0%,0%,0%);fill-opacity:1;" d="M 111.621094 151.359375 C 111.5625 153.742188 112.328125 155.492188 113.804688 156.132813 C 115.285156 155.492188 116.050781 153.742188 115.992188 151.359375 C 118.621094 151.453125 121.519531 148.855469 119.40625 145.28125 C 118.019531 147.542969 115.953125 147 115.953125 145.054688 C 115.9375 143.152344 115.945313 142.402344 115.953125 140.679688 L 111.621094 140.679688 C 111.628906 142.402344 111.636719 143.152344 111.621094 145.054688 C 111.621094 147 109.59375 147.542969 108.203125 145.28125 C 106.089844 148.855469 108.988281 151.453125 111.621094 151.359375 "/>
<path style=" stroke:none;fill-rule:evenodd;fill:rgb(0%,0%,0%);fill-opacity:1;" d="M 113.820313 50.972656 C 117.898438 50.972656 121.597656 52.519531 124.296875 55.027344 L 125.519531 53.800781 C 122.503906 51.003906 118.375 49.28125 113.820313 49.28125 C 109.269531 49.28125 105.144531 51.003906 102.125 53.796875 L 103.351563 55.023438 C 106.050781 52.519531 109.746094 50.972656 113.820313 50.972656 "/>
<path style=" stroke:none;fill-rule:evenodd;fill:rgb(0%,0%,0%);fill-opacity:1;" d="M 113.8125 50.972656 C 109.734375 50.972656 106.039063 52.519531 103.339844 55.027344 L 102.113281 53.800781 C 105.132813 51.003906 109.257813 49.28125 113.8125 49.28125 C 118.363281 49.28125 122.492188 51.003906 125.511719 53.796875 L 124.28125 55.023438 C 121.585938 52.519531 117.890625 50.972656 113.8125 50.972656 "/>
<path style=" stroke:none;fill-rule:evenodd;fill:rgb(0%,0%,0%);fill-opacity:1;" d="M 138.933594 36.445313 C 138.402344 32.78125 133.242188 33.703125 131.027344 34.636719 C 128.378906 35.757813 125.757813 35.953125 122.960938 34.800781 C 114.199219 31.472656 121.191406 22.878906 125.371094 22.1875 C 126.230469 22.046875 125.460938 21.109375 123.78125 21.902344 C 122.304688 22.601563 121.21875 23.203125 121.3125 23.039063 C 123.761719 18.585938 127 18.199219 128.609375 20.066406 C 129.226563 20.78125 128.996094 21.578125 127.679688 22.75 C 121.425781 28.261719 127.648438 30.199219 132.84375 30.117188 C 139.589844 30.691406 144.367188 33.8125 143.464844 43.847656 C 147.085938 37.105469 163.710938 33.980469 167.5 47.792969 C 168.003906 50.746094 168.324219 53.050781 167.421875 57.824219 C 166.863281 59.390625 168.835938 61.160156 171.125 61.4375 C 169.5625 63.054688 167.832031 62.832031 166.269531 60.867188 C 166.765625 64.152344 166.097656 68.207031 170.96875 69.164063 C 181.917969 70.480469 173.855469 78.613281 164.128906 72.859375 C 160.824219 70.863281 157.320313 66.355469 159.101563 60.699219 C 148.308594 62.175781 148.988281 49.769531 151.289063 51.734375 C 154.007813 54.121094 159.777344 54.398438 160.835938 50.835938 C 150.761719 55.765625 150.519531 44.898438 153.511719 48.039063 C 157.875 52.636719 163.554688 45.566406 157.617188 42.535156 C 159.929688 45.566406 158.890625 47.285156 157.214844 47.960938 C 155.398438 48.6875 152.519531 47.300781 154.167969 45.246094 C 156.472656 42.445313 151.886719 41.71875 149.308594 43.023438 C 147.328125 44.257813 146.425781 45.324219 143.703125 50.011719 C 142.183594 46.550781 139.648438 45.621094 136.296875 45.738281 C 140.160156 40.140625 135.390625 38.5 133.90625 40.476563 C 132.726563 41.960938 131.234375 41.074219 131.359375 39.410156 C 131.269531 34.476563 136.050781 33.898438 138.933594 36.445313 "/>
<path style=" stroke:none;fill-rule:evenodd;fill:rgb(0%,0%,0%);fill-opacity:1;" d="M 136.703125 69.824219 C 133.257813 67.519531 129.800781 65.300781 126.332031 63 C 132.015625 59.054688 136.210938 55.597656 139.917969 52.148438 C 140.421875 51.570313 140.085938 51.074219 139.347656 51.492188 C 136.136719 53.953125 133.503906 56.101563 130.285156 58.5625 L 128.304688 58.5625 C 128.394531 57.171875 128.304688 55.679688 128.304688 54.617188 C 130.699219 54.367188 134.878906 53.371094 136.136719 51.898438 C 137.378906 50.4375 132.808594 50.925781 134.238281 49.109375 C 138.152344 44.359375 144.949219 50.03125 141.808594 53.132813 C 139.8125 55.027344 138.117188 56.335938 136.210938 57.902344 C 140.421875 55.84375 144.695313 53.464844 148.902344 50.335938 C 148.734375 51.734375 148.484375 53.21875 148.308594 54.695313 C 144.453125 56.585938 140.492188 58.230469 136.546875 59.792969 C 135.96875 59.875 136.050781 60.945313 136.546875 60.945313 C 140.339844 58.386719 144.453125 57.574219 146.996094 58.3125 C 150.050781 59.136719 149.640625 62.433594 147.246094 63.496094 C 146.996094 64.402344 148.402344 64.070313 149.972656 63.570313 C 149.390625 67.105469 145.441406 65.878906 145.683594 66.53125 C 145.855469 67.105469 148.484375 66.859375 148.902344 66.695313 C 147.828125 69.738281 144.453125 68.835938 144.453125 69.324219 C 144.453125 69.910156 145.441406 70.066406 146.097656 70.144531 C 145.441406 70.890625 144.367188 71.710938 142.3125 71.222656 C 142.140625 71.136719 141.652344 71.222656 141.980469 71.464844 C 142.140625 71.710938 142.554688 71.964844 143.214844 72.042969 C 141.410156 72.699219 139.757813 72.207031 138.773438 71.464844 C 137.78125 70.730469 137.613281 69.414063 137.699219 69.492188 C 138.605469 70.3125 139.507813 70.40625 139.429688 70.3125 C 138.117188 69.324219 136.796875 66.695313 139.917969 64.894531 C 140.003906 65.136719 140.25 66.125 140.742188 66.449219 C 141.160156 66.695313 141.320313 66.78125 141.160156 66.289063 C 140.902344 65.21875 140.664063 63.496094 142.394531 62.832031 C 142.230469 63.242188 142.632813 64.566406 143.136719 64.722656 C 143.382813 64.808594 143.625 64.808594 143.542969 64.644531 C 143.296875 63.980469 142.140625 61.601563 144.03125 61.1875 C 144.289063 61.601563 144.199219 62.589844 145.683594 62.667969 C 149.558594 58.230469 140.085938 58.3125 140.582031 60.527344 C 140.992188 60.699219 141.410156 60.867188 141.808594 61.03125 C 140.664063 62.265625 139.429688 63.65625 138.273438 64.972656 C 136.460938 64.3125 134.722656 63.496094 132.925781 62.832031 C 132.753906 63.082031 132.097656 63.742188 131.84375 63.980469 C 133.332031 64.808594 135.0625 65.710938 136.625 66.53125 C 136.546875 67.761719 136.703125 68.59375 136.703125 69.824219 "/>
<path style=" stroke:none;fill-rule:evenodd;fill:rgb(0%,0%,0%);fill-opacity:1;" d="M 149.476563 94.152344 C 148.816406 90.78125 148.152344 87.25 146.671875 84.449219 C 147.5 83.796875 148.570313 83.21875 149.390625 82.5625 C 148.152344 82.730469 147.179688 82.855469 145.945313 83.023438 C 145.113281 80.660156 143.484375 78.1875 141.074219 75.414063 C 141.074219 75.328125 144.816406 74.898438 154.167969 77.21875 C 147.910156 74.917969 148.03125 70.976563 149.484375 69.257813 C 151.90625 66.386719 156.058594 69.671875 156.058594 69.671875 C 156.058594 69.671875 156.222656 68.699219 155.195313 68.015625 C 153.496094 66.894531 151.613281 67.761719 151.859375 67.597656 C 153.921875 65.796875 157.046875 66.375 158.363281 68.921875 C 159.609375 71.382813 157.550781 75.4375 153.832031 73.109375 C 155.078125 70.976563 153.519531 70.023438 152.359375 70.230469 C 151.101563 70.453125 150.320313 71.761719 151.53125 73.355469 C 153.515625 76.148438 158.644531 76.328125 163.0625 76.804688 C 174.914063 78.371094 180.597656 97.6875 162.066406 99.492188 C 167.75 96.539063 167.75 87.496094 161.578125 87.320313 C 158.203125 87.25 156.054688 91.6875 160.007813 93.007813 C 158.652344 91.769531 159.027344 89.335938 160.757813 89.21875 C 167.53125 89.046875 164.050781 101.6875 156.386719 97.03125 C 144.199219 88.070313 163.902344 74.019531 168.902344 88.8125 C 169.789063 80.632813 151.371094 73.933594 149.476563 94.152344 "/>
<path style=" stroke:none;fill-rule:evenodd;fill:rgb(0%,0%,0%);fill-opacity:1;" d="M 184.546875 127.359375 C 186.691406 123.910156 185.132813 118.230469 181.179688 118.238281 C 177.214844 118.304688 177.496094 123.910156 180.351563 123.503906 C 182.671875 123.179688 185.371094 124.894531 184.546875 127.359375 "/>
<path style=" stroke:none;fill-rule:evenodd;fill:rgb(0%,0%,0%);fill-opacity:1;" d="M 182.414063 111.003906 C 180.679688 106.890625 177.804688 105.246094 174.265625 105.246094 C 171.304688 105.246094 169.808594 106.570313 168.902344 107.886719 C 164.980469 113.964844 172.421875 119.828125 177.058594 110.921875 C 178.203125 109.070313 180.351563 109.855469 182.414063 111.003906 "/>
<path style=" stroke:none;fill-rule:evenodd;fill:rgb(0%,0%,0%);fill-opacity:1;" d="M 185.132813 117.417969 C 185.214844 113.800781 182.902344 111.90625 181.011719 111.585938 C 179.132813 111.273438 178.125 111.988281 177.550781 112.730469 C 175 116.023438 179.445313 120.042969 181.75 115.523438 C 182.414063 114.207031 184.21875 115.277344 185.132813 117.417969 "/>
<path style=" stroke:none;fill-rule:evenodd;fill:rgb(0%,0%,0%);fill-opacity:1;" d="M 159.027344 111.425781 C 160.425781 108.867188 162.339844 108.003906 164.050781 108.296875 C 165.195313 108.539063 166.023438 108.902344 166.519531 110.09375 C 167.589844 113.472656 163.636719 114.460938 162.652344 111.585938 C 162.242188 110.28125 160.339844 110.179688 159.027344 111.425781 "/>
<path style=" stroke:none;fill-rule:evenodd;fill:rgb(0%,0%,0%);fill-opacity:1;" d="M 123.199219 161.253906 C 118.914063 139.222656 139.347656 145.527344 146.839844 123.089844 C 147.746094 126.621094 147.589844 129.832031 146.179688 132.542969 C 146.589844 132.128906 146.839844 132.292969 147.328125 131.308594 C 149.222656 127.039063 150.703125 120.042969 151.53125 113.226563 C 152.359375 112.234375 156.472656 111.253906 156.144531 113.308594 C 154.914063 120.792969 154.226563 124.882813 153.941406 127.507813 C 153.839844 128.464844 156.074219 119.996094 157.382813 114.617188 C 158.289063 111.289063 163.878906 111.558594 162.652344 115.613281 C 161.414063 119.226563 160.511719 120.785156 159.269531 124.328125 C 161.113281 121.335938 163.121094 118.683594 164.050781 115.035156 C 165.230469 115.480469 166.53125 115.152344 167.171875 114.792969 C 167.53125 114.589844 167.347656 115.769531 166.789063 117.414063 C 165.59375 120.816406 163.636719 122.597656 161.332031 125.394531 C 164.050781 123.503906 167.5 119.71875 168.324219 116.265625 C 170.222656 117.417969 172.363281 117.335938 174.421875 116.925781 C 172.609375 121.535156 169.054688 123.964844 164.769531 127.082031 C 164.03125 127.65625 162.0625 129.199219 161.414063 129.832031 C 166.933594 127.199219 172.519531 124.15625 175.980469 116.265625 C 176.398438 117.171875 176.894531 118.488281 178.214844 118.898438 C 177.140625 120.464844 177.382813 122.597656 177.804688 124.566406 C 175.164063 128.589844 165.945313 130.652344 161.988281 131.472656 C 161.734375 131.558594 172.441406 131.558594 178.953125 125.066406 C 181.117188 123.082031 184.960938 126.265625 182.988281 129.175781 C 180.4375 133.039063 174.242188 133.65625 162.726563 133.367188 C 162.6875 133.777344 188.992188 134.800781 191.226563 134.761719 C 192.933594 134.75 191.675781 141.0625 187.621094 140.5625 C 177.332031 139.417969 176.441406 138.699219 173.097656 137.972656 C 171.367188 137.597656 178.867188 140.429688 185.789063 141.746094 C 185.617188 143.96875 180.839844 145.613281 176.644531 144.046875 C 171.394531 142.160156 163.765625 135.875 160.175781 137.644531 C 159.679688 137.886719 162.316406 137.203125 166.519531 139.9375 C 170.929688 142.808594 176.152344 145.945313 176.484375 146.1875 C 171.457031 153.996094 166.746094 144.210938 158.53125 140.269531 C 156.476563 139.25 154.691406 138.910156 155.730469 139.363281 C 178.214844 150.546875 158.53125 165.835938 152.359375 152.765625 C 160.007813 156.210938 162.894531 150.386719 159.347656 145.449219 C 161.496094 153.339844 154.609375 153.941406 151.890625 151.066406 C 160.121094 147.449219 152.882813 139.773438 146.554688 139.386719 C 141.285156 139.238281 139.203125 144.65625 142.53125 147.207031 C 142.996094 147.660156 139.925781 143.488281 143.453125 141.917969 C 146.5 140.605469 147.867188 141.308594 149.507813 142.734375 C 153.945313 146.589844 148.972656 157.675781 141.652344 153.835938 C 137.046875 151.273438 133.816406 149.726563 129.800781 151.695313 C 135.554688 151.457031 139.230469 153.609375 141.238281 155.476563 C 143.46875 157.660156 141.164063 162 136.703125 158.609375 C 134.199219 156.59375 123.539063 150.546875 125.667969 158.761719 C 126.089844 160.410156 129.972656 161.652344 126.332031 163.363281 C 124.0625 164.308594 123.449219 162.734375 123.199219 161.253906 "/>
<path style=" stroke:none;fill-rule:nonzero;fill:rgb(0%,0%,0%);fill-opacity:1;" d="M 220.820313 77.972656 C 213.15625 77.972656 211.429688 73.800781 211.429688 69.160156 L 211.429688 53.289063 L 216.105469 53.289063 L 216.105469 68.871094 C 216.105469 71.929688 217.113281 74.089844 221.144531 74.089844 C 224.742188 74.089844 226.253906 72.578125 226.253906 68.4375 L 226.253906 53.289063 L 230.894531 53.289063 L 230.894531 68.148438 C 230.894531 74.808594 227.226563 77.972656 220.820313 77.972656 "/>
<path style=" stroke:none;fill-rule:nonzero;fill:rgb(0%,0%,0%);fill-opacity:1;" d="M 246.144531 77.578125 L 246.144531 66.136719 C 246.144531 64.265625 245.640625 63.148438 243.949219 63.148438 C 241.609375 63.148438 239.777344 65.8125 239.777344 68.941406 L 239.777344 77.578125 L 235.171875 77.578125 L 235.171875 59.695313 L 239.523438 59.695313 C 239.523438 60.523438 239.453125 61.925781 239.273438 62.863281 L 239.308594 62.898438 C 240.386719 60.773438 242.476563 59.300781 245.390625 59.300781 C 249.417969 59.300781 250.714844 61.890625 250.714844 65.019531 L 250.714844 77.578125 "/>
<path style=" stroke:none;fill-rule:nonzero;fill:rgb(0%,0%,0%);fill-opacity:1;" d="M 254.992188 59.695313 L 259.597656 59.695313 L 259.597656 77.578125 L 254.992188 77.578125 Z M 257.296875 57.390625 C 255.714844 57.390625 254.453125 56.132813 254.453125 54.585938 C 254.453125 53.074219 255.714844 51.816406 257.296875 51.816406 C 258.878906 51.816406 260.175781 53.039063 260.175781 54.585938 C 260.175781 56.132813 258.878906 57.390625 257.296875 57.390625 "/>
<path style=" stroke:none;fill-rule:nonzero;fill:rgb(0%,0%,0%);fill-opacity:1;" d="M 272.765625 77.578125 L 268.089844 77.578125 L 261.46875 59.695313 L 266.503906 59.695313 L 269.347656 67.753906 C 269.777344 68.980469 270.210938 70.417969 270.535156 71.714844 L 270.605469 71.714844 C 270.894531 70.492188 271.253906 69.121094 271.6875 67.898438 L 274.566406 59.695313 L 279.457031 59.695313 "/>
<path style=" stroke:none;fill-rule:nonzero;fill:rgb(0%,0%,0%);fill-opacity:1;" d="M 287.65625 62.679688 C 285.746094 62.679688 284.417969 64.085938 284.164063 66.242188 L 290.75 66.242188 C 290.820313 64.015625 289.597656 62.679688 287.65625 62.679688 M 295.175781 69.375 L 284.09375 69.375 C 284.058594 72.71875 285.714844 74.339844 289.023438 74.339844 C 290.785156 74.339844 292.691406 73.945313 294.242188 73.226563 L 294.671875 76.785156 C 292.765625 77.542969 290.496094 77.9375 288.265625 77.9375 C 282.582031 77.9375 279.414063 75.097656 279.414063 68.796875 C 279.414063 63.328125 282.4375 59.300781 287.800781 59.300781 C 293.015625 59.300781 295.320313 62.863281 295.320313 67.285156 C 295.320313 67.898438 295.285156 68.617188 295.175781 69.375 "/>
<path style=" stroke:none;fill-rule:nonzero;fill:rgb(0%,0%,0%);fill-opacity:1;" d="M 308.015625 63.835938 C 304.707031 63.148438 303.050781 65.308594 303.050781 70.273438 L 303.050781 77.578125 L 298.445313 77.578125 L 298.445313 59.695313 L 302.800781 59.695313 C 302.800781 60.59375 302.691406 62.035156 302.476563 63.296875 L 302.546875 63.296875 C 303.410156 61.027344 305.136719 59.050781 308.230469 59.300781 "/>
<path style=" stroke:none;fill-rule:nonzero;fill:rgb(0%,0%,0%);fill-opacity:1;" d="M 313.589844 77.9375 C 312.296875 77.9375 311 77.796875 309.851563 77.613281 L 309.957031 73.835938 C 311.070313 74.125 312.4375 74.375 313.808594 74.375 C 315.570313 74.375 316.722656 73.65625 316.722656 72.46875 C 316.722656 69.300781 309.488281 71.101563 309.488281 65.019531 C 309.488281 61.890625 312.042969 59.300781 317.078125 59.300781 C 318.125 59.300781 319.277344 59.445313 320.355469 59.625 L 320.210938 63.257813 C 319.203125 62.96875 318.015625 62.789063 316.902344 62.789063 C 315.101563 62.789063 314.238281 63.507813 314.238281 64.625 C 314.238281 67.539063 321.578125 66.242188 321.578125 72.039063 C 321.578125 75.5625 318.484375 77.9375 313.589844 77.9375 "/>
<path style=" stroke:none;fill-rule:nonzero;fill:rgb(0%,0%,0%);fill-opacity:1;" d="M 324.777344 59.695313 L 329.382813 59.695313 L 329.382813 77.578125 L 324.777344 77.578125 Z M 327.082031 57.390625 C 325.496094 57.390625 324.238281 56.132813 324.238281 54.585938 C 324.238281 53.074219 325.496094 51.816406 327.082031 51.816406 C 328.664063 51.816406 329.960938 53.039063 329.960938 54.585938 C 329.960938 56.132813 328.664063 57.390625 327.082031 57.390625 "/>
<path style=" stroke:none;fill-rule:nonzero;fill:rgb(0%,0%,0%);fill-opacity:1;" d="M 344.132813 63.292969 C 343.304688 63.113281 342.515625 63.007813 341.722656 63.007813 C 339.097656 63.007813 337.226563 64.660156 337.226563 69.089844 C 337.226563 72.433594 338.195313 74.160156 340.28125 74.160156 C 342.691406 74.160156 344.132813 71.355469 344.132813 68.296875 Z M 344.421875 77.578125 C 344.421875 76.714844 344.492188 75.566406 344.636719 74.589844 L 344.566406 74.589844 C 343.628906 76.570313 341.648438 77.972656 338.914063 77.972656 C 334.5625 77.972656 332.402344 74.699219 332.402344 69.589844 C 332.402344 63.542969 335.929688 59.371094 341.867188 59.371094 C 342.621094 59.371094 343.339844 59.40625 344.132813 59.515625 L 344.132813 51.3125 L 348.703125 51.3125 L 348.703125 77.578125 "/>
<path style=" stroke:none;fill-rule:nonzero;fill:rgb(0%,0%,0%);fill-opacity:1;" d="M 362.191406 69.660156 C 357.335938 69.660156 356.253906 71.066406 356.253906 72.507813 C 356.253906 73.65625 357.046875 74.414063 358.378906 74.414063 C 360.644531 74.414063 362.191406 72.253906 362.191406 70.097656 Z M 362.550781 77.578125 C 362.550781 76.535156 362.589844 75.492188 362.730469 74.558594 L 362.695313 74.519531 C 361.832031 76.535156 359.636719 77.9375 356.972656 77.9375 C 353.734375 77.9375 351.863281 76.101563 351.863281 73.226563 C 351.863281 68.941406 356.109375 66.675781 362.191406 66.675781 L 362.191406 65.703125 C 362.191406 63.835938 361.292969 62.863281 358.703125 62.863281 C 357.082031 62.863281 354.921875 63.402344 353.410156 64.265625 L 353.015625 60.414063 C 354.816406 59.769531 357.117188 59.300781 359.421875 59.300781 C 365.179688 59.300781 366.796875 61.636719 366.796875 65.523438 L 366.796875 72.972656 C 366.796875 74.414063 366.835938 76.101563 366.90625 77.578125 "/>
<path style=" stroke:none;fill-rule:nonzero;fill:rgb(0%,0%,0%);fill-opacity:1;" d="M 381.617188 63.292969 C 380.789063 63.113281 379.996094 63.007813 379.207031 63.007813 C 376.578125 63.007813 374.710938 64.660156 374.710938 69.089844 C 374.710938 72.433594 375.679688 74.160156 377.765625 74.160156 C 380.179688 74.160156 381.617188 71.355469 381.617188 68.296875 Z M 381.902344 77.578125 C 381.902344 76.714844 381.976563 75.566406 382.121094 74.589844 L 382.050781 74.589844 C 381.113281 76.570313 379.136719 77.972656 376.398438 77.972656 C 372.046875 77.972656 369.886719 74.699219 369.886719 69.589844 C 369.886719 63.542969 373.414063 59.371094 379.351563 59.371094 C 380.105469 59.371094 380.824219 59.40625 381.617188 59.515625 L 381.617188 51.3125 L 386.1875 51.3125 L 386.1875 77.578125 "/>
<path style=" stroke:none;fill-rule:nonzero;fill:rgb(0%,0%,0%);fill-opacity:1;" d="M 411.0625 63.292969 C 410.230469 63.113281 409.441406 63.007813 408.648438 63.007813 C 406.023438 63.007813 404.152344 64.660156 404.152344 69.089844 C 404.152344 72.433594 405.125 74.160156 407.210938 74.160156 C 409.621094 74.160156 411.0625 71.355469 411.0625 68.296875 Z M 411.347656 77.578125 C 411.347656 76.714844 411.421875 75.566406 411.5625 74.589844 L 411.492188 74.589844 C 410.554688 76.570313 408.578125 77.972656 405.84375 77.972656 C 401.488281 77.972656 399.332031 74.699219 399.332031 69.589844 C 399.332031 63.542969 402.855469 59.371094 408.792969 59.371094 C 409.550781 59.371094 410.269531 59.40625 411.0625 59.515625 L 411.0625 51.3125 L 415.628906 51.3125 L 415.628906 77.578125 "/>
<path style=" stroke:none;fill-rule:nonzero;fill:rgb(0%,0%,0%);fill-opacity:1;" d="M 427.269531 62.679688 C 425.363281 62.679688 424.03125 64.085938 423.78125 66.242188 L 430.363281 66.242188 C 430.4375 64.015625 429.214844 62.679688 427.269531 62.679688 M 434.789063 69.375 L 423.707031 69.375 C 423.671875 72.71875 425.328125 74.339844 428.636719 74.339844 C 430.402344 74.339844 432.308594 73.945313 433.855469 73.226563 L 434.289063 76.785156 C 432.378906 77.542969 430.113281 77.9375 427.882813 77.9375 C 422.199219 77.9375 419.03125 75.097656 419.03125 68.796875 C 419.03125 63.328125 422.054688 59.300781 427.414063 59.300781 C 432.632813 59.300781 434.933594 62.863281 434.933594 67.285156 C 434.933594 67.898438 434.898438 68.617188 434.789063 69.375 "/>
<path style=" stroke:none;fill-rule:nonzero;fill:rgb(0%,0%,0%);fill-opacity:1;" d="M 438.0625 77.578125 L 442.667969 77.578125 L 442.667969 51.3125 L 438.0625 51.3125 Z M 438.0625 77.578125 "/>
<path style=" stroke:none;fill-rule:nonzero;fill:rgb(0%,0%,0%);fill-opacity:1;" d="M 225.421875 98.496094 C 223.953125 98.496094 222.484375 98.574219 221.480469 98.734375 L 221.480469 113.804688 C 222.171875 113.882813 223.566406 113.957031 225.109375 113.957031 C 231.140625 113.957031 234.851563 110.867188 234.851563 105.996094 C 234.851563 100.972656 231.757813 98.496094 225.421875 98.496094 M 236.398438 142.792969 L 221.863281 121.226563 L 221.480469 121.226563 L 221.480469 142.792969 L 211.429688 142.792969 L 211.429688 90.613281 C 215.527344 90.382813 220.394531 90.304688 226.425781 90.304688 C 237.941406 90.304688 245.363281 94.324219 245.363281 104.992188 C 245.363281 112.726563 239.953125 118.285156 232.066406 119.527344 C 233.535156 121.457031 235.003906 123.46875 236.320313 125.246094 L 248.84375 142.792969 "/>
<path style=" stroke:none;fill-rule:nonzero;fill:rgb(0%,0%,0%);fill-opacity:1;" d="M 268.308594 111.949219 C 263.902344 111.949219 259.574219 115.351563 259.574219 123.234375 C 259.574219 131.121094 262.433594 135.140625 268.15625 135.140625 C 273.027344 135.140625 276.734375 131.199219 276.734375 123.386719 C 276.734375 115.96875 274.105469 111.949219 268.308594 111.949219 M 267.304688 143.566406 C 256.40625 143.566406 249.371094 137.921875 249.371094 124.238281 C 249.371094 112.257813 257.332031 103.597656 269.007813 103.597656 C 279.902344 103.597656 286.9375 109.632813 286.9375 122.847656 C 286.9375 134.90625 278.824219 143.566406 267.304688 143.566406 "/>
<path style=" stroke:none;fill-rule:nonzero;fill:rgb(0%,0%,0%);fill-opacity:1;" d="M 299.992188 143.566406 C 297.207031 143.566406 294.429688 143.257813 291.953125 142.867188 L 292.183594 134.753906 C 294.582031 135.371094 297.519531 135.914063 300.453125 135.914063 C 304.242188 135.914063 306.714844 134.367188 306.714844 131.816406 C 306.714844 125.011719 291.179688 128.878906 291.179688 115.8125 C 291.179688 109.089844 296.667969 103.523438 307.488281 103.523438 C 309.730469 103.523438 312.207031 103.835938 314.523438 104.21875 L 314.214844 112.027344 C 312.050781 111.410156 309.5 111.019531 307.101563 111.019531 C 303.238281 111.019531 301.382813 112.566406 301.382813 114.964844 C 301.382813 121.226563 317.152344 118.441406 317.152344 130.890625 C 317.152344 138.464844 310.507813 143.566406 299.992188 143.566406 "/>
<path style=" stroke:none;fill-rule:nonzero;fill:rgb(0%,0%,0%);fill-opacity:1;" d="M 343.8125 125.785156 C 333.378906 125.785156 331.058594 128.800781 331.058594 131.894531 C 331.058594 134.367188 332.757813 135.992188 335.621094 135.992188 C 340.488281 135.992188 343.8125 131.351563 343.8125 126.714844 Z M 344.585938 142.792969 C 344.585938 140.550781 344.664063 138.308594 344.972656 136.296875 L 344.894531 136.222656 C 343.039063 140.550781 338.324219 143.566406 332.605469 143.566406 C 325.648438 143.566406 321.628906 139.621094 321.628906 133.441406 C 321.628906 124.238281 330.75 119.371094 343.8125 119.371094 L 343.8125 117.28125 C 343.8125 113.261719 341.878906 111.179688 336.316406 111.179688 C 332.835938 111.179688 328.199219 112.335938 324.953125 114.191406 L 324.101563 105.917969 C 327.96875 104.53125 332.914063 103.523438 337.863281 103.523438 C 350.230469 103.523438 353.707031 108.546875 353.707031 116.898438 L 353.707031 132.898438 C 353.707031 135.992188 353.785156 139.621094 353.9375 142.792969 "/>
<path style=" stroke:none;fill-rule:nonzero;fill:rgb(0%,0%,0%);fill-opacity:1;" d="M 383.535156 113.261719 C 376.425781 111.792969 372.867188 116.433594 372.867188 127.101563 L 372.867188 142.792969 L 362.972656 142.792969 L 362.972656 104.371094 L 372.324219 104.371094 C 372.324219 106.308594 372.09375 109.394531 371.628906 112.105469 L 371.785156 112.105469 C 373.640625 107.234375 377.351563 102.984375 383.996094 103.523438 "/>
<path style=" stroke:none;fill-rule:nonzero;fill:rgb(0%,0%,0%);fill-opacity:1;" d="M 388.863281 104.375 L 398.753906 104.375 L 398.753906 142.792969 L 388.863281 142.792969 Z M 393.808594 99.425781 C 390.40625 99.425781 387.703125 96.71875 387.703125 93.398438 C 387.703125 90.148438 390.40625 87.445313 393.808594 87.445313 C 397.210938 87.445313 399.992188 90.074219 399.992188 93.398438 C 399.992188 96.71875 397.210938 99.425781 393.808594 99.425781 "/>
<path style=" stroke:none;fill-rule:nonzero;fill:rgb(0%,0%,0%);fill-opacity:1;" d="M 424.027344 111.949219 C 419.621094 111.949219 415.292969 115.351563 415.292969 123.234375 C 415.292969 131.121094 418.152344 135.140625 423.875 135.140625 C 428.746094 135.140625 432.453125 131.199219 432.453125 123.386719 C 432.453125 115.96875 429.824219 111.949219 424.027344 111.949219 M 423.023438 143.566406 C 412.125 143.566406 405.089844 137.921875 405.089844 124.238281 C 405.089844 112.257813 413.054688 103.597656 424.722656 103.597656 C 435.621094 103.597656 442.65625 109.632813 442.65625 122.847656 C 442.65625 134.90625 434.542969 143.566406 423.023438 143.566406 "/>
</g>
</svg>
