<?xml version="1.0" encoding="UTF-8" standalone="no"?>
<svg
   xmlns:dc="http://purl.org/dc/elements/1.1/"
   xmlns:cc="http://creativecommons.org/ns#"
   xmlns:rdf="http://www.w3.org/1999/02/22-rdf-syntax-ns#"
   xmlns:svg="http://www.w3.org/2000/svg"
   xmlns="http://www.w3.org/2000/svg"
   xmlns:sodipodi="http://sodipodi.sourceforge.net/DTD/sodipodi-0.dtd"
   xmlns:inkscape="http://www.inkscape.org/namespaces/inkscape"
   id="svg"
   version="1.1"
   viewBox="0, 0, 400,400"
   height = "100%"
   width = "100%"
   sodipodi:docname="mantedef.svg"
   inkscape:version="0.92.4 (5da689c313, 2019-01-14)">
  <metadata
     id="metadata3771">
    <rdf:RDF>
      <cc:Work
         rdf:about="">
        <dc:format>image/svg+xml</dc:format>
        <dc:type
           rdf:resource="http://purl.org/dc/dcmitype/StillImage" />
        <dc:title></dc:title>
      </cc:Work>
    </rdf:RDF>
  </metadata>
  <defs
     id="defs3769" />
  <sodipodi:namedview
     pagecolor="#ffffff"
     bordercolor="#666666"
     borderopacity="1"
     objecttolerance="10"
     gridtolerance="10"
     guidetolerance="10"
     inkscape:pageopacity="0"
     inkscape:pageshadow="2"
     inkscape:window-width="2400"
     inkscape:window-height="1271"
     id="namedview3767"
     showgrid="false"
     inkscape:zoom="2.8567114"
     inkscape:cx="392.04212"
     inkscape:cy="179.60523"
     inkscape:window-x="2391"
     inkscape:window-y="-9"
     inkscape:window-maximized="1"
     inkscape:current-layer="svgg" />
  <g
     id="svgg"
     transform="translate(-3.9603964,-12.871287)">
    <path
       id="path1"
       d="m 111.04558,175.83747 c -7.15,4.722 -12.855999,8.588 -12.678999,8.591 0.177,0.003 1.573,-0.279 3.101999,-0.627 1.53,-0.347 2.933,-0.572 3.117,-0.5 0.185,0.073 -8.194999,11.113 -18.620999,24.533 -10.426,13.42 -19.324,24.901 -19.774,25.513 -0.687,0.935 -0.188,0.725 3.119,-1.314 2.165,-1.335 11.164,-6.876 19.999,-12.313 8.835,-5.437 16.011999,-9.939 15.949999,-10.003 -0.063,-0.064 -3.038,0.618 -6.612999,1.517 -3.575,0.899 -6.551,1.581 -6.615,1.517 -0.24,-0.243 18.828999,-29.422 19.114999,-29.25 0.165,0.099 0.3,1.07 0.3,2.157 0,2.476 0.145,2.465 2.79,-0.214 1.19,-1.205 2.226,-2.128 2.302,-2.052 0.076,0.077 -1.231,5.489 -2.905,12.029 -1.674,6.539 -2.986,11.946 -2.916,12.016 0.071,0.07 3.142,-1.972 6.824,-4.538 l 6.695,-4.665 0.005,-12.3 c 0.003,-6.765 -0.114,-12.3 -0.26,-12.3 -0.146,0 -2.529,1.198 -5.296,2.662 l -5.031,2.661 2.541,-2.866 c 1.397,-1.576 2.68,-2.952 2.851,-3.057 0.396,-0.245 5.33,-5.803 5.141,-5.792 -0.077,0.005 -5.991,3.872 -13.141,8.595 m 167.6,-8.385 c 0,0.103 1.89,2.259 4.2,4.791 l 4.2,4.605 v 13.333 13.333 l 3.4,2.263 3.4,2.262 v -6.585 -6.584 l 3.7,1.336 3.7,1.337 4.742,7.47 c 2.609,4.108 4.66,7.553 4.558,7.655 -0.102,0.101 -2.757,-0.364 -5.9,-1.034 -3.143,-0.67 -5.768,-1.166 -5.833,-1.101 -0.064,0.065 4.597,3.034 10.358,6.598 5.761,3.565 14.397,8.91 19.19,11.878 4.794,2.969 8.581,5.179 8.416,4.911 -0.165,-0.267 -8.995,-11.718 -19.622,-25.445 -10.628,-13.728 -19.257,-25.026 -19.176,-25.107 0.081,-0.082 1.446,0.125 3.034,0.459 4.058,0.854 4.073,0.828 0.784,-1.327 -1.623,-1.064 -7.496,-4.927 -13.051,-8.585 -5.555,-3.657 -10.1,-6.566 -10.1,-6.463 m -146.111,18.182 -7.016,12.4 h 3.985 3.985 l 3.878,-3.263 3.879,-3.263 0.116,3.263 0.116,3.263 h 3.784 3.784 v -12.4 -12.4 h -4.747 -4.747 l -7.017,12.4 m 20.111,0 v 12.4 h 3.587 3.587 l 0.113,-4.401 0.113,-4.401 2.329,4.401 2.329,4.401 h 3.171 3.171 v -12.4 -12.4 h -3.2 -3.2 l -0.007,4.3 -0.007,4.3 -2.412,-4.3 -2.412,-4.3 h -3.581 -3.581 v 12.4 m 22,-9.2 v 3.2 h 2.8 2.8 v 9.2 9.2 h 3.4 3.4 v -9.2 -9.2 l 1.9,-0.013 c 2.066,-0.013 1.785,0.272 4.999,-5.087 l 0.78,-1.3 h -10.039 -10.04 v 3.2 m 20.4,9.2 v 12.4 h 9.2 9.2 v -3.4 -3.4 h -5.6 -5.6 v -1.2 -1.2 h 5.6 5.6 v -3.4 -3.4 h -5.6 -5.6 v -1.2 -1.2 h 5.6 5.6 v -3.2 -3.2 h -9.2 -9.2 v 12.4 m 21.6,0 v 12.4 h 3.608 3.608 l -0.219,-3.9 c -0.245,-4.385 -0.273,-4.401 2.185,1.2 l 1.185,2.7 h 3.816 c 2.099,0 3.817,-0.067 3.817,-0.149 0,-0.082 -1.456,-3.143 -3.236,-6.802 l -3.235,-6.653 2.489,-4.298 c 1.368,-2.364 2.839,-4.883 3.268,-5.598 l 0.779,-1.3 -3.132,0.002 -3.133,0.002 -2.2,4.098 -2.2,4.098 -0.114,-4.1 -0.114,-4.1 h -3.586 -3.586 v 12.4 m 26.289,0 -7.016,12.4 h 3.985 3.985 l 3.878,-3.263 3.879,-3.263 0.116,3.263 0.116,3.263 h 3.784 3.784 v -12.4 -12.4 h -4.747 -4.747 l -7.017,12.4 m 20.111,0 v 12.477 l 5.512,-0.139 c 9.706,-0.243 14.013,-4.686 13.115,-13.528 -0.801,-7.884 -4.357,-10.901 -13.127,-11.138 l -5.5,-0.149 v 12.477 m 9.578,-5.612 c 3.348,1.792 2.132,11.212 -1.448,11.212 h -0.93 v -5.8 c 0,-6.281 0.144,-6.608 2.378,-5.412 m -131.178,4.326 c 0,1.26 -0.202,1.633 -1.209,2.228 l -1.21,0.714 1.093,-2.228 c 1.297,-2.644 1.326,-2.66 1.326,-0.714 m 110.4,0 c 0,1.26 -0.202,1.633 -1.209,2.228 l -1.21,0.714 1.093,-2.228 c 1.297,-2.644 1.326,-2.66 1.326,-0.714 m 44.639,5.98 c -0.838,0.838 -2.638,-0.965 -2.63,-2.633 l 0.009,-1.861 1.365,2.193 c 0.751,1.206 1.316,2.241 1.256,2.301"
       inkscape:connector-curvature="0"
       style="fill:#ffffff;fill-rule:evenodd;stroke:none" />
    <path
       id="path3"
       d=""
       inkscape:connector-curvature="0"
       style="fill:#9c9c9c;fill-rule:evenodd;stroke:none" />
    <path
       id="path4"
       d=""
       inkscape:connector-curvature="0"
       style="fill:#bcbcbc;fill-rule:evenodd;stroke:none" />
  </g>
</svg>
