<svg id="svg" version="1.1" xmlns="http://www.w3.org/2000/svg" xmlns:xlink="http://www.w3.org/1999/xlink" width="400" height="225" viewBox="0, 0, 400,225"><g id="svgg"><path id="path0" d="M153.171 95.268 C 152.804 95.572,150.985 96.813,149.128 98.025 C 141.298 103.134,140.464 103.756,142.284 103.121 C 143.211 102.798,144.288 102.798,144.288 103.122 C 144.288 103.343,141.530 106.949,132.794 118.149 C 131.502 119.806,129.389 122.541,128.099 124.227 C 126.810 125.913,125.156 128.036,124.424 128.945 C 122.674 131.117,122.820 131.132,126.037 129.115 C 127.533 128.177,129.846 126.746,131.176 125.935 C 132.507 125.125,134.558 123.860,135.734 123.124 C 136.911 122.388,139.166 121.009,140.747 120.060 C 144.184 117.995,144.184 117.969,140.727 118.842 C 137.976 119.536,137.077 119.664,137.095 119.358 C 137.113 119.048,137.941 117.741,145.950 105.386 C 147.475 103.034,147.942 102.708,148.076 103.900 C 148.202 105.025,148.500 105.054,149.531 104.041 C 150.542 103.050,151.156 102.811,150.955 103.489 C 150.890 103.706,150.428 105.554,149.927 107.597 C 149.425 109.640,148.762 112.268,148.452 113.438 C 147.693 116.309,147.728 116.642,148.696 115.740 C 148.939 115.513,149.693 114.958,150.371 114.506 C 151.691 113.626,152.893 112.785,154.249 111.793 L 155.093 111.176 155.093 104.547 C 155.093 96.813,155.397 97.376,152.138 99.080 C 148.950 100.748,149.005 100.335,152.431 96.874 C 154.005 95.284,154.533 94.139,153.171 95.268 M243.601 95.611 C 247.330 99.493,246.933 98.167,246.933 106.730 L 246.933 114.094 248.542 115.228 C 250.583 116.666,250.535 116.723,250.535 112.892 C 250.535 110.508,250.608 109.635,250.816 109.564 C 251.196 109.434,254.538 110.600,254.918 110.996 C 255.491 111.591,259.989 118.865,259.989 119.196 C 259.989 119.697,257.757 119.422,255.076 118.592 C 253.471 118.095,253.936 118.538,256.990 120.413 C 257.507 120.731,258.909 121.598,260.106 122.341 C 261.303 123.084,262.956 124.107,263.780 124.614 C 264.604 125.122,267.001 126.602,269.105 127.903 C 274.686 131.353,274.698 131.357,272.821 129.028 C 272.203 128.261,270.869 126.544,269.855 125.212 C 268.842 123.881,267.139 121.677,266.072 120.315 C 262.138 115.294,259.176 111.481,257.592 109.398 C 256.698 108.222,255.402 106.550,254.713 105.684 C 252.548 102.963,252.491 102.298,254.477 102.972 C 256.807 103.763,256.600 103.583,250.872 99.822 C 242.362 94.234,242.174 94.125,243.601 95.611 M163.340 98.424 C 160.313 103.684,156.443 110.613,156.443 110.773 C 156.443 110.883,157.337 110.974,158.428 110.974 L 160.413 110.974 162.377 109.398 C 164.857 107.408,164.958 107.406,165.043 109.342 L 165.110 110.861 167.079 110.926 L 169.049 110.991 169.049 104.229 L 169.049 97.468 166.470 97.468 L 163.891 97.468 163.340 98.424 M171.402 97.752 C 171.342 97.908,171.320 100.922,171.353 104.449 L 171.412 110.861 173.213 110.861 L 175.014 110.861 175.078 108.554 C 175.137 106.432,175.178 106.246,175.585 106.246 C 175.879 106.246,176.027 106.399,176.027 106.703 C 176.027 107.157,177.397 110.117,177.873 110.691 C 178.049 110.903,178.595 110.973,179.720 110.926 L 181.317 110.861 181.317 104.221 L 181.317 97.580 179.741 97.580 L 178.165 97.580 178.100 99.550 C 178.023 101.908,177.725 102.093,176.812 100.348 C 176.475 99.704,175.957 98.792,175.660 98.322 L 175.121 97.468 173.316 97.468 C 172.070 97.468,171.477 97.556,171.402 97.752 M183.592 97.824 C 183.517 98.020,183.455 98.724,183.455 99.390 L 183.455 100.599 185.087 100.665 L 186.719 100.732 186.832 105.796 L 186.944 110.861 188.633 110.861 L 190.321 110.861 190.382 105.919 C 190.448 100.537,190.423 100.628,191.788 100.622 C 192.582 100.619,193.189 99.962,194.235 97.974 L 194.501 97.468 189.115 97.468 C 184.411 97.468,183.711 97.513,183.592 97.824 M195.312 97.786 C 195.136 98.242,195.118 110.150,195.292 110.603 C 195.417 110.931,195.996 110.974,200.362 110.974 L 205.290 110.974 205.290 109.292 L 205.290 107.610 202.195 107.547 L 199.100 107.485 199.030 106.761 C 198.942 105.859,199.099 105.814,202.589 105.739 L 205.177 105.684 205.177 104.108 L 205.177 102.532 202.589 102.477 C 199.099 102.402,198.942 102.358,199.030 101.455 L 199.100 100.732 202.138 100.619 L 205.177 100.506 205.177 99.043 L 205.177 97.580 200.307 97.520 C 196.219 97.469,195.417 97.511,195.312 97.786 M207.421 97.742 C 207.359 97.904,207.335 100.922,207.368 104.449 L 207.428 110.861 209.229 110.861 L 211.030 110.861 211.030 109.173 C 211.030 108.244,211.106 107.459,211.199 107.428 C 211.636 107.283,211.794 107.426,211.940 108.104 C 212.027 108.506,212.341 109.316,212.637 109.904 L 213.176 110.974 215.085 110.974 C 216.136 110.974,216.995 110.895,216.995 110.799 C 216.995 110.703,216.233 109.068,215.301 107.166 C 214.370 105.264,213.660 103.545,213.724 103.345 C 213.788 103.146,214.498 101.868,215.303 100.506 C 217.130 97.414,217.130 97.468,215.309 97.468 L 213.848 97.468 212.831 99.494 C 211.503 102.137,211.181 102.148,211.095 99.550 L 211.030 97.580 209.282 97.514 C 208.003 97.466,207.504 97.527,207.421 97.742 M225.569 98.114 C 225.310 98.478,225.098 98.835,225.098 98.908 C 225.098 99.060,219.343 109.277,218.877 109.954 C 218.257 110.853,218.456 110.974,220.540 110.966 L 222.510 110.959 224.626 109.267 C 227.007 107.364,227.074 107.368,227.169 109.398 L 227.237 110.861 229.150 110.861 L 231.064 110.861 231.064 104.221 L 231.064 97.580 228.552 97.517 L 226.040 97.453 225.569 98.114 M233.529 97.752 C 233.469 97.908,233.447 100.922,233.480 104.449 L 233.540 110.861 236.353 110.925 C 239.692 111.002,240.634 110.734,241.879 109.356 C 245.063 105.832,243.828 99.077,239.753 97.722 C 238.660 97.359,233.671 97.383,233.529 97.752 M238.902 101.204 C 240.768 102.934,239.952 107.853,237.848 107.553 C 237.385 107.487,237.364 107.361,237.304 104.238 C 237.229 100.389,237.490 99.894,238.902 101.204 M165.177 103.574 C 165.256 104.234,164.507 105.015,163.986 104.815 C 163.675 104.696,163.689 104.570,164.102 103.760 C 164.610 102.765,165.070 102.686,165.177 103.574 M227.265 103.464 C 227.382 103.929,227.297 104.147,226.875 104.472 C 225.905 105.218,225.518 104.978,226.056 103.965 C 226.750 102.658,227.033 102.541,227.265 103.464 M251.895 106.045 C 252.235 106.867,252.096 107.029,251.280 106.759 C 250.632 106.544,250.340 105.729,250.635 104.959 C 250.814 104.493,251.496 105.081,251.895 106.045 " stroke="none" fill="#111111" fill-rule="evenodd"></path><path id="path1" d="M0.000 112.549 L 0.000 225.098 200.000 225.098 L 400.000 225.098 400.000 112.549 L 400.000 0.000 200.000 0.000 L 0.000 0.000 0.000 112.549 M154.592 94.728 C 154.642 94.877,153.990 95.731,153.143 96.627 C 151.203 98.680,150.154 99.887,150.591 99.565 C 150.978 99.280,152.204 98.588,153.816 97.745 C 154.793 97.235,154.959 97.205,155.180 97.507 C 155.377 97.776,155.508 109.209,155.338 111.336 C 155.327 111.474,154.736 111.986,154.024 112.476 C 151.892 113.941,150.314 115.045,149.210 115.845 C 147.225 117.284,147.100 116.958,148.138 113.044 C 148.522 111.596,148.937 110.006,149.059 109.510 C 150.053 105.489,150.381 104.216,150.515 103.852 C 150.600 103.621,150.139 103.924,149.486 104.528 C 148.213 105.707,147.876 105.697,147.841 104.477 C 147.806 103.234,147.879 103.143,143.719 109.623 C 142.741 111.147,140.580 114.481,138.495 117.686 C 137.479 119.246,137.435 119.235,141.058 118.322 C 146.621 116.920,146.603 116.936,133.596 124.940 C 120.603 132.936,120.829 132.864,124.819 127.712 C 128.899 122.443,135.616 113.788,139.812 108.392 C 141.926 105.673,143.538 103.408,143.393 103.359 C 143.247 103.311,142.675 103.398,142.120 103.554 C 140.955 103.880,140.316 103.585,140.921 103.000 C 141.314 102.621,150.083 96.792,150.261 96.792 C 150.329 96.792,150.951 96.375,151.642 95.864 C 153.692 94.349,154.378 94.085,154.592 94.728 M243.475 94.654 C 243.546 94.840,243.748 94.992,243.923 94.992 C 244.303 94.992,244.578 95.163,251.335 99.617 C 254.238 101.530,256.612 103.185,256.612 103.296 C 256.612 103.848,254.589 103.753,254.112 103.179 C 253.808 102.812,253.461 102.774,253.461 103.107 C 253.461 103.329,254.589 104.817,261.114 113.206 C 262.538 115.037,264.969 118.179,266.517 120.190 C 268.064 122.201,270.470 125.304,271.863 127.086 C 276.208 132.646,275.846 132.555,263.667 125.020 C 251.455 117.465,251.449 117.460,256.490 118.517 C 259.840 119.219,259.731 119.254,258.803 117.785 C 258.403 117.152,257.569 115.808,256.950 114.798 C 254.860 111.387,254.666 111.189,252.729 110.487 C 251.511 110.046,250.976 109.939,250.956 110.133 C 250.939 110.286,250.902 111.626,250.873 113.112 C 250.802 116.776,250.797 116.826,250.491 116.826 C 249.944 116.826,246.751 114.540,246.621 114.055 C 246.548 113.784,246.488 110.361,246.486 106.448 L 246.483 99.334 245.090 97.782 C 244.325 96.928,243.402 95.909,243.039 95.517 C 242.386 94.812,242.376 94.316,243.014 94.316 C 243.196 94.316,243.404 94.468,243.475 94.654 M169.229 97.288 C 169.427 97.485,169.499 99.338,169.499 104.221 C 169.499 111.986,169.695 111.424,166.991 111.424 C 164.727 111.424,164.814 111.492,164.749 109.666 C 164.686 107.944,164.756 107.939,162.440 109.848 L 160.528 111.424 158.285 111.424 C 155.403 111.424,155.418 111.518,157.665 107.580 C 158.683 105.794,160.404 102.764,161.489 100.845 C 162.574 98.927,163.579 97.282,163.723 97.191 C 164.173 96.904,168.929 96.988,169.229 97.288 M175.447 97.370 C 175.641 97.564,176.230 98.450,176.757 99.339 L 177.715 100.957 177.828 99.043 L 177.940 97.130 179.607 97.063 C 181.910 96.971,181.764 96.491,181.789 104.233 C 181.814 112.011,181.988 111.471,179.481 111.377 L 177.715 111.311 176.766 109.510 C 176.244 108.520,175.814 107.482,175.810 107.203 C 175.805 106.925,175.696 106.697,175.567 106.697 C 175.417 106.697,175.353 107.446,175.391 108.779 C 175.424 109.924,175.371 110.988,175.275 111.142 C 175.034 111.530,171.394 111.532,171.154 111.144 C 170.920 110.766,170.876 98.162,171.106 97.524 C 171.342 96.871,174.824 96.747,175.447 97.370 M205.430 97.287 C 205.711 97.741,205.775 100.133,205.519 100.611 C 205.292 101.036,205.061 101.069,202.356 101.069 C 199.587 101.069,199.437 101.092,199.437 101.519 C 199.437 101.947,199.587 101.970,202.476 101.970 C 204.744 101.970,205.521 102.041,205.540 102.251 C 205.897 106.308,205.946 106.246,202.369 106.246 C 199.587 106.246,199.437 106.270,199.437 106.697 C 199.437 107.124,199.587 107.147,202.336 107.147 C 204.386 107.147,205.300 107.229,205.458 107.428 C 205.738 107.780,205.765 110.202,205.497 110.907 L 205.298 111.432 200.173 111.372 L 195.048 111.311 194.935 104.471 C 194.825 97.769,194.815 97.646,194.427 98.393 C 193.191 100.774,192.916 101.061,191.868 101.066 C 190.680 101.072,190.633 101.278,190.672 106.359 C 190.714 111.737,190.832 111.465,188.499 111.378 L 186.719 111.311 186.596 106.246 C 186.528 103.461,186.452 101.161,186.427 101.136 C 186.402 101.110,185.698 101.060,184.862 101.023 L 183.343 100.957 183.276 99.175 C 183.229 97.902,183.293 97.342,183.501 97.211 C 183.988 96.905,205.239 96.979,205.430 97.287 M211.298 97.299 C 211.484 97.587,211.515 97.867,211.579 99.831 L 211.615 100.957 212.485 99.256 C 213.624 97.029,213.690 96.983,215.680 97.063 C 217.797 97.149,217.755 97.527,215.184 101.519 C 215.065 101.705,214.754 102.268,214.494 102.770 L 214.022 103.682 215.637 106.891 C 216.525 108.655,217.270 110.372,217.292 110.705 L 217.333 111.311 215.132 111.376 L 212.932 111.440 212.262 110.025 C 211.894 109.247,211.593 108.382,211.593 108.104 C 211.593 107.825,211.480 107.597,211.343 107.597 C 211.183 107.597,211.150 107.819,211.250 108.216 C 211.513 109.255,211.554 110.614,211.334 111.030 C 211.090 111.494,207.466 111.623,207.190 111.178 C 207.001 110.871,207.013 97.550,207.204 97.242 C 207.412 96.904,211.075 96.955,211.298 97.299 M231.393 97.453 C 231.538 97.723,231.626 100.286,231.626 104.221 C 231.626 111.891,231.787 111.424,229.156 111.424 C 226.850 111.424,226.942 111.494,226.876 109.666 C 226.814 107.944,226.883 107.939,224.567 109.848 L 222.655 111.424 220.401 111.424 C 217.560 111.424,217.578 111.477,219.345 108.400 C 220.157 106.986,220.822 105.768,220.822 105.695 C 220.822 105.622,221.059 105.184,221.349 104.723 C 221.638 104.261,222.133 103.427,222.448 102.870 C 224.804 98.704,225.625 97.334,225.851 97.190 C 226.499 96.778,231.150 96.999,231.393 97.453 M239.983 97.365 C 245.264 99.227,245.556 108.620,240.405 110.955 C 238.966 111.607,233.566 111.654,233.225 111.017 C 232.966 110.532,233.014 97.716,233.277 97.299 C 233.548 96.868,238.717 96.918,239.983 97.365 M237.670 101.238 C 237.339 102.899,237.589 107.147,238.018 107.147 C 239.541 107.147,240.107 102.992,238.777 101.576 C 238.310 101.079,237.737 100.904,237.670 101.238 M164.459 103.676 C 164.263 104.185,164.282 104.222,164.660 104.077 C 164.845 104.006,164.997 103.806,164.997 103.634 C 164.997 103.207,164.627 103.236,164.459 103.676 M226.552 103.785 C 226.471 103.917,226.458 104.080,226.524 104.146 C 226.685 104.307,227.124 104.023,227.124 103.757 C 227.124 103.469,226.736 103.489,226.552 103.785 M250.985 105.796 C 250.985 106.044,251.086 106.246,251.210 106.246 C 251.334 106.246,251.435 106.044,251.435 105.796 C 251.435 105.549,251.334 105.346,251.210 105.346 C 251.086 105.346,250.985 105.549,250.985 105.796 " stroke="none" fill="#fbfbfb" fill-rule="evenodd"></path><path id="path2" d="M154.162 94.615 C 154.432 94.943,154.285 95.181,152.924 96.621 C 150.152 99.553,150.038 99.695,150.508 99.616 C 150.739 99.578,150.906 99.441,150.878 99.311 C 150.850 99.182,151.692 98.152,152.750 97.022 C 154.614 95.029,154.857 94.574,154.178 94.350 C 153.903 94.259,153.901 94.299,154.162 94.615 M242.529 94.565 C 242.444 94.702,242.714 95.133,243.129 95.522 L 243.884 96.230 243.270 95.542 C 242.541 94.726,242.492 94.446,243.107 94.607 C 243.354 94.671,243.500 94.633,243.431 94.520 C 243.256 94.238,242.715 94.265,242.529 94.565 M152.167 95.465 C 150.528 96.662,150.188 97.052,151.604 96.111 C 153.123 95.102,153.844 94.539,153.604 94.551 C 153.494 94.557,152.847 94.968,152.167 95.465 M246.947 96.961 C 255.420 102.475,256.859 103.545,255.806 103.545 C 255.589 103.545,255.472 103.605,255.545 103.678 C 255.733 103.866,256.612 103.558,256.612 103.305 C 256.612 103.044,244.474 94.992,244.081 94.992 C 243.993 94.992,245.283 95.878,246.947 96.961 M245.107 97.778 L 246.477 99.327 246.539 106.670 L 246.602 114.012 246.655 106.666 L 246.708 99.320 245.223 97.775 L 243.737 96.230 245.107 97.778 M145.593 99.790 C 140.550 103.166,140.490 103.214,140.857 103.581 C 141.052 103.775,141.304 103.777,141.859 103.589 L 142.600 103.337 141.868 103.459 C 140.360 103.711,141.222 102.933,145.756 99.951 C 148.292 98.284,150.366 96.891,150.366 96.856 C 150.366 96.639,149.571 97.128,145.593 99.790 M163.723 97.191 C 163.579 97.282,162.574 98.927,161.489 100.845 C 160.404 102.764,158.683 105.794,157.665 107.580 C 155.418 111.519,155.402 111.424,158.292 111.424 L 160.542 111.424 162.263 109.997 C 163.210 109.212,164.187 108.455,164.434 108.315 C 164.682 108.175,164.765 108.058,164.618 108.054 C 164.472 108.050,163.491 108.756,162.440 109.623 L 160.528 111.199 158.373 111.199 C 155.700 111.199,155.719 111.379,157.983 107.419 C 158.953 105.722,160.585 102.842,161.610 101.019 C 163.913 96.923,163.523 97.214,166.605 97.291 L 169.162 97.355 169.162 104.221 L 169.162 111.086 167.155 111.152 C 165.709 111.199,165.091 111.136,164.943 110.927 C 164.785 110.703,164.759 110.714,164.829 110.974 C 164.948 111.409,168.694 111.587,169.184 111.180 C 169.611 110.825,169.654 97.712,169.229 97.288 C 168.929 96.988,164.173 96.904,163.723 97.191 M171.062 97.614 C 170.937 97.943,170.874 98.322,170.921 98.458 C 170.969 98.594,171.081 98.376,171.172 97.974 L 171.336 97.243 173.160 97.243 C 174.734 97.243,175.064 97.312,175.555 97.749 C 176.032 98.172,176.072 98.182,175.795 97.805 C 175.256 97.071,175.098 97.024,173.151 97.021 C 171.342 97.018,171.282 97.035,171.062 97.614 M177.978 97.168 C 177.895 97.250,177.829 97.427,177.831 97.561 C 177.833 97.696,177.920 97.670,178.025 97.505 C 178.164 97.286,178.677 97.225,179.914 97.280 C 180.849 97.321,181.566 97.279,181.508 97.186 C 181.378 96.977,178.185 96.961,177.978 97.168 M189.139 97.188 C 192.203 97.222,194.709 97.325,194.707 97.415 C 194.706 97.506,194.451 98.025,194.140 98.569 C 193.829 99.112,193.718 99.438,193.893 99.293 C 194.068 99.147,194.336 98.729,194.487 98.363 C 194.638 97.998,194.852 97.754,194.961 97.821 C 195.071 97.889,195.160 97.783,195.160 97.585 C 195.160 97.265,195.720 97.233,200.316 97.291 C 203.152 97.326,205.426 97.281,205.370 97.190 C 205.314 97.099,200.385 97.048,194.418 97.075 C 188.450 97.102,186.075 97.153,189.139 97.188 M207.194 97.258 C 207.112 97.390,207.106 97.558,207.181 97.633 C 207.255 97.707,207.316 97.650,207.316 97.505 C 207.316 97.035,211.070 97.157,211.349 97.636 C 211.476 97.853,211.582 97.924,211.586 97.794 C 211.607 97.069,207.612 96.581,207.194 97.258 M213.576 97.403 C 213.382 97.624,213.053 98.160,212.847 98.593 C 212.428 99.472,212.844 99.010,213.439 97.935 C 213.838 97.214,216.982 96.838,217.297 97.473 C 217.360 97.600,217.386 97.575,217.354 97.417 C 217.254 96.918,214.012 96.906,213.576 97.403 M225.676 97.373 C 225.480 97.568,225.212 97.948,225.079 98.217 C 224.945 98.487,225.104 98.379,225.434 97.974 L 226.032 97.243 228.580 97.243 C 231.709 97.243,231.402 96.474,231.398 104.295 C 231.394 111.793,231.584 111.253,228.979 111.159 C 227.858 111.119,226.988 111.162,227.046 111.255 C 227.307 111.674,231.153 111.438,231.393 110.988 C 231.538 110.718,231.626 108.155,231.626 104.221 C 231.626 100.286,231.538 97.723,231.393 97.453 C 231.075 96.857,226.259 96.790,225.676 97.373 M233.305 97.258 C 233.224 97.390,233.218 97.558,233.292 97.633 C 233.366 97.707,233.427 97.650,233.427 97.505 C 233.427 97.151,238.580 97.150,239.762 97.504 C 241.070 97.896,242.400 99.163,243.136 100.719 C 243.797 102.116,244.040 102.124,243.457 100.729 C 242.933 99.474,241.186 97.771,240.011 97.371 C 238.782 96.952,233.549 96.864,233.305 97.258 M153.628 97.831 C 151.960 98.705,151.828 98.979,153.470 98.159 C 154.249 97.770,154.999 97.522,155.137 97.607 C 155.289 97.701,155.324 97.660,155.227 97.502 C 155.005 97.143,154.902 97.164,153.628 97.831 M216.687 98.649 L 216.282 99.381 216.746 98.818 C 217.158 98.319,217.340 97.918,217.156 97.918 C 217.121 97.918,216.910 98.247,216.687 98.649 M176.365 99.043 C 176.557 99.415,176.765 99.719,176.826 99.719 C 176.888 99.719,176.782 99.415,176.590 99.043 C 176.398 98.672,176.190 98.368,176.128 98.368 C 176.066 98.368,176.173 98.672,176.365 99.043 M205.572 99.606 C 205.574 100.101,205.620 100.277,205.674 99.997 C 205.728 99.717,205.726 99.312,205.670 99.097 C 205.613 98.882,205.569 99.111,205.572 99.606 M211.403 99.887 C 211.383 100.537,211.466 101.069,211.587 101.069 C 211.831 101.069,212.583 99.734,212.427 99.578 C 212.373 99.524,212.188 99.812,212.017 100.218 L 211.705 100.957 211.572 99.831 L 211.438 98.706 211.403 99.887 M224.244 99.734 C 223.964 100.221,223.780 100.619,223.835 100.619 C 223.990 100.619,224.936 99.031,224.839 98.934 C 224.792 98.887,224.524 99.247,224.244 99.734 M215.757 100.169 C 215.565 100.540,215.458 100.844,215.520 100.844 C 215.582 100.844,215.790 100.540,215.982 100.169 C 216.174 99.797,216.281 99.494,216.219 99.494 C 216.157 99.494,215.949 99.797,215.757 100.169 M193.051 100.268 C 192.782 100.680,192.454 100.835,191.749 100.887 C 191.152 100.931,190.769 101.080,190.704 101.294 C 190.622 101.567,190.660 101.578,190.900 101.351 C 191.064 101.196,191.529 101.069,191.933 101.069 C 192.616 101.069,193.585 100.384,193.585 99.901 C 193.585 99.588,193.425 99.698,193.051 100.268 M177.257 100.563 C 177.454 100.965,177.662 101.294,177.721 101.294 C 177.945 101.294,177.801 100.936,177.359 100.394 L 176.900 99.831 177.257 100.563 M183.287 100.619 C 183.354 100.865,183.771 100.975,184.818 101.025 C 185.610 101.063,186.344 101.215,186.449 101.363 C 186.584 101.552,186.614 101.532,186.550 101.294 C 186.483 101.049,186.066 100.938,185.019 100.888 C 184.227 100.851,183.493 100.699,183.388 100.551 C 183.253 100.361,183.223 100.382,183.287 100.619 M181.722 101.745 C 181.722 102.425,181.764 102.704,181.816 102.364 C 181.867 102.023,181.867 101.466,181.816 101.125 C 181.764 100.785,181.722 101.064,181.722 101.745 M202.364 100.834 L 199.325 100.957 199.325 101.519 L 199.325 102.082 202.420 102.195 C 204.123 102.257,205.516 102.231,205.515 102.138 C 205.515 102.046,204.147 101.970,202.476 101.970 C 199.587 101.970,199.437 101.947,199.437 101.519 C 199.437 101.092,199.587 101.069,202.350 101.069 C 204.049 101.069,205.321 100.975,205.402 100.844 C 205.479 100.720,205.510 100.640,205.472 100.665 C 205.434 100.691,204.035 100.767,202.364 100.834 M238.773 101.527 C 239.044 101.840,239.369 102.499,239.495 102.990 L 239.723 103.883 239.621 102.995 C 239.553 102.403,239.312 101.915,238.899 101.532 L 238.279 100.957 238.773 101.527 M222.986 101.849 C 222.786 102.154,222.622 102.456,222.622 102.520 C 222.622 102.585,222.236 103.272,221.764 104.048 C 220.923 105.428,220.526 106.246,220.695 106.246 C 220.742 106.246,221.133 105.613,221.563 104.840 C 221.994 104.066,222.620 102.952,222.954 102.364 C 223.590 101.244,223.612 100.894,222.986 101.849 M253.252 103.051 C 253.243 103.212,254.375 104.814,255.768 106.611 C 257.161 108.409,259.465 111.381,260.889 113.216 C 262.313 115.051,264.744 118.194,266.292 120.199 C 267.839 122.205,270.245 125.304,271.638 127.086 C 275.757 132.357,275.999 132.425,263.764 124.849 C 253.896 118.737,253.284 118.312,254.067 118.109 C 254.397 118.024,254.380 117.999,253.981 117.978 C 253.429 117.949,253.187 118.192,253.419 118.543 C 253.750 119.043,273.779 131.258,274.078 131.143 C 274.701 130.904,274.361 130.282,271.863 127.086 C 270.470 125.304,268.064 122.201,266.517 120.190 C 264.969 118.179,262.538 115.038,261.114 113.208 C 255.152 105.547,253.565 103.467,253.420 103.122 C 253.325 102.895,253.261 102.868,253.252 103.051 M254.107 103.151 C 254.277 103.368,254.632 103.534,254.895 103.519 C 255.350 103.494,255.352 103.488,254.924 103.382 C 254.676 103.322,254.322 103.156,254.136 103.015 C 253.843 102.791,253.839 102.809,254.107 103.151 M143.132 103.289 C 143.632 103.429,143.431 103.738,139.815 108.388 C 135.617 113.786,128.902 122.440,124.819 127.712 C 120.829 132.864,120.603 132.936,133.596 124.940 C 144.520 118.217,144.734 118.075,144.391 117.751 C 144.178 117.550,138.529 118.795,138.733 118.999 C 138.787 119.054,139.871 118.835,141.140 118.513 C 145.234 117.476,144.980 117.684,133.641 124.670 C 127.744 128.303,122.806 131.237,122.667 131.191 C 122.446 131.117,124.146 128.823,129.045 122.585 C 129.815 121.605,130.850 120.277,131.345 119.634 C 131.840 118.992,132.708 117.869,133.273 117.140 C 133.838 116.410,134.961 114.952,135.768 113.900 C 136.575 112.847,138.721 110.076,140.536 107.742 C 144.100 103.160,144.144 103.084,143.219 103.118 C 142.624 103.139,142.621 103.146,143.132 103.289 M164.323 103.543 C 163.935 104.269,164.106 104.868,164.547 104.325 C 164.817 103.992,164.821 103.948,164.565 104.102 C 164.322 104.248,164.282 104.200,164.396 103.901 C 164.479 103.685,164.547 103.466,164.547 103.414 C 164.547 103.160,164.978 103.364,165.070 103.662 C 165.151 103.922,165.168 103.913,165.143 103.625 C 165.093 103.053,164.611 103.005,164.323 103.543 M149.465 104.333 C 148.919 104.890,148.522 105.346,148.584 105.346 C 148.646 105.346,149.144 104.890,149.690 104.333 C 150.237 103.776,150.634 103.320,150.572 103.320 C 150.510 103.320,150.012 103.776,149.465 104.333 M226.458 103.647 C 225.962 104.245,226.250 104.802,226.797 104.303 C 227.051 104.072,227.124 103.973,226.961 104.084 C 226.476 104.411,226.298 103.988,226.774 103.639 C 227.014 103.464,227.102 103.320,226.970 103.320 C 226.838 103.320,226.607 103.467,226.458 103.647 M146.814 104.504 C 146.532 105.029,146.481 105.208,146.701 104.901 C 146.922 104.594,147.279 104.163,147.496 103.944 C 147.751 103.686,147.791 103.546,147.608 103.547 C 147.454 103.548,147.096 103.978,146.814 104.504 M233.034 104.333 C 233.036 104.828,233.082 105.004,233.136 104.724 C 233.190 104.444,233.188 104.039,233.132 103.824 C 233.075 103.609,233.031 103.838,233.034 104.333 M150.159 105.027 C 150.014 105.604,149.938 106.118,149.989 106.170 C 150.041 106.222,150.202 105.792,150.347 105.215 C 150.492 104.638,150.569 104.124,150.517 104.072 C 150.466 104.020,150.305 104.450,150.159 105.027 M147.837 104.793 C 147.895 105.101,148.018 105.399,148.109 105.455 C 148.200 105.511,148.227 105.306,148.168 104.998 C 148.109 104.691,147.986 104.393,147.895 104.337 C 147.804 104.280,147.778 104.486,147.837 104.793 M239.539 104.709 C 239.520 105.039,239.446 105.495,239.375 105.722 C 239.253 106.111,239.260 106.112,239.502 105.734 C 239.643 105.514,239.717 105.059,239.665 104.721 L 239.572 104.108 239.539 104.709 M214.519 104.982 C 214.519 105.224,215.189 106.472,215.318 106.472 C 215.380 106.472,215.263 106.142,215.059 105.740 C 214.641 104.918,214.519 104.747,214.519 104.982 M250.801 105.738 C 250.893 106.533,251.673 106.761,251.634 105.982 C 251.615 105.600,251.580 105.565,251.505 105.853 C 251.344 106.468,250.919 106.314,251.040 105.684 C 251.099 105.374,251.053 105.121,250.939 105.121 C 250.824 105.121,250.762 105.399,250.801 105.738 M145.714 106.190 C 145.502 106.531,145.221 106.955,145.089 107.134 C 144.916 107.370,144.921 107.416,145.110 107.303 C 145.383 107.139,146.369 105.571,146.199 105.571 C 146.144 105.571,145.926 105.850,145.714 106.190 M205.290 105.752 C 205.290 105.928,204.349 106.028,202.307 106.071 L 199.325 106.134 199.325 106.697 L 199.325 107.259 202.354 107.372 C 205.353 107.483,205.385 107.490,205.539 108.047 C 205.670 108.518,205.699 108.535,205.718 108.149 C 205.760 107.271,205.340 107.147,202.319 107.147 C 199.587 107.147,199.437 107.123,199.437 106.697 C 199.437 106.270,199.587 106.246,202.350 106.246 C 205.027 106.246,205.871 106.078,205.425 105.631 C 205.351 105.557,205.290 105.611,205.290 105.752 M149.578 107.147 C 149.492 107.536,149.469 107.901,149.527 107.959 C 149.584 108.016,149.696 107.739,149.775 107.344 C 149.963 106.406,149.781 106.224,149.578 107.147 M175.248 106.682 C 175.161 106.823,175.243 106.863,175.453 106.783 C 175.706 106.685,175.804 106.794,175.810 107.179 C 175.814 107.471,176.244 108.520,176.766 109.510 L 177.715 111.311 179.538 111.376 C 181.072 111.431,181.408 111.377,181.665 111.038 C 181.926 110.695,181.924 110.677,181.655 110.917 C 181.460 111.091,180.670 111.199,179.586 111.199 L 177.833 111.199 177.007 109.567 C 176.552 108.669,176.118 107.638,176.042 107.276 C 175.896 106.585,175.494 106.284,175.248 106.682 M220.034 107.147 C 219.842 107.518,219.735 107.822,219.797 107.822 C 219.859 107.822,220.067 107.518,220.259 107.147 C 220.451 106.775,220.557 106.472,220.496 106.472 C 220.434 106.472,220.226 106.775,220.034 107.147 M215.420 106.764 C 215.419 107.075,216.122 108.319,216.236 108.206 C 216.295 108.147,216.136 107.757,215.882 107.341 C 215.629 106.925,215.421 106.665,215.420 106.764 M233.054 108.385 C 233.055 109.375,233.094 109.753,233.142 109.223 C 233.190 108.694,233.189 107.883,233.141 107.422 C 233.092 106.961,233.053 107.394,233.054 108.385 M243.469 107.259 C 242.833 110.024,240.564 111.252,236.271 111.155 C 234.606 111.117,233.291 111.162,233.349 111.255 C 233.638 111.720,239.379 111.426,240.518 110.887 C 242.144 110.119,244.030 107.755,243.723 106.870 C 243.669 106.713,243.554 106.888,243.469 107.259 M143.826 109.116 C 141.612 112.567,140.369 114.479,140.169 114.744 C 140.052 114.899,140.016 115.025,140.088 115.025 C 140.215 115.025,140.707 114.296,143.428 110.073 C 144.922 107.755,145.015 107.597,144.896 107.597 C 144.844 107.597,144.362 108.281,143.826 109.116 M170.911 108.948 C 170.911 109.741,170.952 109.850,171.098 109.454 C 171.201 109.175,171.201 108.720,171.098 108.442 C 170.952 108.045,170.911 108.154,170.911 108.948 M218.709 109.510 C 217.625 111.362,217.680 111.424,220.408 111.424 L 222.669 111.424 224.390 109.997 C 225.337 109.212,226.314 108.455,226.562 108.315 C 226.809 108.175,226.879 108.058,226.717 108.054 C 226.555 108.050,225.580 108.756,224.551 109.623 L 222.680 111.199 220.526 111.199 C 217.949 111.199,217.931 111.180,218.929 109.523 C 219.362 108.805,219.680 108.181,219.637 108.138 C 219.593 108.095,219.176 108.712,218.709 109.510 M216.339 108.610 C 216.339 108.734,216.533 109.190,216.770 109.623 C 217.007 110.056,217.201 110.310,217.201 110.186 C 217.201 110.062,217.007 109.606,216.770 109.173 C 216.533 108.739,216.339 108.486,216.339 108.610 M211.823 109.011 C 211.820 109.108,212.074 109.694,212.388 110.314 L 212.959 111.440 215.143 111.376 C 217.042 111.320,217.332 111.259,217.363 110.913 C 217.390 110.618,217.371 110.606,217.292 110.865 C 217.202 111.155,216.829 111.204,215.120 111.151 L 213.056 111.086 212.442 109.961 C 212.104 109.342,211.826 108.914,211.823 109.011 M250.854 109.877 C 250.777 110.001,250.775 110.164,250.850 110.238 C 250.924 110.312,250.985 110.257,250.985 110.116 C 250.985 109.756,254.103 110.893,254.793 111.504 L 255.338 111.986 254.973 111.445 C 254.549 110.816,251.088 109.499,250.854 109.877 M148.467 111.663 C 148.254 112.420,148.122 113.082,148.173 113.133 C 148.224 113.184,148.438 112.605,148.649 111.846 C 148.860 111.087,148.992 110.426,148.943 110.376 C 148.893 110.327,148.679 110.906,148.467 111.663 M171.132 110.974 C 171.233 111.346,174.809 111.605,175.152 111.265 C 175.251 111.166,174.460 111.119,173.396 111.160 C 171.975 111.214,171.405 111.154,171.251 110.935 C 171.084 110.698,171.060 110.706,171.132 110.974 M186.664 110.974 C 186.765 111.346,190.117 111.604,190.458 111.265 C 190.557 111.167,189.818 111.120,188.816 111.161 C 187.486 111.215,186.936 111.154,186.783 110.935 C 186.616 110.698,186.591 110.706,186.664 110.974 M194.993 110.974 C 195.094 111.344,204.961 111.617,205.320 111.259 C 205.415 111.164,203.202 111.115,200.402 111.151 C 196.446 111.201,195.264 111.151,195.105 110.926 C 194.949 110.704,194.923 110.715,194.993 110.974 M207.148 110.974 C 207.249 111.346,210.825 111.605,211.168 111.265 C 211.266 111.166,210.476 111.119,209.412 111.160 C 207.991 111.214,207.421 111.154,207.266 110.935 C 207.100 110.698,207.075 110.706,207.148 110.974 M155.055 111.388 C 154.985 111.564,154.550 111.883,151.435 114.044 C 150.785 114.495,149.784 115.204,149.210 115.620 C 147.945 116.537,147.722 116.556,147.601 115.757 C 147.513 115.181,147.505 115.189,147.473 115.869 C 147.429 116.832,147.857 116.826,149.210 115.845 C 150.314 115.045,151.892 113.941,154.024 112.476 C 154.736 111.986,155.318 111.499,155.318 111.392 C 155.318 111.144,155.153 111.141,155.055 111.388 M256.042 113.435 C 256.230 113.799,256.486 114.160,256.611 114.237 C 256.736 114.314,256.625 114.016,256.365 113.576 C 255.795 112.609,255.563 112.509,256.042 113.435 M147.793 114.254 C 147.710 114.583,147.686 114.897,147.739 114.950 C 147.792 115.003,147.903 114.776,147.986 114.446 C 148.069 114.117,148.093 113.803,148.040 113.750 C 147.987 113.697,147.876 113.924,147.793 114.254 M246.708 114.306 C 246.708 114.561,250.108 116.826,250.491 116.826 C 250.639 116.826,250.758 116.649,250.756 116.432 C 250.753 116.111,250.715 116.098,250.550 116.358 C 250.354 116.668,247.952 115.337,247.016 114.401 C 246.846 114.231,246.708 114.189,246.708 114.306 M138.691 117.047 C 137.393 119.065,137.321 119.313,138.042 119.276 C 138.423 119.256,138.451 119.224,138.154 119.147 C 137.631 119.010,137.619 119.047,138.735 117.321 C 139.951 115.439,140.061 115.250,139.942 115.250 C 139.889 115.250,139.326 116.059,138.691 117.047 M258.011 116.488 C 258.288 116.984,258.746 117.734,259.029 118.155 C 259.716 119.179,259.697 119.184,257.053 118.636 C 255.789 118.374,254.699 118.214,254.633 118.281 C 254.566 118.347,254.604 118.403,254.718 118.405 C 254.831 118.407,255.876 118.610,257.040 118.856 C 260.211 119.525,260.148 119.561,258.990 117.719 C 257.973 116.100,257.375 115.349,258.011 116.488 " stroke="none" fill="#a4a0a6" fill-rule="evenodd"></path><path id="path3" d="M153.985 95.015 C 153.975 95.214,153.432 95.882,152.779 96.501 C 150.551 98.607,149.377 100.169,150.021 100.169 C 150.211 100.169,150.301 100.036,150.231 99.855 C 150.159 99.666,150.930 98.685,152.173 97.385 C 153.308 96.197,154.182 95.100,154.118 94.941 C 154.041 94.749,153.997 94.773,153.985 95.015 M243.673 95.892 C 245.072 97.506,245.358 97.791,245.352 97.566 C 245.349 97.450,244.773 96.798,244.071 96.117 C 242.950 95.029,242.902 95.002,243.673 95.892 M163.603 97.636 C 163.195 98.112,161.819 100.667,161.918 100.766 C 161.956 100.804,162.397 100.103,162.897 99.208 L 163.807 97.580 166.484 97.457 L 169.162 97.333 166.551 97.288 C 164.309 97.249,163.894 97.298,163.603 97.636 M171.299 97.411 C 171.299 97.504,172.115 97.547,173.112 97.506 C 174.375 97.455,175.042 97.523,175.308 97.731 C 175.651 98.000,175.658 97.991,175.380 97.636 C 175.061 97.229,171.301 97.022,171.299 97.411 M178.200 97.411 C 178.142 97.504,178.748 97.546,179.546 97.504 C 180.469 97.456,181.120 97.529,181.332 97.705 C 181.606 97.933,181.640 97.917,181.523 97.612 C 181.374 97.223,178.427 97.045,178.200 97.411 M183.559 97.483 C 183.477 97.615,183.471 97.783,183.545 97.858 C 183.620 97.932,183.680 97.875,183.680 97.730 C 183.680 97.537,185.122 97.468,189.104 97.468 L 194.528 97.468 193.917 98.511 C 193.580 99.084,193.420 99.483,193.561 99.396 C 193.798 99.249,194.710 97.637,194.710 97.364 C 194.710 97.119,183.711 97.236,183.559 97.483 M195.310 97.393 C 195.228 97.475,195.162 97.652,195.164 97.787 C 195.166 97.925,195.247 97.905,195.351 97.740 C 195.494 97.515,196.621 97.465,200.413 97.515 C 203.095 97.551,205.290 97.504,205.290 97.411 C 205.290 97.203,195.519 97.184,195.310 97.393 M207.316 97.411 C 207.316 97.504,208.177 97.580,209.229 97.580 C 210.281 97.580,211.142 97.504,211.142 97.411 C 211.142 97.319,210.281 97.243,209.229 97.243 C 208.177 97.243,207.316 97.319,207.316 97.411 M213.765 97.411 C 213.707 97.504,214.360 97.547,215.215 97.505 C 217.034 97.418,217.060 97.468,216.078 99.185 C 215.698 99.850,215.437 100.394,215.499 100.394 C 215.701 100.394,216.995 97.985,216.995 97.609 C 216.995 97.221,213.998 97.038,213.765 97.411 M225.745 97.636 C 225.468 97.990,225.475 98.000,225.814 97.735 C 226.088 97.520,226.877 97.458,228.685 97.510 C 230.055 97.548,231.177 97.504,231.177 97.411 C 231.176 97.015,226.067 97.226,225.745 97.636 M233.427 97.411 C 233.426 97.504,234.313 97.553,235.396 97.520 C 238.893 97.413,239.237 97.322,236.297 97.282 C 234.719 97.260,233.427 97.319,233.427 97.411 M153.853 98.034 C 153.414 98.386,153.414 98.388,153.896 98.155 C 155.130 97.559,155.093 97.359,155.093 104.563 L 155.093 111.208 154.042 111.935 C 153.464 112.335,152.730 112.893,152.410 113.176 C 152.091 113.459,152.499 113.234,153.317 112.674 C 155.491 111.189,155.332 111.863,155.265 104.418 C 155.200 97.184,155.157 96.992,153.853 98.034 M241.562 98.935 C 242.136 99.552,242.765 100.360,242.960 100.732 C 243.154 101.103,243.314 101.306,243.314 101.182 C 243.317 100.656,242.288 99.299,241.183 98.372 C 240.817 98.065,240.988 98.318,241.562 98.935 M181.497 99.268 C 181.497 99.949,181.539 100.228,181.591 99.887 C 181.642 99.547,181.642 98.990,181.591 98.649 C 181.539 98.309,181.497 98.588,181.497 99.268 M212.357 100.000 C 211.624 101.460,211.615 101.469,211.359 101.063 C 211.183 100.785,211.149 100.795,211.146 101.125 C 211.139 101.959,211.841 101.461,212.493 100.169 C 212.868 99.426,213.124 98.818,213.063 98.818 C 213.001 98.818,212.684 99.350,212.357 100.000 M176.590 99.944 C 176.782 100.315,176.990 100.619,177.052 100.619 C 177.113 100.619,177.007 100.315,176.815 99.944 C 176.623 99.572,176.415 99.268,176.353 99.268 C 176.291 99.268,176.398 99.572,176.590 99.944 M250.310 99.338 C 250.310 99.391,250.740 99.718,251.266 100.065 C 251.792 100.412,252.104 100.552,251.959 100.376 C 251.680 100.038,250.310 99.176,250.310 99.338 M192.857 100.169 C 192.672 100.466,192.332 100.619,191.861 100.619 C 190.456 100.619,190.429 100.668,190.477 103.175 L 190.521 105.459 190.646 103.208 L 190.771 100.957 191.758 100.844 C 192.571 100.752,193.964 99.719,193.276 99.719 C 193.200 99.719,193.012 99.921,192.857 100.169 M223.860 100.844 C 223.668 101.216,223.562 101.519,223.624 101.519 C 223.686 101.519,223.893 101.216,224.086 100.844 C 224.278 100.473,224.384 100.169,224.322 100.169 C 224.260 100.169,224.053 100.473,223.860 100.844 M202.138 100.609 L 199.100 100.732 199.061 101.519 C 199.023 102.286,199.026 102.289,199.175 101.632 L 199.328 100.957 202.136 100.893 C 203.681 100.858,205.042 100.731,205.162 100.612 C 205.282 100.492,205.334 100.415,205.279 100.440 C 205.223 100.466,203.810 100.542,202.138 100.609 M143.582 101.435 C 142.918 101.883,142.223 102.403,142.037 102.590 C 141.851 102.776,142.409 102.451,143.275 101.867 C 144.962 100.730,145.107 100.619,144.914 100.619 C 144.845 100.619,144.246 100.986,143.582 101.435 M181.497 101.745 C 181.497 102.425,181.539 102.704,181.591 102.364 C 181.642 102.023,181.642 101.466,181.591 101.125 C 181.539 100.785,181.497 101.064,181.497 101.745 M184.912 100.782 C 185.781 100.829,186.567 100.988,186.674 101.137 C 186.809 101.327,186.839 101.307,186.775 101.069 C 186.704 100.810,186.296 100.727,185.013 100.714 L 183.343 100.696 184.912 100.782 M214.915 101.125 C 214.733 101.404,214.354 102.083,214.074 102.633 L 213.564 103.634 214.987 106.508 C 215.770 108.089,216.447 109.346,216.491 109.301 C 216.536 109.257,215.943 107.969,215.175 106.439 L 213.777 103.658 214.602 102.138 C 215.409 100.653,215.575 100.116,214.915 101.125 M177.210 101.069 C 177.319 101.469,178.053 101.667,178.053 101.298 C 178.053 101.157,177.940 101.112,177.803 101.197 C 177.665 101.282,177.455 101.212,177.335 101.042 C 177.157 100.787,177.135 100.792,177.210 101.069 M160.766 102.589 C 158.991 105.674,158.439 106.697,158.551 106.697 C 158.614 106.697,159.190 105.760,159.831 104.615 C 160.472 103.469,161.196 102.203,161.439 101.801 C 161.683 101.398,161.828 101.069,161.762 101.069 C 161.695 101.069,161.247 101.753,160.766 102.589 M223.231 101.913 C 222.123 103.912,221.475 105.186,221.657 105.008 C 221.973 104.699,223.590 101.745,223.443 101.745 C 223.378 101.745,223.282 101.820,223.231 101.913 M200.338 102.344 C 202.794 102.508,205.240 102.519,205.143 102.364 C 205.085 102.271,203.753 102.213,202.181 102.235 C 200.610 102.258,199.781 102.306,200.338 102.344 M255.340 102.718 C 255.577 102.915,255.685 103.181,255.591 103.334 C 255.490 103.496,255.533 103.567,255.697 103.513 C 256.157 103.359,256.078 103.054,255.487 102.704 C 254.975 102.401,254.962 102.402,255.340 102.718 M144.081 103.063 C 144.071 103.231,142.316 105.607,140.180 108.343 C 135.787 113.972,135.671 114.125,135.809 114.125 C 136.090 114.125,144.310 103.282,144.213 103.040 C 144.127 102.828,144.094 102.833,144.081 103.063 M226.494 103.140 C 226.346 103.289,226.227 103.517,226.231 103.647 C 226.235 103.777,226.344 103.700,226.474 103.477 C 226.663 103.152,226.776 103.125,227.035 103.340 C 227.299 103.559,227.333 103.540,227.218 103.239 C 227.049 102.800,226.860 102.774,226.494 103.140 M145.790 105.627 C 143.828 108.650,143.784 108.723,143.912 108.723 C 143.967 108.723,144.798 107.502,145.759 106.010 C 146.948 104.163,147.606 103.336,147.822 103.419 C 147.996 103.486,148.076 103.440,148.001 103.318 C 147.706 102.840,147.377 103.183,145.790 105.627 M181.503 104.558 C 181.504 105.425,181.545 105.752,181.594 105.285 C 181.642 104.818,181.642 104.109,181.592 103.709 C 181.542 103.310,181.502 103.692,181.503 104.558 M164.666 104.345 C 164.422 104.530,164.087 104.629,163.923 104.566 C 163.758 104.503,163.685 104.551,163.761 104.673 C 163.979 105.027,164.443 104.933,164.885 104.446 C 165.365 103.915,165.284 103.878,164.666 104.345 M225.924 104.146 C 225.841 104.228,225.774 104.431,225.774 104.596 C 225.774 104.944,226.357 105.002,226.560 104.673 C 226.642 104.541,226.540 104.511,226.309 104.600 C 226.012 104.714,225.955 104.661,226.065 104.372 C 226.218 103.974,226.171 103.898,225.924 104.146 M250.685 104.821 C 250.417 105.089,250.525 105.250,250.972 105.250 C 251.303 105.250,251.352 105.179,251.170 104.960 C 250.891 104.625,250.883 104.622,250.685 104.821 M220.934 106.021 C 220.742 106.393,220.636 106.697,220.697 106.697 C 220.759 106.697,220.967 106.393,221.159 106.021 C 221.351 105.650,221.458 105.346,221.396 105.346 C 221.334 105.346,221.126 105.650,220.934 106.021 M190.516 107.710 C 190.516 108.948,190.554 109.425,190.600 108.771 C 190.645 108.117,190.645 107.104,190.598 106.520 C 190.552 105.936,190.515 106.472,190.516 107.710 M202.251 105.796 L 199.325 105.929 202.307 105.975 C 204.176 106.004,205.290 105.937,205.290 105.796 C 205.290 105.672,205.264 105.592,205.234 105.617 C 205.203 105.642,203.860 105.723,202.251 105.796 M251.759 106.116 C 251.840 106.364,251.777 106.626,251.611 106.732 C 251.399 106.866,251.427 106.916,251.716 106.918 C 252.160 106.922,252.224 106.526,251.861 106.021 C 251.662 105.745,251.643 105.762,251.759 106.116 M199.043 106.753 L 199.100 107.485 202.082 107.495 L 205.065 107.505 202.153 107.432 L 199.240 107.359 199.113 106.690 C 198.991 106.042,198.989 106.044,199.043 106.753 M255.461 106.660 C 255.711 107.012,256.094 107.442,256.311 107.617 C 256.529 107.792,256.365 107.504,255.947 106.978 C 255.088 105.897,254.769 105.689,255.461 106.660 M149.819 107.276 C 149.736 107.605,149.712 107.919,149.765 107.972 C 149.818 108.025,149.929 107.798,150.012 107.468 C 150.095 107.139,150.119 106.825,150.066 106.772 C 150.013 106.719,149.902 106.946,149.819 107.276 M238.829 106.880 C 238.829 107.289,237.692 107.485,237.438 107.121 C 237.257 106.863,237.235 106.868,237.311 107.147 C 237.361 107.333,237.597 107.514,237.836 107.549 C 238.344 107.625,239.244 107.037,238.998 106.790 C 238.905 106.697,238.829 106.738,238.829 106.880 M157.255 108.752 C 155.835 111.259,155.809 111.199,158.337 111.199 L 160.455 111.199 162.276 109.711 C 163.277 108.893,164.097 108.172,164.097 108.108 C 164.097 107.995,162.682 109.094,161.219 110.342 C 160.528 110.932,160.347 110.974,158.461 110.974 C 156.188 110.974,156.189 110.975,157.113 109.407 C 158.000 107.903,158.503 106.922,158.387 106.922 C 158.335 106.922,157.826 107.745,157.255 108.752 M219.921 107.822 C 219.669 108.317,219.513 108.723,219.574 108.723 C 219.636 108.723,219.894 108.317,220.146 107.822 C 220.399 107.327,220.555 106.922,220.493 106.922 C 220.431 106.922,220.174 107.327,219.921 107.822 M176.027 107.458 C 176.027 107.700,176.697 108.948,176.826 108.948 C 176.888 108.948,176.772 108.618,176.567 108.216 C 176.149 107.395,176.027 107.223,176.027 107.458 M242.928 107.922 C 242.790 108.225,242.296 108.909,241.831 109.442 C 241.054 110.331,241.045 110.355,241.723 109.736 C 242.504 109.022,243.453 107.643,243.281 107.472 C 243.225 107.416,243.066 107.618,242.928 107.922 M226.299 107.992 C 226.067 108.208,225.975 108.309,226.095 108.216 C 226.501 107.903,226.867 108.045,226.966 108.554 C 227.051 108.997,227.067 108.985,227.094 108.454 C 227.133 107.673,226.831 107.497,226.299 107.992 M256.859 108.376 C 257.249 109.053,262.460 115.701,262.601 115.701 C 262.709 115.701,261.775 114.317,261.538 114.125 C 261.341 113.966,258.823 110.752,258.363 110.073 C 257.960 109.478,256.630 107.977,256.859 108.376 M181.420 109.736 L 181.317 110.861 179.683 110.927 L 178.049 110.993 177.579 110.196 C 176.930 109.097,176.779 109.186,177.405 110.298 L 177.911 111.199 179.530 111.199 C 181.442 111.199,181.717 110.984,181.602 109.583 L 181.523 108.610 181.420 109.736 M212.057 109.060 C 212.053 109.184,212.279 109.690,212.559 110.186 L 213.069 111.086 214.955 111.152 C 217.115 111.228,217.418 111.071,216.888 110.154 C 216.549 109.568,216.557 109.772,216.906 110.636 C 217.022 110.920,216.739 110.974,215.110 110.974 L 213.177 110.974 212.620 109.904 C 212.314 109.316,212.061 108.936,212.057 109.060 M142.425 110.805 C 141.418 112.389,141.238 112.718,141.530 112.437 C 141.866 112.113,143.423 109.623,143.289 109.623 C 143.227 109.623,142.838 110.155,142.425 110.805 M223.298 110.298 C 222.258 111.173,218.417 111.358,218.636 110.523 C 218.701 110.275,218.662 110.129,218.550 110.199 C 218.437 110.268,218.346 110.521,218.346 110.762 C 218.346 111.654,222.286 111.385,223.410 110.416 C 223.905 109.989,224.260 109.639,224.198 109.637 C 224.136 109.636,223.731 109.934,223.298 110.298 M195.218 110.748 C 195.296 111.035,196.053 111.087,200.244 111.093 L 205.177 111.100 200.348 111.032 C 196.850 110.983,195.465 110.888,195.323 110.688 C 195.180 110.487,195.151 110.503,195.218 110.748 M254.136 110.683 C 254.322 110.751,254.676 110.971,254.924 111.172 C 255.370 111.533,255.371 111.532,254.945 111.030 C 254.710 110.751,254.355 110.531,254.158 110.541 C 253.853 110.556,253.850 110.578,254.136 110.683 M165.197 111.040 C 165.296 111.138,166.228 111.188,167.269 111.150 L 169.162 111.083 167.090 110.972 C 165.950 110.911,165.098 110.941,165.197 111.040 M171.447 111.030 C 171.505 111.123,172.356 111.199,173.339 111.199 C 174.322 111.199,175.127 111.123,175.127 111.030 C 175.127 110.937,174.275 110.861,173.235 110.861 C 172.194 110.861,171.390 110.937,171.447 111.030 M186.979 111.030 C 187.036 111.123,187.781 111.199,188.633 111.199 C 189.485 111.199,190.229 111.123,190.286 111.030 C 190.343 110.937,189.599 110.861,188.633 110.861 C 187.666 110.861,186.922 110.937,186.979 111.030 M207.463 111.030 C 207.520 111.123,208.315 111.199,209.229 111.199 C 210.143 111.199,210.938 111.123,210.995 111.030 C 211.052 110.937,210.258 110.861,209.229 110.861 C 208.200 110.861,207.406 110.937,207.463 111.030 M227.272 111.030 C 227.329 111.123,228.231 111.199,229.276 111.199 C 230.321 111.199,231.176 111.123,231.176 111.030 C 231.176 110.937,230.274 110.861,229.172 110.861 C 228.069 110.861,227.214 110.937,227.272 111.030 M233.427 111.030 C 233.427 111.123,234.769 111.180,236.410 111.158 C 239.409 111.117,239.049 111.033,235.396 110.921 C 234.313 110.888,233.426 110.937,233.427 111.030 M255.399 111.930 C 256.088 113.112,257.804 115.701,257.898 115.701 C 257.962 115.701,257.832 115.422,257.608 115.082 C 257.385 114.741,256.805 113.829,256.319 113.056 C 255.834 112.282,255.391 111.649,255.336 111.649 C 255.280 111.649,255.309 111.775,255.399 111.930 M150.293 114.519 C 149.593 114.983,149.020 115.439,149.018 115.531 C 149.016 115.675,150.940 114.426,151.593 113.860 C 152.104 113.417,151.466 113.740,150.293 114.519 M140.097 114.406 C 139.322 115.721,139.272 115.833,139.666 115.363 C 140.124 114.818,140.518 114.125,140.370 114.125 C 140.311 114.125,140.188 114.252,140.097 114.406 M246.933 114.216 C 246.933 114.278,247.389 114.642,247.946 115.025 C 248.503 115.409,248.959 115.672,248.959 115.610 C 248.959 115.548,248.503 115.184,247.946 114.800 C 247.389 114.417,246.933 114.154,246.933 114.216 M132.483 118.289 C 131.174 119.961,130.151 121.328,130.208 121.328 C 130.306 121.328,130.761 120.767,133.903 116.770 C 134.560 115.934,135.045 115.250,134.980 115.250 C 134.915 115.250,133.791 116.618,132.483 118.289 M263.239 116.675 C 263.585 117.130,263.914 117.501,263.970 117.501 C 264.126 117.501,263.152 116.185,262.864 116.007 C 262.723 115.920,262.892 116.221,263.239 116.675 M138.253 117.267 C 137.982 117.634,137.760 118.008,137.760 118.099 C 137.760 118.190,138.014 117.921,138.323 117.501 C 138.633 117.082,138.886 116.708,138.886 116.670 C 138.886 116.486,138.703 116.659,138.253 117.267 M265.048 119.047 C 265.657 119.822,266.258 120.520,266.385 120.598 C 266.512 120.676,266.117 120.107,265.509 119.332 C 264.900 118.557,264.299 117.859,264.172 117.781 C 264.045 117.703,264.440 118.273,265.048 119.047 M143.333 118.101 C 143.488 118.164,143.558 118.308,143.488 118.421 C 143.284 118.751,143.532 118.658,143.838 118.289 C 144.074 118.005,144.034 117.954,143.584 117.969 C 143.290 117.979,143.177 118.038,143.333 118.101 M253.911 118.490 C 253.911 118.663,254.077 118.868,254.281 118.946 C 254.573 119.058,254.597 119.023,254.395 118.780 C 254.255 118.611,254.207 118.406,254.288 118.325 C 254.370 118.243,254.318 118.177,254.174 118.177 C 254.029 118.177,253.911 118.318,253.911 118.490 M255.037 118.624 C 255.222 118.746,255.619 118.847,255.918 118.849 C 256.641 118.853,256.458 118.725,255.487 118.547 C 254.932 118.445,254.799 118.468,255.037 118.624 M257.175 119.077 C 257.423 119.183,257.828 119.268,258.075 119.264 C 258.437 119.259,258.415 119.222,257.963 119.077 C 257.193 118.831,256.601 118.831,257.175 119.077 M137.085 119.341 C 137.085 119.444,137.389 119.527,137.760 119.527 C 138.132 119.527,138.436 119.488,138.436 119.440 C 138.436 119.392,138.132 119.309,137.760 119.254 C 137.389 119.200,137.085 119.239,137.085 119.341 M258.920 119.457 C 259.136 119.514,259.491 119.514,259.707 119.457 C 259.924 119.401,259.747 119.354,259.313 119.354 C 258.880 119.354,258.703 119.401,258.920 119.457 M140.743 120.003 C 139.976 120.495,139.727 120.825,140.405 120.452 C 140.922 120.168,141.731 119.543,141.587 119.538 C 141.525 119.536,141.145 119.746,140.743 120.003 M258.075 121.213 C 258.578 121.631,260.004 122.402,259.651 122.065 C 259.527 121.947,259.021 121.623,258.526 121.345 C 258.030 121.067,257.828 121.008,258.075 121.213 M137.817 121.804 C 137.049 122.296,136.801 122.626,137.479 122.253 C 137.995 121.969,138.804 121.343,138.661 121.339 C 138.599 121.337,138.219 121.546,137.817 121.804 M128.869 122.904 C 128.297 123.647,127.880 124.254,127.942 124.254 C 128.004 124.254,128.522 123.647,129.094 122.904 C 129.666 122.161,130.083 121.553,130.021 121.553 C 129.959 121.553,129.440 122.161,128.869 122.904 M136.016 122.930 C 135.249 123.421,135.000 123.751,135.678 123.378 C 136.195 123.094,137.004 122.469,136.860 122.465 C 136.798 122.463,136.418 122.672,136.016 122.930 M134.215 124.027 C 133.813 124.272,133.483 124.522,133.483 124.581 C 133.483 124.641,133.838 124.480,134.271 124.225 C 134.705 123.969,135.059 123.719,135.059 123.669 C 135.059 123.525,134.988 123.556,134.215 124.027 M262.015 123.680 C 262.015 123.742,262.319 123.950,262.690 124.142 C 263.061 124.334,263.365 124.440,263.365 124.378 C 263.365 124.317,263.061 124.109,262.690 123.917 C 262.319 123.725,262.015 123.618,262.015 123.680 M269.443 124.705 C 269.835 125.200,270.207 125.605,270.269 125.605 C 270.330 125.605,270.060 125.200,269.668 124.705 C 269.276 124.209,268.904 123.804,268.842 123.804 C 268.780 123.804,269.051 124.209,269.443 124.705 M126.955 125.436 C 126.019 126.630,125.777 127.048,126.461 126.291 C 127.111 125.570,127.916 124.479,127.796 124.479 C 127.747 124.479,127.368 124.910,126.955 125.436 M130.852 126.129 C 128.415 127.616,127.437 128.351,129.319 127.283 C 130.990 126.334,133.258 124.902,133.258 124.797 C 133.258 124.659,133.312 124.629,130.852 126.129 M264.941 125.447 C 264.941 125.499,265.574 125.928,266.348 126.401 C 267.122 126.874,267.983 127.407,268.261 127.584 C 268.540 127.762,268.768 127.856,268.768 127.793 C 268.768 127.729,268.033 127.226,267.136 126.675 C 265.068 125.404,264.941 125.333,264.941 125.447 M270.752 126.393 C 271.000 126.764,271.577 127.473,272.036 127.968 C 272.494 128.464,272.732 128.669,272.563 128.426 C 272.165 127.850,271.660 127.230,270.908 126.393 L 270.302 125.718 270.752 126.393 M126.410 128.875 C 124.733 129.962,124.253 130.344,125.155 129.876 C 125.885 129.497,128.081 128.041,128.081 127.937 C 128.081 127.799,128.010 127.839,126.410 128.875 M268.993 127.936 C 268.993 127.994,269.524 128.369,270.174 128.769 C 270.824 129.169,271.584 129.645,271.863 129.827 C 272.141 130.010,272.369 130.105,272.369 130.040 C 272.369 129.975,271.736 129.526,270.962 129.042 C 269.064 127.854,268.993 127.814,268.993 127.936 M124.339 128.813 C 123.643 129.607,123.288 130.107,123.420 130.107 C 123.487 130.107,123.862 129.702,124.254 129.207 C 125.017 128.243,125.076 127.972,124.339 128.813 M273.721 130.151 C 274.144 130.663,273.944 130.793,273.270 130.445 C 272.898 130.253,272.594 130.146,272.594 130.208 C 272.594 130.270,272.892 130.475,273.257 130.663 C 274.021 131.058,274.459 130.720,273.860 130.197 C 273.660 130.023,273.597 130.002,273.721 130.151 M123.867 130.449 C 123.598 130.637,123.259 130.763,123.113 130.730 C 122.967 130.697,122.804 130.788,122.750 130.933 C 122.615 131.299,123.336 131.083,124.029 130.550 C 124.696 130.037,124.569 129.957,123.867 130.449 " stroke="none" fill="#7c747c" fill-rule="evenodd"></path><path id="path4" d="M205.354 98.481 C 205.356 99.100,205.400 99.326,205.451 98.984 C 205.503 98.642,205.502 98.135,205.448 97.858 C 205.395 97.582,205.353 97.862,205.354 98.481 M211.207 98.481 C 211.208 99.100,211.252 99.326,211.304 98.984 C 211.356 98.642,211.354 98.135,211.301 97.858 C 211.247 97.582,211.205 97.862,211.207 98.481 M177.905 99.381 C 177.906 100.371,177.945 100.749,177.993 100.219 C 178.040 99.690,178.040 98.879,177.991 98.418 C 177.943 97.957,177.904 98.391,177.905 99.381 M183.302 99.043 C 183.302 99.848,183.343 100.177,183.393 99.775 C 183.443 99.373,183.443 98.714,183.393 98.312 C 183.343 97.909,183.302 98.239,183.302 99.043 M207.190 104.221 C 207.190 107.873,207.221 109.367,207.259 107.541 C 207.297 105.715,207.297 102.727,207.259 100.900 C 207.221 99.074,207.190 100.568,207.190 104.221 M231.276 104.221 C 231.276 107.873,231.307 109.367,231.344 107.541 C 231.382 105.715,231.382 102.727,231.344 100.900 C 231.307 99.074,231.276 100.568,231.276 104.221 M195.035 104.333 C 195.035 107.923,195.066 109.361,195.104 107.527 C 195.142 105.693,195.141 102.756,195.104 100.999 C 195.066 99.243,195.035 100.743,195.035 104.333 M233.269 99.268 C 233.269 99.949,233.312 100.228,233.363 99.887 C 233.415 99.547,233.415 98.990,233.363 98.649 C 233.312 98.309,233.269 98.588,233.269 99.268 M169.113 99.831 C 169.115 100.450,169.159 100.677,169.210 100.335 C 169.262 99.992,169.261 99.486,169.207 99.209 C 169.154 98.932,169.112 99.212,169.113 99.831 M237.311 102.082 C 237.313 102.577,237.359 102.753,237.413 102.473 C 237.467 102.193,237.465 101.788,237.408 101.573 C 237.352 101.358,237.308 101.587,237.311 102.082 M169.113 102.983 C 169.115 103.602,169.159 103.828,169.210 103.486 C 169.262 103.144,169.261 102.637,169.207 102.360 C 169.154 102.084,169.112 102.364,169.113 102.983 M205.288 103.949 L 205.398 105.684 205.467 104.130 C 205.506 103.276,205.456 102.496,205.357 102.396 C 205.258 102.297,205.227 102.996,205.288 103.949 M143.585 103.073 C 143.766 103.188,143.822 103.389,143.719 103.555 C 143.605 103.741,143.634 103.784,143.803 103.679 C 144.204 103.432,144.111 102.870,143.669 102.873 C 143.358 102.876,143.340 102.918,143.585 103.073 M237.328 104.558 C 237.329 105.425,237.369 105.752,237.418 105.285 C 237.467 104.818,237.466 104.109,237.416 103.709 C 237.367 103.310,237.327 103.692,237.328 104.558 M147.582 103.472 C 147.723 103.574,147.893 103.860,147.961 104.108 C 148.059 104.463,148.077 104.443,148.044 104.013 C 148.021 103.713,147.850 103.427,147.665 103.377 C 147.442 103.317,147.414 103.349,147.582 103.472 M239.787 104.108 C 239.789 104.603,239.835 104.779,239.889 104.499 C 239.943 104.219,239.941 103.814,239.885 103.599 C 239.828 103.384,239.784 103.613,239.787 104.108 M243.846 104.783 C 243.848 105.402,243.891 105.629,243.943 105.287 C 243.995 104.945,243.994 104.438,243.940 104.161 C 243.887 103.884,243.844 104.164,243.846 104.783 M169.121 108.272 C 169.121 109.077,169.162 109.406,169.212 109.004 C 169.262 108.602,169.262 107.943,169.212 107.541 C 169.162 107.138,169.121 107.468,169.121 108.272 M205.287 108.789 L 205.396 110.186 205.468 108.972 C 205.508 108.304,205.459 107.676,205.359 107.575 C 205.259 107.475,205.226 108.021,205.287 108.789 M164.844 109.398 C 164.844 110.203,164.885 110.532,164.935 110.129 C 164.985 109.727,164.985 109.069,164.935 108.666 C 164.885 108.264,164.844 108.593,164.844 109.398 M211.195 109.398 C 211.195 109.831,211.241 110.008,211.298 109.792 C 211.354 109.575,211.354 109.221,211.298 109.004 C 211.241 108.787,211.195 108.965,211.195 109.398 M226.925 109.891 C 226.911 110.472,226.979 110.997,227.077 111.057 C 227.175 111.118,227.220 110.794,227.177 110.339 C 227.045 108.947,226.953 108.783,226.925 109.891 M186.659 110.073 C 186.659 110.506,186.705 110.684,186.762 110.467 C 186.818 110.250,186.818 109.896,186.762 109.679 C 186.705 109.463,186.659 109.640,186.659 110.073 M250.602 113.675 C 250.602 114.356,250.644 114.634,250.696 114.294 C 250.747 113.953,250.747 113.396,250.696 113.056 C 250.644 112.715,250.602 112.994,250.602 113.675 " stroke="none" fill="#847c7c" fill-rule="evenodd"></path></g></svg>