<svg id="svg" version="1.1" xmlns="http://www.w3.org/2000/svg" xmlns:xlink="http://www.w3.org/1999/xlink" width="400" height="400" viewBox="0, 0, 400,400"><g id="svgg"><path id="path0" d="M0.000 200.000 L 0.000 400.000 200.000 400.000 L 400.000 400.000 400.000 200.000 L 400.000 0.000 200.000 0.000 L 0.000 0.000 0.000 200.000 M116.010 171.989 C 113.094 175.075,110.820 177.600,110.957 177.600 C 111.094 177.600,113.244 176.520,115.736 175.200 C 118.228 173.880,120.386 172.800,120.533 172.800 C 120.680 172.800,120.791 178.425,120.780 185.300 L 120.760 197.800 113.713 202.700 C 109.837 205.395,106.607 207.540,106.534 207.467 C 106.462 207.395,107.761 202.064,109.422 195.622 C 111.082 189.179,112.374 183.840,112.292 183.758 C 112.210 183.676,111.165 184.486,109.971 185.558 L 107.800 187.506 107.400 185.351 L 107.000 183.195 97.761 197.498 C 92.679 205.364,88.652 211.853,88.812 211.917 C 88.971 211.981,92.026 211.299,95.600 210.400 C 99.175 209.501,102.164 208.831,102.243 208.910 C 102.347 209.013,67.576 230.655,61.739 234.120 C 60.745 234.710,61.133 234.196,80.997 208.585 C 91.886 194.547,100.750 183.017,100.696 182.962 C 100.641 182.908,99.157 183.207,97.398 183.628 C 95.639 184.049,94.052 184.346,93.871 184.287 C 93.690 184.228,99.720 180.114,107.271 175.143 C 114.822 170.172,121.070 166.167,121.156 166.242 C 121.242 166.317,118.926 168.903,116.010 171.989 M288.162 175.400 C 295.531 180.240,301.431 184.246,301.272 184.303 C 301.114 184.359,299.404 184.060,297.473 183.638 L 293.962 182.871 295.307 184.535 C 299.421 189.626,333.652 234.079,333.537 234.181 C 333.340 234.356,293.948 209.919,294.131 209.736 C 294.268 209.598,305.051 211.794,306.321 212.217 C 306.946 212.426,307.313 213.066,301.907 204.531 C 296.893 196.615,297.425 197.175,293.800 195.995 C 292.260 195.493,290.780 195.002,290.510 194.903 C 290.139 194.766,289.993 196.286,289.910 201.164 L 289.800 207.606 286.500 205.396 L 283.200 203.186 283.200 189.939 L 283.200 176.692 280.100 173.283 C 274.918 167.585,273.800 166.266,274.293 166.437 C 274.552 166.527,280.794 170.560,288.162 175.400 M145.200 185.200 L 145.200 197.600 141.416 197.600 L 137.632 197.600 137.516 194.447 L 137.400 191.294 133.617 194.447 L 129.834 197.600 125.683 197.600 L 121.532 197.600 123.266 194.470 C 124.220 192.748,127.340 187.175,130.200 182.084 L 135.400 172.829 140.300 172.815 L 145.200 172.800 145.200 185.200 M158.410 176.822 L 160.600 180.845 160.714 176.822 L 160.828 172.800 164.014 172.800 L 167.200 172.800 167.200 185.200 L 167.200 197.600 163.900 197.594 L 160.600 197.588 158.400 193.387 L 156.200 189.186 156.086 193.393 L 155.973 197.600 152.386 197.600 L 148.800 197.600 148.800 185.200 L 148.800 172.800 152.510 172.800 L 156.221 172.800 158.410 176.822 M209.600 176.000 L 209.600 179.200 204.000 179.200 L 198.400 179.200 198.400 180.400 L 198.400 181.600 204.000 181.600 L 209.600 181.600 209.600 185.000 L 209.600 188.400 204.000 188.400 L 198.400 188.400 198.400 189.600 L 198.400 190.800 204.000 190.800 L 209.600 190.800 209.600 194.200 L 209.600 197.600 200.406 197.600 L 191.212 197.600 191.106 185.306 L 191.000 173.011 189.072 176.106 L 187.143 179.200 185.172 179.200 L 183.200 179.200 183.200 188.400 L 183.200 197.600 179.800 197.600 L 176.400 197.600 176.400 188.400 L 176.400 179.200 173.400 179.200 L 170.400 179.200 170.400 176.000 L 170.400 172.800 190.000 172.800 L 209.600 172.800 209.600 176.000 M220.008 176.900 L 220.016 181.000 222.232 176.900 L 224.448 172.800 227.624 172.800 C 229.371 172.800,230.800 172.903,230.800 173.029 C 230.800 173.156,229.450 175.572,227.800 178.400 C 224.178 184.607,224.158 183.265,227.982 191.100 L 231.153 197.600 227.044 197.600 L 222.936 197.600 221.483 194.300 L 220.029 191.000 220.015 194.300 L 220.000 197.600 216.400 197.600 L 212.800 197.600 212.800 185.200 L 212.800 172.800 216.400 172.800 L 220.000 172.800 220.008 176.900 M255.600 185.200 L 255.600 197.600 251.816 197.600 L 248.032 197.600 247.916 194.447 L 247.800 191.294 244.017 194.447 L 240.234 197.600 236.083 197.600 L 231.932 197.600 233.666 194.470 C 234.620 192.748,237.740 187.175,240.600 182.084 L 245.800 172.829 250.700 172.815 L 255.600 172.800 255.600 185.200 M271.973 173.861 C 278.495 177.112,280.199 188.425,275.048 194.277 C 272.522 197.148,271.169 197.581,264.700 197.591 L 259.200 197.600 259.200 185.200 L 259.200 172.800 264.521 172.800 C 269.478 172.800,269.989 172.873,271.973 173.861 M266.400 185.043 L 266.400 190.887 267.500 190.626 C 272.121 189.532,271.464 179.200,266.774 179.200 C 266.559 179.200,266.400 181.686,266.400 185.043 M136.481 184.609 L 135.602 186.417 136.601 185.763 C 137.284 185.315,137.600 184.743,137.600 183.954 C 137.600 182.431,137.514 182.481,136.481 184.609 M246.881 184.609 L 246.002 186.417 247.001 185.763 C 247.684 185.315,248.000 184.743,248.000 183.954 C 248.000 182.431,247.914 182.481,246.881 184.609 M290.002 187.286 C 290.000 188.377,290.219 188.889,290.822 189.212 C 292.288 189.996,292.418 189.439,291.198 187.600 L 290.003 185.800 290.002 187.286 " stroke="none" fill="#fbfbfb" fill-rule="evenodd"></path><path id="path1" d="M107.200 175.403 C 100.050 180.125,94.344 183.991,94.521 183.994 C 94.698 183.997,96.094 183.715,97.623 183.367 C 99.153 183.020,100.556 182.795,100.740 182.867 C 100.925 182.940,92.545 193.980,82.119 207.400 C 71.693 220.820,62.795 232.301,62.345 232.913 C 61.658 233.848,62.157 233.638,65.464 231.599 C 67.629 230.264,76.628 224.723,85.463 219.286 C 94.298 213.849,101.475 209.347,101.413 209.283 C 101.350 209.219,98.375 209.901,94.800 210.800 C 91.225 211.699,88.249 212.381,88.185 212.317 C 87.945 212.074,107.014 182.895,107.300 183.067 C 107.465 183.166,107.600 184.137,107.600 185.224 C 107.600 187.700,107.745 187.689,110.390 185.010 C 111.580 183.805,112.616 182.882,112.692 182.958 C 112.768 183.035,111.461 188.447,109.787 194.987 C 108.113 201.526,106.801 206.933,106.871 207.003 C 106.942 207.073,110.013 205.031,113.695 202.465 L 120.390 197.800 120.395 185.500 C 120.398 178.735,120.281 173.200,120.135 173.200 C 119.989 173.200,117.606 174.398,114.839 175.862 L 109.808 178.523 112.349 175.657 C 113.746 174.081,115.029 172.705,115.200 172.600 C 115.596 172.355,120.530 166.797,120.341 166.808 C 120.264 166.813,114.350 170.680,107.200 175.403 M274.800 167.018 C 274.800 167.121,276.690 169.277,279.000 171.809 L 283.200 176.414 283.200 189.747 L 283.200 203.080 286.600 205.343 L 290.000 207.605 290.000 201.020 L 290.000 194.436 293.700 195.772 L 297.400 197.109 302.142 204.579 C 304.751 208.687,306.802 212.132,306.700 212.234 C 306.598 212.335,303.943 211.870,300.800 211.200 C 297.657 210.530,295.032 210.034,294.967 210.099 C 294.903 210.164,299.564 213.133,305.325 216.697 C 311.086 220.262,319.722 225.607,324.515 228.575 C 329.309 231.544,333.096 233.754,332.931 233.486 C 332.766 233.219,323.936 221.768,313.309 208.041 C 302.681 194.313,294.052 183.015,294.133 182.934 C 294.214 182.852,295.579 183.059,297.167 183.393 C 301.225 184.247,301.240 184.221,297.951 182.066 C 296.328 181.002,290.455 177.139,284.900 173.481 C 279.345 169.824,274.800 166.915,274.800 167.018 M128.689 185.200 L 121.673 197.600 125.658 197.600 L 129.643 197.600 133.521 194.337 L 137.400 191.074 137.516 194.337 L 137.632 197.600 141.416 197.600 L 145.200 197.600 145.200 185.200 L 145.200 172.800 140.453 172.800 L 135.706 172.800 128.689 185.200 M148.800 185.200 L 148.800 197.600 152.387 197.600 L 155.974 197.600 156.087 193.199 L 156.200 188.798 158.529 193.199 L 160.858 197.600 164.029 197.600 L 167.200 197.600 167.200 185.200 L 167.200 172.800 164.000 172.800 L 160.800 172.800 160.793 177.100 L 160.786 181.400 158.374 177.100 L 155.962 172.800 152.381 172.800 L 148.800 172.800 148.800 185.200 M170.800 176.000 L 170.800 179.200 173.600 179.200 L 176.400 179.200 176.400 188.400 L 176.400 197.600 179.800 197.600 L 183.200 197.600 183.200 188.400 L 183.200 179.200 185.100 179.187 C 187.166 179.174,186.885 179.459,190.099 174.100 L 190.879 172.800 180.840 172.800 L 170.800 172.800 170.800 176.000 M191.200 185.200 L 191.200 197.600 200.400 197.600 L 209.600 197.600 209.600 194.200 L 209.600 190.800 204.000 190.800 L 198.400 190.800 198.400 189.600 L 198.400 188.400 204.000 188.400 L 209.600 188.400 209.600 185.000 L 209.600 181.600 204.000 181.600 L 198.400 181.600 198.400 180.400 L 198.400 179.200 204.000 179.200 L 209.600 179.200 209.600 176.000 L 209.600 172.800 200.400 172.800 L 191.200 172.800 191.200 185.200 M212.800 185.200 L 212.800 197.600 216.408 197.600 L 220.016 197.600 219.797 193.700 C 219.552 189.315,219.524 189.299,221.982 194.900 L 223.167 197.600 226.983 197.600 C 229.082 197.600,230.800 197.533,230.800 197.451 C 230.800 197.369,229.344 194.308,227.564 190.649 L 224.329 183.996 226.818 179.698 C 228.186 177.334,229.657 174.815,230.086 174.100 L 230.865 172.800 227.733 172.802 L 224.600 172.804 222.400 176.902 L 220.200 181.000 220.086 176.900 L 219.972 172.800 216.386 172.800 L 212.800 172.800 212.800 185.200 M239.089 185.200 L 232.073 197.600 236.058 197.600 L 240.043 197.600 243.921 194.337 L 247.800 191.074 247.916 194.337 L 248.032 197.600 251.816 197.600 L 255.600 197.600 255.600 185.200 L 255.600 172.800 250.853 172.800 L 246.106 172.800 239.089 185.200 M259.200 185.200 L 259.200 197.677 264.712 197.538 C 274.418 197.295,278.725 192.852,277.827 184.010 C 277.026 176.126,273.470 173.109,264.700 172.872 L 259.200 172.723 259.200 185.200 M268.778 179.588 C 272.126 181.380,270.910 190.800,267.330 190.800 L 266.400 190.800 266.400 185.000 C 266.400 178.719,266.544 178.392,268.778 179.588 M137.600 183.914 C 137.600 185.174,137.398 185.547,136.391 186.142 L 135.181 186.856 136.274 184.628 C 137.571 181.984,137.600 181.968,137.600 183.914 M248.000 183.914 C 248.000 185.174,247.798 185.547,246.791 186.142 L 245.581 186.856 246.674 184.628 C 247.971 181.984,248.000 181.968,248.000 183.914 M292.639 189.894 C 291.801 190.732,290.001 188.929,290.009 187.261 L 290.018 185.400 291.383 187.593 C 292.134 188.799,292.699 189.834,292.639 189.894 " stroke="none" fill="#050505" fill-rule="evenodd"></path><path id="path2" d="M120.302 180.900 C 120.497 196.330,120.629 197.743,120.714 185.300 C 120.762 178.425,120.665 172.800,120.500 172.800 C 120.335 172.799,120.246 176.444,120.302 180.900 M170.540 176.000 C 170.540 177.870,170.609 178.635,170.693 177.700 C 170.777 176.765,170.777 175.235,170.693 174.300 C 170.609 173.365,170.540 174.130,170.540 176.000 M219.693 193.600 C 219.693 194.370,219.775 194.685,219.876 194.300 C 219.976 193.915,219.976 193.285,219.876 192.900 C 219.775 192.515,219.693 192.830,219.693 193.600 " stroke="none" fill="#7c7c7c" fill-rule="evenodd"></path><path id="path3" d="" stroke="none" fill="#9c9c9c" fill-rule="evenodd"></path><path id="path4" d="" stroke="none" fill="#bcbcbc" fill-rule="evenodd"></path></g></svg>